<svg xmlns="http://www.w3.org/2000/svg" xmlns:xlink="http://www.w3.org/1999/xlink" width="1020" height="499" viewBox="0 0 1020 499">
  <defs>
    <style>
      .FIFTH2cls-1 {
        fill: none;
      }

      .FIFTH2cls-2 {
        opacity: 0.5;
      }

      .FIFTH2cls-3, .FIFTH2cls-8 {
        font-size: 36px;
      }

      .FIFTH2cls-16, .FIFTH2cls-22, .FIFTH2cls-3, .FIFTH2cls-6, .FIFTH2cls-7, .FIFTH2cls-8 {
        fill: #fff;
      }

      .FIFTH2cls-3 {
        stroke: #1d1d1b;
        stroke-width: 0.25px;
        font-family: OpenSans-ExtraBoldItalic, Open Sans;
        font-weight: 800;
        font-style: italic;
      }

      .FIFTH2cls-23, .FIFTH2cls-3 {
        stroke-miterlimit: 10;
      }

      .FIFTH2cls-23, .FIFTH2cls-4 {
        fill: #da5713;
      }

      .FIFTH2cls-5 {
        fill: #f7931e;
      }

      .FIFTH2cls-6 {
        font-size: 18px;
      }

      .FIFTH2cls-21, .FIFTH2cls-22, .FIFTH2cls-31, .FIFTH2cls-6, .FIFTH2cls-7, .FIFTH2cls-8 {
        font-family: OpenSans-Bold, Open Sans;
        font-weight: 700;
      }

      .FIFTH2cls-7 {
        font-size: 21px;
      }

      .FIFTH2cls-9 {
        clip-path: url(#clip-path);
      }

      .FIFTH2cls-10 {
        fill: #d6907f;
      }

      .FIFTH2cls-11 {
        fill: #8c4b41;
      }

      .FIFTH2cls-12 {
        fill: #a45a49;
      }

      .FIFTH2cls-13 {
        fill: #f2e9e7;
      }

      .FIFTH2cls-14 {
        fill: #83a6b7;
      }

      .FIFTH2cls-15 {
        fill: #434043;
      }

      .FIFTH2cls-17 {
        fill: #e7b173;
      }

      .FIFTH2cls-18 {
        fill: #424242;
      }

      .FIFTH2cls-19 {
        fill: #eee;
      }

      .FIFTH2cls-20 {
        fill: #6f858e;
      }

      .FIFTH2cls-21 {
        font-size: 23.77px;
      }

      .FIFTH2cls-22 {
        font-size: 24px;
      }

      .FIFTH2cls-23 {
        stroke: #da5713;
      }

      .FIFTH2cls-24 {
        clip-path: url(#clip-path-3);
      }

      .FIFTH2cls-25 {
        fill: #999;
      }

      .FIFTH2cls-26 {
        fill: #ccc;
      }

      .FIFTH2cls-27 {
        fill: #e6e6e6;
      }

      .FIFTH2cls-28 {
        fill: #edbb2a;
      }

      .FIFTH2cls-29 {
        fill: #4d4d4d;
      }

      .FIFTH2cls-30 {
        fill: #c99b28;
      }

      .FIFTH2cls-31 {
        font-size: 22.17px;
      }

      .FIFTH2cls-32 {
        clip-path: url(#clip-path-5);
      }

      .FIFTH2cls-33 {
        fill: #d6853c;
      }

      .FIFTH2cls-34 {
        fill: #92542f;
      }

      .FIFTH2cls-35 {
        fill: #aa6433;
      }

      .FIFTH2cls-36 {
        fill: #bf6e37;
      }

      .FIFTH2cls-37 {
        fill: #71af77;
      }

      .FIFTH2cls-38 {
        fill: #5b895e;
      }

      .FIFTH2cls-39 {
        clip-path: url(#clip-path-7);
      }

      .FIFTH2cls-40 {
        fill: #111;
      }

      .FIFTH2cls-41 {
        fill: #414143;
      }

      .FIFTH2cls-42 {
        fill: #1a1a1a;
      }

      .FIFTH2cls-43 {
        fill: #ce6a3e;
      }

      .FIFTH2cls-44 {
        fill: gray;
      }

      .FIFTH2cls-45 {
        fill: #a85436;
      }
    </style>
    <clipPath id="clip-path">
      <rect class="FIFTH2cls-1" x="321" y="208" width="455.55" height="307"/>
    </clipPath>
    <clipPath id="clip-path-3">
      <rect class="FIFTH2cls-1" x="336" y="219" width="424.97" height="286.39"/>
    </clipPath>
    <clipPath id="clip-path-5">
      <rect class="FIFTH2cls-1" x="319" y="209" width="470.99" height="307"/>
    </clipPath>
    <clipPath id="clip-path-7">
      <rect class="FIFTH2cls-1" x="324" y="209" width="455.55" height="307"/>
    </clipPath>
  </defs>
  <title>prototypesave9</title>
  <g id="FIFTH">
    <g id="back-2" data-name="back">
      <rect class="FIFTH2cls-2" width="1020" height="500"/>
    </g>
    <text class="FIFTH2cls-3" transform="translate(441.62 74.86)">POINTS</text>
    <polygon class="FIFTH2cls-4" points="440 81.21 572 82.71 440 84.21 440 81.21"/>
    <polygon class="FIFTH2cls-4" points="440 87.29 551.52 88.79 440 90.29 440 87.29"/>
    <g>
      <rect class="FIFTH2cls-5" x="169" y="258" width="703" height="60"/>
      <text class="FIFTH2cls-6" transform="translate(303.23 298.35)">2 SCOOBY</text>
      <text class="FIFTH2cls-7" transform="translate(798.01 300.63)">00:00</text>
      <text class="FIFTH2cls-8" transform="translate(195.33 299.36)">2nd</text>
    </g>
    <g class="FIFTH2cls-9">
      <g class="FIFTH2cls-9">
        <path class="FIFTH2cls-10" d="M703.88,284.67c-3.42-3.14-2.47-5.61-4.76-5.7s-7.12-1.89-7.24-1.65-4.39,1.93-8.37,3.56l-.12-.09A54.06,54.06,0,0,0,670.13,279a27,27,0,0,0-8.21-1.07c-6.44.25-8.54.85-17.58,1.23s-12.87,2.54-15.1,5.67a29.31,29.31,0,0,0-2.39,4.72,77.64,77.64,0,0,0-10,8.26c-2.31.29-4.66.66-6.14,1.61a15.65,15.65,0,0,0-5.94,8.08c-.42,1.77-1.63,5.35-2.37,7.48a111.89,111.89,0,0,0-6.17,9.76l46-22.89,36.85-10.77,6-4.43c5.9-1,11.53-1.44,14-.21a39.39,39.39,0,0,1,8.83,6.22,11.8,11.8,0,0,0-4-8"/>
        <path class="FIFTH2cls-11" d="M670,407.84l-.62-17.55s-.48-11.19-4-14.51-6.69-3-8.23-2.2a12.08,12.08,0,0,1-3.14,1.13l-27.2-.62L620,388.28l5.13,6.28,9,.32a24.08,24.08,0,0,0,11.7-2.55l8.92-4.48s3.17,7,4,9.21,5.45,9.92,5.45,9.92Z"/>
        <path class="FIFTH2cls-11" d="M540.57,352.09s-5.89,34.25-9.78,43.44-9.16,21.3-9.16,21.3l23.19,23.65-8.41,3.73s-22.86-15.69-25.77-17.09-8.23,0-10.08-5S508,411,508,411s2.63-23.21.32-37.55a80,80,0,0,1,.25-26.36l16.71-2Z"/>
        <path class="FIFTH2cls-10" d="M478.28,326.08s6.9-1.34-10.91-12.68-47.69-10.6-49.41,7.12,11.15,23.25,11.73,39.91-21.5,23.36-21.5,23.36,15.44,3.12,23.48-2.33,17.5-12.83,19.06-22.68c1.78-11.22-4.62-27.48-2-30.46,4.46-5,16-10.86,21.29,1.49s9.55,5.66,9.55,5.66Z"/>
        <path class="FIFTH2cls-10" d="M534.83,441.68l-.45,1.13s5.09,4.3,7.65,9,5.22,10.34,5.22,10.34l6.09,3.78,8.78-4.56.75-2.09-20.71-21.55Z"/>
        <path class="FIFTH2cls-10" d="M659,422.88l4.07-8.92c.58-1.28-.34-9.39-.34-9.39L670,404l1.95,27.82-8.23,6.25-5.09-10.78Z"/>
        <path class="FIFTH2cls-10" d="M518,417.7l-2.39,9.4s8.33,3.47,11.3,4.47,7.93,5.94,7.93,5.94h5.94l5.94-7.93v-3Z"/>
        <path class="FIFTH2cls-11" d="M623.91,310.75s12.88-10.9,21.79-14.86S666.5,289,673.43,289h6.93s.58,2.56.58,9.49,1.4,16.26,2.39,17.25-10.89,5.94-17.82,12.87S651.73,348,651.73,348s-5-11.54-13-19.46a154.77,154.77,0,0,1-14.86-17.82"/>
        <path class="FIFTH2cls-12" d="M685.31,285.49a10.7,10.7,0,0,0-6.89,12.65c1.91,9.82,3.43,16.88,5.29,17.87a22.31,22.31,0,0,0,7.86,3c4.27.8,11.51,1.11,14.67,1.86s9.77,1.23,13.74,3.65,4,1.85,4.89,3.53a19.74,19.74,0,0,1,1.36,4.45l10.71-.68s1.73-7.18,0-10.27S708,299.3,706.85,297.25s-6.49-11.26-7.67-11.76-3.84-1.17-3.84-1.17l-14-11.91a10.25,10.25,0,0,0-.53,4.25c.37,1.57,4.49,8.83,4.49,8.83"/>
        <path class="FIFTH2cls-13" d="M706.36,298.24c0,3.35-3.24,6.07-7.24,6.07s-7.24-2.72-7.24-6.07,3.24-6.06,7.24-6.06,7.24,2.71,7.24,6.06"/>
        <path class="FIFTH2cls-14" d="M709.08,299.19c-2.64-2-3.82-6.63-6-9.54a15.3,15.3,0,0,0-4.47-4.16,5.94,5.94,0,0,1-5.74,3.47c-4.29-.17-6.6-4.29-6.6-4.29l-2,.56,1.51,30.14a2.42,2.42,0,0,0,1.55,2.16,28.48,28.48,0,0,0,6.85,1.8C698.52,319.82,705,321,705,321a26.6,26.6,0,0,1,3.46-9.08c3-5.12,5.45-8.58,5.45-8.58a50.43,50.43,0,0,0-4.79-4.13m-5.29,2.73c-2,1.13-4.65.16-6-2.18s-.85-5.15,1.11-6.28,4.65-.16,6,2.18.86,5.15-1.1,6.28"/>
        <path class="FIFTH2cls-15" d="M700.42,295.71s-1.61,2.22.43,3.34a2.13,2.13,0,0,0,3-.56Z"/>
        <path class="FIFTH2cls-15" d="M652.2,424.38l11.59-.11L666,433s1,2.79-2.56,7.3-5.8,4.29-5.8,4.29Z"/>
        <path class="FIFTH2cls-11" d="M735.38,324.08a2.37,2.37,0,1,1-2.94-1.6,2.36,2.36,0,0,1,2.94,1.6"/>
        <path class="FIFTH2cls-12" d="M497.15,412.75a34.74,34.74,0,0,1,9.91,2c5.94,2,11.78,3.25,11.78,3.25L516,427.6s-4-3-12.87-4a34.44,34.44,0,0,0-15.85,2s-10.89,5.95-13.86-3,0-10.89,3-12.87a51.43,51.43,0,0,1,4.95-3s8.91-12.88,8.91-16.84a21.78,21.78,0,0,0-4-12.87c-3-4-11.88-8.92-12.87-10.9s-5.95-5.94-6.94-9.9-2-15.84,2-25.75,14.86-19.8,23.77-20.79,19.81,2,22.78,3,8.91,5.94,8.91,5.94,9.91,5.94,12.88,5.94,40.6,2,49.51,1,23.77-9.9,27.73-11.88,9.9-5,13.87-3,6.93,0,12.87,7.92a62.81,62.81,0,0,1,10.89,25.75c1,6.93-4,26.74-7.92,30.7L632.83,386a84.07,84.07,0,0,1,3,8.91,84.63,84.63,0,0,0,3,8.92s5,2,4,6.93-2,5-5,6.93S611.93,423,611.93,423l-1.42-7.22s2.51-.09,7.46-3.06,5.94-4.95,5.94-4.95-6.93-4-7.92-7.92a63.11,63.11,0,0,0-4-9.91s-14.85,6.93-27.73,6.93S552.61,389,546.67,386s-15.85-9.9-15.85-9.9,4-12.88,0-20.8-7.92-8.91-7.92-8.91,1,29.71-4.95,38.62-20.8,27.73-20.8,27.73"/>
        <path class="FIFTH2cls-13" d="M610.09,367.35c-.91,2.91-5.18,4.17-9.53,2.81s-7.14-4.82-6.22-7.73,5.17-4.18,9.52-2.82,7.14,4.83,6.23,7.74"/>
        <path class="FIFTH2cls-13" d="M643.63,334.78c2.14,7.23-6.52,16.18-19.35,20s-25,1-27.1-6.23,6.52-16.18,19.35-20,25-1,27.1,6.24"/>
        <path class="FIFTH2cls-13" d="M547.1,341c-1.6,5.11-9.78,7.1-18.28,4.44s-14.08-8.95-12.49-14.06,9.78-7.09,18.28-4.44,14.08,9,12.49,14.06"/>
        <path class="FIFTH2cls-13" d="M502.43,342c1.41,2.65-.67,6.51-4.63,8.61s-8.31,1.65-9.72-1,.67-6.51,4.63-8.61,8.31-1.65,9.72,1"/>
        <path class="FIFTH2cls-13" d="M663.84,310.46c0,2.89-2.71,5.24-6,5.24s-6-2.35-6-5.24,2.7-5.24,6-5.24,6,2.34,6,5.24"/>
        <path class="FIFTH2cls-13" d="M671.15,301.56c-.55,1.23-2.55,1.53-4.48.67s-3-2.55-2.5-3.78,2.55-1.53,4.48-.67,3.05,2.55,2.5,3.78"/>
        <path class="FIFTH2cls-16" d="M717.05,316.89a5.32,5.32,0,0,0-8-1.19L683.33,284a1.37,1.37,0,0,0-2,0l-1,1,2,2v24.34l-47.7-5.86-1.87-.38-.44,2.47,32.37,23.91,1.72-1.87L637,308l70.07,10.65s-.32,4.23,2.09,5.75a5.89,5.89,0,0,0,8.08-1.69,6,6,0,0,0-.22-5.84m-31.67-4.81-1.06-21.14,19.81,24.76Zm27.17,11.54a3.47,3.47,0,1,1,3.46-3.47,3.47,3.47,0,0,1-3.46,3.47"/>
        <polygon class="FIFTH2cls-14" points="574.4 366.87 574.4 397.37 581.99 397.37 581.99 365.54 574.4 366.87"/>
        <path class="FIFTH2cls-14" d="M540.4,323.29l3.46,27.4a56.92,56.92,0,0,0,5.45,11.55c4,6.61,13.53,8.92,15.19,8.92h19.31l-1.12-46.09Z"/>
        <path class="FIFTH2cls-17" d="M620,290.82a6.94,6.94,0,0,0-1.12,4.45c.25,2.6.37,4.83.37,4.83h-3.34L612,306s.37,1-1.11,1.49-7.18-6.44-7.93-8.61-3.09-7.24-2.84-10.09,10.15-2.35,10.15-2.35Z"/>
        <path class="FIFTH2cls-18" d="M561.19,354l10.9-22.61,11.22,5.95-11.22,13.19s3.46,5.29,5.77,5.78,4.63.17,5.45,2.15-1.81,2-1.81,2h-6.11Z"/>
        <path class="FIFTH2cls-19" d="M573.78,328.16,572.33,333l9.85,5s4.76-7.13,6.91-10.1,4.29-9.74,2.47-11.06-.66-3-6.1-3.46-30.26-2.64-30.26-2.64l-7.87-14.2s-11.39,4.95-10,16.18c1.85,15.31,16,12.38,16,12.38h22Z"/>
        <path class="FIFTH2cls-20" d="M547.25,298.45a38.71,38.71,0,0,1,14.44-6.85A118.57,118.57,0,0,1,582.82,289c4.21-.25,15.26-1.16,15.59-.58a24.94,24.94,0,0,1,1.82,4.94,6.17,6.17,0,0,0,2,3.23s-.74,5-1.65,6.27-10.23,5.53-12.54,6l-17.58,3.79-15.6-1.07Z"/>
        <path class="FIFTH2cls-14" d="M582.63,301s-1.11-8.67,6.07-9.35a8.56,8.56,0,0,1,9.22,5.33s-.25,5.19.62,8a88.15,88.15,0,0,1,2.78,9.47,23.69,23.69,0,0,0,.93,4l20.24-11.07,3,4.58s-14.6,10.46-17.64,12.44-8.66,7.42-8.66,7.42Z"/>
        <path class="FIFTH2cls-14" d="M599,288.55s8,1.81,11.89,2.31,15.26,3.38,15.68,3.46,1.4-.33.66-.9-4.3-2.4-4.3-2.65.75-8.17-2-11.14a14.42,14.42,0,0,0-12.13-4.12c-4.21.74-7.59,3.3-8.66,7.26a30.27,30.27,0,0,0-1.16,5.78"/>
        <path class="FIFTH2cls-15" d="M612.77,290.36s-3.13,3.72-4,6.69a69,69,0,0,0-1.4,8.17l-1.82-1.74s1-3.63.42-4.87-7-10.06-7-10.06l2.07-1.08,6,9.08,3.47-6.6Z"/>
        <polygon class="FIFTH2cls-17" points="621.93 309.26 623.67 300.84 637.78 297.25 637.78 308.39 623.54 312.36 621.93 309.26"/>
        <path class="FIFTH2cls-10" d="M575.39,419.69l14.85-4.95,4,2,16.83-1,2,6.93s-26.74,4.95-30.7,4-6.93-6.93-6.93-6.93"/>
        <path class="FIFTH2cls-15" d="M576.38,417.7s4,5.94,7.92,5.94a20.48,20.48,0,0,0,7.92-2l3-2-1-10.89Z"/>
        <path class="FIFTH2cls-15" d="M540.73,428.59l-2,10.9h18.81a10.71,10.71,0,0,0-3-6.93,16.94,16.94,0,0,0-5.94-4Z"/>
        <path class="FIFTH2cls-15" d="M554.14,461.31l-1.77,10.18,19.78-1.37s-.71-5.9-3.89-7.51a27.92,27.92,0,0,0-6.26-2.25Z"/>
      </g>
      <text class="FIFTH2cls-21" transform="translate(545.39 350.1)">2</text>
    </g>
    <path class="FIFTH2cls-4" d="M425.89,120.16c-.62-.2-.41-1.13.52-.93a6.38,6.38,0,0,0,1.85.11v-4.13h-9.49V119s4,4.44,4.75,9.29c.75,5.07-.11,17.45-11,17.75-8.16.24-11.85-7.22-11.67-14a20.62,20.62,0,0,1,5-12.8l.1-4.23h-9.39v4.44s1-.1,1.85-.1c.43,0,.42.5.21.93-.92,1.84-4.46,8.24-4.54,14-.1,7.12,6,20.33,18.79,19.82s18.27-13.47,18.27-20.65S426.51,120.37,425.89,120.16Zm-24.06-3.25a1.29,1.29,0,1,1-1.29,1.29A1.3,1.3,0,0,1,401.83,116.91Zm-1.15,26.36-.05,0a.69.69,0,0,1-1.05-.15,17.8,17.8,0,0,1-2.13-5.29,28.57,28.57,0,0,1-.73-6.2c0-.42,1-.62,1-.2a45.12,45.12,0,0,0,1.34,6.5,40.43,40.43,0,0,0,1.77,4.26A.9.9,0,0,1,400.68,143.27Zm9.73,6.56-.16.46a.73.73,0,0,1-.82.45,13.2,13.2,0,0,1-3.1-1,16.07,16.07,0,0,1-3.56-2.78.69.69,0,0,1-.1-.93l.07-.09a.69.69,0,0,1,.94-.18l2.75,1.81a14.68,14.68,0,0,0,3.51,1.36A.7.7,0,0,1,410.41,149.83Zm12.38-30.34a1.29,1.29,0,1,1,1.29-1.29A1.29,1.29,0,0,1,422.79,119.49Zm-1,27.47a16.07,16.07,0,0,1-3.56,2.78,13.2,13.2,0,0,1-3.1,1,.73.73,0,0,1-.82-.45l-.16-.46a.7.7,0,0,1,.47-.9,14.68,14.68,0,0,0,3.51-1.36l2.75-1.81a.69.69,0,0,1,.94.18l.07.09A.69.69,0,0,1,421.84,147Zm3.19-3.8a.69.69,0,0,1-1,.15l-.05,0a.9.9,0,0,1-.19-1,40.43,40.43,0,0,0,1.77-4.26,45.12,45.12,0,0,0,1.34-6.5c.08-.42,1-.22,1,.2a28.57,28.57,0,0,1-.73,6.2A17.8,17.8,0,0,1,425,143.16Z"/>
    <path class="FIFTH2cls-4" d="M477.89,120.16c-.62-.2-.41-1.13.52-.93a6.38,6.38,0,0,0,1.85.11v-4.13h-9.49V119s4,4.44,4.75,9.29c.75,5.07-.11,17.45-11,17.75-8.16.24-11.85-7.22-11.67-14a20.62,20.62,0,0,1,5-12.8l.1-4.23h-9.39v4.44s1-.1,1.85-.1c.43,0,.42.5.21.93-.92,1.84-4.46,8.24-4.54,14-.1,7.12,6,20.33,18.79,19.82s18.27-13.47,18.27-20.65S478.51,120.37,477.89,120.16Zm-24.06-3.25a1.29,1.29,0,1,1-1.29,1.29A1.3,1.3,0,0,1,453.83,116.91Zm-1.15,26.36-.05,0a.69.69,0,0,1-1.05-.15,17.8,17.8,0,0,1-2.13-5.29,28.57,28.57,0,0,1-.73-6.2c0-.42,1-.62,1-.2a45.12,45.12,0,0,0,1.34,6.5,40.43,40.43,0,0,0,1.77,4.26A.9.9,0,0,1,452.68,143.27Zm9.73,6.56-.16.46a.73.73,0,0,1-.82.45,13.2,13.2,0,0,1-3.1-1,16.07,16.07,0,0,1-3.56-2.78.69.69,0,0,1-.1-.93l.07-.09a.69.69,0,0,1,.94-.18l2.75,1.81a14.68,14.68,0,0,0,3.51,1.36A.7.7,0,0,1,462.41,149.83Zm12.38-30.34a1.29,1.29,0,1,1,1.29-1.29A1.29,1.29,0,0,1,474.79,119.49Zm-1,27.47a16.07,16.07,0,0,1-3.56,2.78,13.2,13.2,0,0,1-3.1,1,.73.73,0,0,1-.82-.45l-.16-.46a.7.7,0,0,1,.47-.9,14.68,14.68,0,0,0,3.51-1.36l2.75-1.81a.69.69,0,0,1,.94.18l.07.09A.69.69,0,0,1,473.84,147Zm3.19-3.8a.69.69,0,0,1-1,.15l-.05,0a.9.9,0,0,1-.19-1,40.43,40.43,0,0,0,1.77-4.26,45.12,45.12,0,0,0,1.34-6.5c.08-.42,1-.22,1,.2a28.57,28.57,0,0,1-.73,6.2A17.8,17.8,0,0,1,477,143.16Z"/>
    <path class="FIFTH2cls-4" d="M528.89,120.16c-.62-.2-.41-1.13.52-.93a6.38,6.38,0,0,0,1.85.11v-4.13h-9.49V119s4,4.44,4.75,9.29c.75,5.07-.11,17.45-11,17.75-8.16.24-11.85-7.22-11.67-14a20.62,20.62,0,0,1,5-12.8l.1-4.23h-9.39v4.44s1-.1,1.85-.1c.43,0,.42.5.21.93-.92,1.84-4.46,8.24-4.54,14-.1,7.12,6,20.33,18.79,19.82s18.27-13.47,18.27-20.65S529.51,120.37,528.89,120.16Zm-24.06-3.25a1.29,1.29,0,1,1-1.29,1.29A1.3,1.3,0,0,1,504.83,116.91Zm-1.15,26.36-.05,0a.69.69,0,0,1-1.05-.15,17.8,17.8,0,0,1-2.13-5.29,28.57,28.57,0,0,1-.73-6.2c0-.42,1-.62,1-.2a45.12,45.12,0,0,0,1.34,6.5,40.43,40.43,0,0,0,1.77,4.26A.9.9,0,0,1,503.68,143.27Zm9.73,6.56-.16.46a.73.73,0,0,1-.82.45,13.2,13.2,0,0,1-3.1-1,16.07,16.07,0,0,1-3.56-2.78.69.69,0,0,1-.1-.93l.07-.09a.69.69,0,0,1,.94-.18l2.75,1.81a14.68,14.68,0,0,0,3.51,1.36A.7.7,0,0,1,513.41,149.83Zm12.38-30.34a1.29,1.29,0,1,1,1.29-1.29A1.29,1.29,0,0,1,525.79,119.49ZM524.84,147a16.07,16.07,0,0,1-3.56,2.78,13.2,13.2,0,0,1-3.1,1,.73.73,0,0,1-.82-.45l-.16-.46a.7.7,0,0,1,.47-.9,14.68,14.68,0,0,0,3.51-1.36l2.75-1.81a.69.69,0,0,1,.94.18l.07.09A.69.69,0,0,1,524.84,147Zm3.19-3.8a.69.69,0,0,1-1,.15l-.05,0a.9.9,0,0,1-.19-1,40.43,40.43,0,0,0,1.77-4.26,45.12,45.12,0,0,0,1.34-6.5c.08-.42,1-.22,1,.2a28.57,28.57,0,0,1-.73,6.2A17.8,17.8,0,0,1,528,143.16Z"/>
    <path class="FIFTH2cls-4" d="M577.89,120.16c-.62-.2-.41-1.13.52-.93a6.38,6.38,0,0,0,1.85.11v-4.13h-9.49V119s4,4.44,4.75,9.29c.75,5.07-.11,17.45-11,17.75-8.16.24-11.85-7.22-11.67-14a20.62,20.62,0,0,1,5-12.8l.1-4.23h-9.39v4.44s1-.1,1.85-.1c.43,0,.42.5.21.93-.92,1.84-4.46,8.24-4.54,14-.1,7.12,6,20.33,18.79,19.82s18.27-13.47,18.27-20.65S578.51,120.37,577.89,120.16Zm-24.06-3.25a1.29,1.29,0,1,1-1.29,1.29A1.3,1.3,0,0,1,553.83,116.91Zm-1.15,26.36,0,0a.69.69,0,0,1-1-.15,17.8,17.8,0,0,1-2.13-5.29,28.57,28.57,0,0,1-.73-6.2c0-.42,1-.62,1-.2a45.12,45.12,0,0,0,1.34,6.5,40.43,40.43,0,0,0,1.77,4.26A.9.9,0,0,1,552.68,143.27Zm9.73,6.56-.16.46a.73.73,0,0,1-.82.45,13.2,13.2,0,0,1-3.1-1,16.07,16.07,0,0,1-3.56-2.78.69.69,0,0,1-.1-.93l.07-.09a.69.69,0,0,1,.94-.18l2.75,1.81a14.68,14.68,0,0,0,3.51,1.36A.7.7,0,0,1,562.41,149.83Zm12.38-30.34a1.29,1.29,0,1,1,1.29-1.29A1.29,1.29,0,0,1,574.79,119.49ZM573.84,147a16.07,16.07,0,0,1-3.56,2.78,13.2,13.2,0,0,1-3.1,1,.73.73,0,0,1-.82-.45l-.16-.46a.7.7,0,0,1,.47-.9,14.68,14.68,0,0,0,3.51-1.36l2.75-1.81a.69.69,0,0,1,.94.18l.07.09A.69.69,0,0,1,573.84,147Zm3.19-3.8a.69.69,0,0,1-1,.15l-.05,0a.9.9,0,0,1-.19-1,40.43,40.43,0,0,0,1.77-4.26,45.12,45.12,0,0,0,1.34-6.5c.08-.42,1-.22,1,.2a28.57,28.57,0,0,1-.73,6.2A17.8,17.8,0,0,1,577,143.16Z"/>
    <path d="M628.89,120.16c-.62-.2-.41-1.13.52-.93a6.38,6.38,0,0,0,1.85.11v-4.13h-9.49V119s4,4.44,4.75,9.29c.75,5.07-.11,17.45-11,17.75-8.16.24-11.85-7.22-11.67-14a20.62,20.62,0,0,1,5-12.8l.1-4.23h-9.39v4.44s1-.1,1.85-.1c.43,0,.42.5.21.93-.92,1.84-4.46,8.24-4.54,14-.1,7.12,6,20.33,18.79,19.82s18.27-13.47,18.27-20.65S629.51,120.37,628.89,120.16Zm-24.06-3.25a1.29,1.29,0,1,1-1.29,1.29A1.3,1.3,0,0,1,604.83,116.91Zm-1.15,26.36,0,0a.69.69,0,0,1-1-.15,17.8,17.8,0,0,1-2.13-5.29,28.57,28.57,0,0,1-.73-6.2c0-.42,1-.62,1-.2a45.12,45.12,0,0,0,1.34,6.5,40.43,40.43,0,0,0,1.77,4.26A.9.9,0,0,1,603.68,143.27Zm9.73,6.56-.16.46a.73.73,0,0,1-.82.45,13.2,13.2,0,0,1-3.1-1,16.07,16.07,0,0,1-3.56-2.78.69.69,0,0,1-.1-.93l.07-.09a.69.69,0,0,1,.94-.18l2.75,1.81a14.68,14.68,0,0,0,3.51,1.36A.7.7,0,0,1,613.41,149.83Zm12.38-30.34a1.29,1.29,0,1,1,1.29-1.29A1.29,1.29,0,0,1,625.79,119.49ZM624.84,147a16.07,16.07,0,0,1-3.56,2.78,13.2,13.2,0,0,1-3.1,1,.73.73,0,0,1-.82-.45l-.16-.46a.7.7,0,0,1,.47-.9,14.68,14.68,0,0,0,3.51-1.36l2.75-1.81a.69.69,0,0,1,.94.18l.07.09A.69.69,0,0,1,624.84,147Zm3.19-3.8a.69.69,0,0,1-1,.15l-.05,0a.9.9,0,0,1-.19-1,40.43,40.43,0,0,0,1.77-4.26,45.12,45.12,0,0,0,1.34-6.5c.08-.42,1-.22,1,.2a28.57,28.57,0,0,1-.73,6.2A17.8,17.8,0,0,1,628,143.16Z"/>
    <text class="FIFTH2cls-22" transform="translate(452 193.91)"><tspan xml:space="preserve"> 40 Points</tspan></text>
    <g id="plant">
      <path class="FIFTH2cls-4" d="M737.63,426.76c9.16-1,18.43-2.59,27.56-4.45s18.23-4.08,27.2-6.66a272.27,272.27,0,0,0,52-20.45c16.42-8.71,31.86-19.63,44-33.69a99.76,99.76,0,0,0,8.35-11.08,90.85,90.85,0,0,0,6.73-12.13,89.71,89.71,0,0,0,4.84-13l.9-3.36c.31-1.12.49-2.26.75-3.39.53-2.26.81-4.56,1.18-6.85A111.56,111.56,0,0,0,911,283.9c-.33-2.3-.69-4.61-1.08-6.9l-1.45-6.85c-.25-1.14-.47-2.29-.75-3.43l-1-3.37c-.65-2.24-1.22-4.5-1.94-6.72a134.34,134.34,0,0,0-11.4-25.51l-3.7-5.94-4.13-5.65a112.57,112.57,0,0,0-9.29-10.48,110.24,110.24,0,0,0-22.19-17,128.24,128.24,0,0,0-25.65-11.33A154.06,154.06,0,0,0,801,174.78a146.76,146.76,0,0,0-28.11-.89,147.16,147.16,0,0,1,28.15.58,155,155,0,0,1,27.61,5.65,128.61,128.61,0,0,1,25.94,11.12,110.53,110.53,0,0,1,32.11,27.42l4.25,5.68,3.83,6A137,137,0,0,1,906.62,256c.76,2.24,1.36,4.53,2,6.79l1,3.4c.3,1.15.53,2.31.79,3.46l1.55,6.92c.43,2.32.82,4.66,1.18,7A113.48,113.48,0,0,1,913.6,312c-.36,2.35-.62,4.72-1.14,7.05-.24,1.16-.42,2.34-.73,3.49l-.88,3.46A92.94,92.94,0,0,1,906,339.47,95.17,95.17,0,0,1,899.22,352a103.54,103.54,0,0,1-8.48,11.5,115.65,115.65,0,0,1-9.83,10.34c-1.7,1.66-3.53,3.19-5.31,4.76s-3.65,3-5.56,4.46c-3.75,2.91-7.66,5.61-11.66,8.17s-8.09,5-12.24,7.23a276.66,276.66,0,0,1-52.52,21.35c-9.06,2.72-18.23,5-27.47,7s-18.51,3.68-28,4.84Z"/>
      <path class="FIFTH2cls-23" d="M775.31,422s-2.67-8.19-2.28-11.55,4.28-9.83,4.28-9.83,5,4.83,4,10.75S775.31,422,775.31,422Z"/>
      <path class="FIFTH2cls-23" d="M795.56,416.89s10.2,1.65,13.54,3.39,8,7.3,8,7.3-7.93,1.44-13.68-1.79A18.79,18.79,0,0,1,795.56,416.89Z"/>
      <path class="FIFTH2cls-23" d="M825.34,387.64s.49,8.61-.74,11.88-6.62,9-6.62,9-3.54-5.64-1.14-11.37S825.34,387.64,825.34,387.64Z"/>
      <path class="FIFTH2cls-23" d="M853.72,373.57s1.82,8.4,1.09,11.74-5.22,9.57-5.22,9.57-4.43-5.18-2.91-11.06S853.72,373.57,853.72,373.57Z"/>
      <path class="FIFTH2cls-23" d="M876.82,353.07s3.84,7.81,3.93,11.16-2.9,10.08-2.9,10.08-5.66-4.28-5.56-10.2S876.82,353.07,876.82,353.07Z"/>
      <path class="FIFTH2cls-23" d="M892.67,330.24s5.45,7.07,6.22,10.31-.81,10.2-.81,10.2-6.54-3.38-7.66-9.15S892.67,330.24,892.67,330.24Z"/>
      <path class="FIFTH2cls-23" d="M896.54,302.37s8.49,4.62,10.74,7.28,4,9.39,4,9.39-7.81-1-11.57-5.79A16.73,16.73,0,0,1,896.54,302.37Z"/>
      <path class="FIFTH2cls-23" d="M893.35,274.2s9.43,3.34,12.21,5.62,5.89,8.6,5.89,8.6-8,.11-12.74-4.06A17.31,17.31,0,0,1,893.35,274.2Z"/>
      <path class="FIFTH2cls-23" d="M881.82,243.68s10.36,1.11,13.84,2.66,8.57,6.85,8.57,6.85-7.84,1.84-13.85-1.08A19.43,19.43,0,0,1,881.82,243.68Z"/>
      <path class="FIFTH2cls-23" d="M861.19,215.46s10.55-1.27,14.49-.58,10.71,4.52,10.71,4.52-7.1,3.48-14,2.09A23.05,23.05,0,0,1,861.19,215.46Z"/>
      <path class="FIFTH2cls-23" d="M829.71,193.69s10.22-2.89,14.3-2.85,11.74,2.68,11.74,2.68-6.26,4.49-13.44,4.23A25.86,25.86,0,0,1,829.71,193.69Z"/>
      <path class="FIFTH2cls-23" d="M796.7,182.34s9.76-3.94,13.86-4.34,12.18,1.36,12.18,1.36S817.2,184.44,810,185A27.64,27.64,0,0,1,796.7,182.34Z"/>
      <path class="FIFTH2cls-23" d="M833,404s10.55-1.38,14.5-.74,10.79,4.39,10.79,4.39-7,3.57-14,2.24A23.25,23.25,0,0,1,833,404Z"/>
      <path class="FIFTH2cls-23" d="M863.78,386s10.44-2.08,14.47-1.71,11.27,3.62,11.27,3.62-6.72,4-13.78,3.17A24.48,24.48,0,0,1,863.78,386Z"/>
      <path class="FIFTH2cls-23" d="M888.87,363.93s10.29-2.65,14.37-2.51,11.6,3,11.6,3-6.4,4.35-13.56,3.91A25.4,25.4,0,0,1,888.87,363.93Z"/>
      <path class="FIFTH2cls-23" d="M905.75,337.59s9.56-4.31,13.64-4.88,12.29.87,12.29.87-5.25,5.28-12.48,6.08A28.27,28.27,0,0,1,905.75,337.59Z"/>
      <path class="FIFTH2cls-23" d="M913.89,307.87s5.42-7.77,8.6-10.08,11.34-4.94,11.34-4.94a17,17,0,0,1-6.77,10.5C921.29,307.28,913.89,307.87,913.89,307.87Z"/>
      <path class="FIFTH2cls-23" d="M911.42,272.15s2.79-8.52,5.16-11.4,9.55-7.14,9.55-7.14A14.65,14.65,0,0,1,922.9,265C918.51,270,911.42,272.15,911.42,272.15Z"/>
      <path class="FIFTH2cls-23" d="M898.27,236.57s-.74-8.57.4-11.86,6.37-9.15,6.37-9.15,3.72,5.56,1.47,11.33S898.27,236.57,898.27,236.57Z"/>
      <path class="FIFTH2cls-23" d="M877.31,207.16s-4.54-7.52-4.92-10.83,2-10.17,2-10.17,6.05,3.91,6.48,9.79S877.31,207.16,877.31,207.16Z"/>
      <path class="FIFTH2cls-23" d="M840.4,183.68s-5.91-6.8-6.89-10,.17-10.19.17-10.19,6.77,3.08,8.26,8.78S840.4,183.68,840.4,183.68Z"/>
    </g>
    <g id="plant-2" data-name="plant">
      <path class="FIFTH2cls-4" d="M296.57,432.74c-9.5-1.16-18.75-2.85-28-4.84s-18.4-4.33-27.46-7a276.66,276.66,0,0,1-52.52-21.35c-4.16-2.27-8.26-4.65-12.25-7.23s-7.9-5.26-11.65-8.17c-1.91-1.42-3.72-3-5.57-4.46s-3.6-3.1-5.31-4.76A118.57,118.57,0,0,1,144,364.54a104.74,104.74,0,0,1-8.47-11.5,95.17,95.17,0,0,1-6.79-12.57A92.94,92.94,0,0,1,123.86,327l-.88-3.46c-.31-1.15-.49-2.33-.74-3.49-.52-2.33-.78-4.7-1.13-7.05a113.48,113.48,0,0,1,.42-28.41c.36-2.34.75-4.68,1.17-7l1.55-6.92c.27-1.15.5-2.31.8-3.46l1-3.4c.69-2.26,1.29-4.55,2-6.79a136.4,136.4,0,0,1,11.83-25.72l3.83-6,4.24-5.68a110.85,110.85,0,0,1,32.12-27.42A128.77,128.77,0,0,1,206,181.12a155.06,155.06,0,0,1,27.62-5.65,147.14,147.14,0,0,1,28.15-.58,146.73,146.73,0,0,0-28.11.89,154.06,154.06,0,0,0-27.47,5.94,128,128,0,0,0-25.65,11.33,110.58,110.58,0,0,0-22.2,17,113.93,113.93,0,0,0-9.28,10.48L145,226.18l-3.71,5.94a134.94,134.94,0,0,0-11.39,25.51c-.73,2.22-1.29,4.48-2,6.72l-.94,3.37c-.28,1.14-.5,2.29-.75,3.43L124.78,278c-.4,2.29-.75,4.6-1.08,6.9a111.09,111.09,0,0,0-.11,27.81c.37,2.29.65,4.59,1.18,6.85.25,1.13.44,2.27.75,3.39l.9,3.36a89.71,89.71,0,0,0,4.84,13A91.92,91.92,0,0,0,138,351.43a101.09,101.09,0,0,0,8.36,11.08c12.14,14.06,27.59,25,44,33.69a272.62,272.62,0,0,0,52,20.45q13.45,3.87,27.2,6.66c9.13,1.86,18.4,3.44,27.56,4.45Z"/>
      <path class="FIFTH2cls-23" d="M259.4,423s2.67-8.19,2.27-11.55-4.27-9.83-4.27-9.83-5,4.83-4,10.75S259.4,423,259.4,423Z"/>
      <path class="FIFTH2cls-23" d="M239.15,417.89s-10.21,1.65-13.54,3.39-8,7.3-8,7.3,7.93,1.44,13.68-1.79A18.86,18.86,0,0,0,239.15,417.89Z"/>
      <path class="FIFTH2cls-23" d="M209.36,388.64s-.48,8.61.75,11.88,6.61,9,6.61,9,3.55-5.64,1.15-11.37S209.36,388.64,209.36,388.64Z"/>
      <path class="FIFTH2cls-23" d="M181,374.57s-1.82,8.4-1.1,11.74,5.23,9.57,5.23,9.57,4.43-5.18,2.91-11.06S181,374.57,181,374.57Z"/>
      <path class="FIFTH2cls-23" d="M157.89,354.07s-3.84,7.81-3.93,11.16,2.89,10.08,2.89,10.08,5.66-4.28,5.57-10.2S157.89,354.07,157.89,354.07Z"/>
      <path class="FIFTH2cls-23" d="M142,331.24s-5.45,7.07-6.22,10.31.81,10.2.81,10.2,6.53-3.38,7.66-9.15S142,331.24,142,331.24Z"/>
      <path class="FIFTH2cls-23" d="M138.16,303.37s-8.49,4.62-10.73,7.28-4,9.39-4,9.39,7.81-1,11.58-5.79A16.69,16.69,0,0,0,138.16,303.37Z"/>
      <path class="FIFTH2cls-23" d="M141.35,275.2s-9.42,3.34-12.2,5.62-5.89,8.6-5.89,8.6,8,.11,12.73-4.06A17.24,17.24,0,0,0,141.35,275.2Z"/>
      <path class="FIFTH2cls-23" d="M152.88,244.68s-10.35,1.11-13.83,2.66-8.57,6.85-8.57,6.85,7.84,1.84,13.85-1.08A19.44,19.44,0,0,0,152.88,244.68Z"/>
      <path class="FIFTH2cls-23" d="M173.52,216.46S163,215.19,159,215.88s-10.71,4.52-10.71,4.52,7.1,3.48,14,2.09A23.05,23.05,0,0,0,173.52,216.46Z"/>
      <path class="FIFTH2cls-23" d="M205,194.69s-10.21-2.89-14.3-2.85S179,194.52,179,194.52s6.26,4.49,13.44,4.23A25.8,25.8,0,0,0,205,194.69Z"/>
      <path class="FIFTH2cls-23" d="M238,183.34s-9.77-3.94-13.86-4.34S212,180.36,212,180.36s5.54,5.08,12.78,5.6A27.64,27.64,0,0,0,238,183.34Z"/>
      <path class="FIFTH2cls-23" d="M201.69,405s-10.54-1.38-14.49-.74-10.8,4.39-10.8,4.39,7,3.57,14,2.24A23.19,23.19,0,0,0,201.69,405Z"/>
      <path class="FIFTH2cls-23" d="M170.92,387s-10.43-2.08-14.46-1.71-11.27,3.62-11.27,3.62,6.71,4,13.78,3.17A24.48,24.48,0,0,0,170.92,387Z"/>
      <path class="FIFTH2cls-23" d="M145.84,364.93s-10.3-2.65-14.37-2.51-11.6,3-11.6,3,6.4,4.35,13.55,3.91A25.41,25.41,0,0,0,145.84,364.93Z"/>
      <path class="FIFTH2cls-23" d="M129,338.59s-9.56-4.31-13.64-4.88-12.29.87-12.29.87,5.25,5.28,12.47,6.08A28.3,28.3,0,0,0,129,338.59Z"/>
      <path class="FIFTH2cls-23" d="M120.82,308.87s-5.42-7.77-8.6-10.08-11.34-4.94-11.34-4.94a17,17,0,0,0,6.77,10.5C113.42,308.28,120.82,308.87,120.82,308.87Z"/>
      <path class="FIFTH2cls-23" d="M123.29,273.15s-2.79-8.52-5.17-11.4-9.54-7.14-9.54-7.14A14.65,14.65,0,0,0,111.81,266C116.2,271,123.29,273.15,123.29,273.15Z"/>
      <path class="FIFTH2cls-23" d="M136.44,237.57s.73-8.57-.41-11.86-6.36-9.15-6.36-9.15-3.72,5.56-1.47,11.33S136.44,237.57,136.44,237.57Z"/>
      <path class="FIFTH2cls-23" d="M157.4,208.16s4.54-7.52,4.91-10.83-2-10.17-2-10.17-6,3.91-6.47,9.79S157.4,208.16,157.4,208.16Z"/>
      <path class="FIFTH2cls-23" d="M194.31,184.68s5.91-6.8,6.88-10S201,164.5,201,164.5s-6.76,3.08-8.25,8.78S194.31,184.68,194.31,184.68Z"/>
    </g>
    <g class="FIFTH2cls-24">
      <g class="FIFTH2cls-24">
        <path class="FIFTH2cls-25" d="M672.33,285.29a39.45,39.45,0,0,0-6.92-1.28c-1.41-1.51-4.46-3.57-10.7-3.71-9.93-.24-10.86,1.15-14.55,2.65s-3.93-1-9.24.73-7.72,6.08-9.93,7.93-5.78-.92-10.86,2.54-8.7,10.7-11,14c-2,2.87-3.87,10.08-4.32,11.94-2.45,3.72-3.79,6.2-3.79,6.2l43-21.36,34.38-10.05,8.35-6.14Z"/>
        <path class="FIFTH2cls-26" d="M684.13,400.84,676.67,395c-1.7-.91-8-5.38-9.78-9.31-1.84-4.1-6-4.2-7.66-4s-5.34-.92-5.34-.92l-21.34-8.55L621.93,382.4l2.42,7.16,7.73,3.22a22.5,22.5,0,0,0,11.06,1.59l9.25-1s8.14,7.32,10,8.55c5.1,3.47,18.94,5.08,18.94,5.08Z"/>
        <path class="FIFTH2cls-26" d="M539.25,372.24s-.47,9.82-5.09,17.9-10.85,18.71-10.85,18.71l21.21,19.25-5.27,5.39S514.53,418.78,512,417.16s-7.62-.92-8.77-5.77,8.08-9.47,8.08-9.47,5-21.2,4.47-34.74a74.73,74.73,0,0,1,3.15-24.39h15.71Z"/>
        <path class="FIFTH2cls-25" d="M479.6,324.72a2.92,2.92,0,0,0-.33-3.07c-2.68-3.35-10.49-11.25-25.71-12.57-15.48-1.36-23.87.73-28.26,3-3.84,2-10,5.73-9.85,13.12l4,10.32c.22,1.95.64,4.28-2.61,8.47-3.44,4.42-11.49,5.21-17.1-1.23-4.46-5.14-.3-2-6.46-17.1-3-7.24-3.8-4.6-4.84-2.26a21.82,21.82,0,0,0-1.86,7.58c-.33,5.68,1.05,9.14,1.15,11.78,0,1,3.31,9,4.16,9.54,0,0,11.24,11.72,20.48,9.86,8.47-1.71,14.08.5,20.84-6.16,5.19-5.13,6.53-14.68,4.72-17.78-.79-1.35-2.63-7.17-1.08-7.32,14.88-1.42,19.9-8.51,22.79-10,8.45-4.39,12.79,6.52,13.8,7.13l.25.13.8.39a2.91,2.91,0,0,0,3.9-1.35Z"/>
        <path class="FIFTH2cls-15" d="M441.08,420.06l-2.46-10-16,7.16a10,10,0,0,0,5.17,4.77,15.82,15.82,0,0,0,6.57,1.11Z"/>
        <path class="FIFTH2cls-15" d="M558.34,445.49l.47,9.64,17.72-5.29s-1.85-5.23-5.07-6a26.48,26.48,0,0,0-6.15-.76Z"/>
        <path class="FIFTH2cls-15" d="M703,426.17l-2.76-10.46,7.36-4s2.28-1.58,7.19.64,5.2,4.26,5.2,4.26Z"/>
        <path class="FIFTH2cls-15" d="M570.66,410.24s3.69,5.54,7.39,5.54a19.12,19.12,0,0,0,7.39-1.85l2.77-1.85-.92-10.16Z"/>
        <path class="FIFTH2cls-19" d="M536.76,431.57l-.18,1.12a35.48,35.48,0,0,1,8.79,6.61c3.28,3.74,6.87,8.35,6.87,8.35l6.31,2.2,7.06-6,.26-2-23.25-15.39Z"/>
        <path class="FIFTH2cls-19" d="M572.5,414.85l13.86-4.61,3.7,1.84,15.7-.92,1.85,6.47s-24.94,4.62-28.64,3.69-6.47-6.47-6.47-6.47"/>
        <path class="FIFTH2cls-19" d="M696.23,415.7l-6.49-6.45c-.92-.92-8.32-2.74-8.32-2.74l1.83-6.47,21.63,4.83,6.14,6.62-11.09,6.05Z"/>
        <path class="FIFTH2cls-19" d="M464.63,420.66l-1.55-8.92s-8.41.22-11.32.51-9-2.05-9-2.05l-5.06,2.27-2,9,1.13,2.53Z"/>
        <path class="FIFTH2cls-26" d="M616.85,313.23s12-10.16,20.32-13.86,19.4-6.46,25.87-6.46h6.47a46.79,46.79,0,0,1,.54,8.85c0,6.47,1.3,15.17,2.23,16.09s-10.16,5.54-16.63,12S642.79,348,642.79,348s-4.69-10.76-12.08-18.15a144,144,0,0,1-13.86-16.63"/>
        <path class="FIFTH2cls-27" d="M518.46,403.92c-1.16,4.7-8.55,8.24-12.32,9.55-4.59,1.59-5,3-15.52,4.18-12.18,1.42-6.36.4-15.43,2.44-2.35.53-5.5-.17-10.93.46l-2-8.93c2.26-1,10.16-3.23,10.16-3.23s15.68-3.66,15.51-6.05,3.36-6.7,6.66-7.14c1.62-.21,3.66.17,3.78-1.27.13-1.63.46-5.45.46-7.48,0-3.7-7.62-7.63-10.4-11.32s-11.08-8.32-12-10.16-5.54-5.55-6.46-9.24-1.85-14.78,1.84-24,13.86-18.48,22.18-19.4,18.47,1.85,21.25,2.77c2.45.82,7.09,4.54,8.11,5.38a3.58,3.58,0,0,0,.45.31c1.49.88,9.26,5.4,11.76,5.4,2.77,0,37.88,1.84,46.19.92s22.17-9.24,25.87-11.09,9.24-4.62,12.93-2.77,6.47,0,12,7.39a58.67,58.67,0,0,1,10.17,24c.92,6.47-3.7,24.95-7.39,28.64l-8.5,8.5a3.66,3.66,0,0,0-.85,3.83c.61,1.68,1.43,4.06,1.95,6.15a70.77,70.77,0,0,0,2.29,7,3.66,3.66,0,0,0,1.48,1.81,5.56,5.56,0,0,1,2.7,5.93c-.92,4.62-1.85,4.62-4.62,6.47-2.07,1.38-14.47,3.46-20.64,4.44a3.65,3.65,0,0,1-1.91-7,28.78,28.78,0,0,0,4.08-2.06c.69-.42,1.3-.81,1.84-1.19a3.64,3.64,0,0,0,.26-5.81c-1.71-1.38-3.5-3.2-3.95-5a41.91,41.91,0,0,0-2.17-5.95,3.66,3.66,0,0,0-4.69-2c-4.78,1.9-14.21,5.14-22.71,5.14-12,0-29.56-7.39-35.1-10.17a135.14,135.14,0,0,1-12.67-7.78,3.65,3.65,0,0,1-1.51-3.82c.87-3.87,2.08-11.67-.6-17l-.4-.76a3.65,3.65,0,0,0-6.89,1.67c0,9-.14,18.27.36,24.19.77,9.24-3.25,18.45-4.62,24"/>
        <path class="FIFTH2cls-27" d="M674.13,289.67a10,10,0,0,0-6.43,11.8c1.77,9.16,3.19,15.75,4.93,16.67a20.73,20.73,0,0,0,7.33,2.77c4,.75,10.74,1,13.68,1.73s9.13,1.16,12.82,3.41,3.75,1.73,4.56,3.29a18.07,18.07,0,0,1,1.27,4.16l10-.64s1.62-6.69,0-9.58-27-20.73-28.06-22.64-6.06-10.5-7.16-11a36.83,36.83,0,0,0-3.58-1.09l-13.05-11.11a9.46,9.46,0,0,0-.5,4c.35,1.46,4.2,8.23,4.2,8.23"/>
        <path class="FIFTH2cls-28" d="M696.3,302.45c-2.46-1.84-3.57-6.18-5.57-8.9a14.09,14.09,0,0,0-4.17-3.88,5.53,5.53,0,0,1-5.35,3.24c-4-.16-6.16-4-6.16-4l-1.85.53,1.4,28.12a2.28,2.28,0,0,0,1.45,2,26.59,26.59,0,0,0,6.39,1.68c4,.46,10,1.54,10,1.54a24.82,24.82,0,0,1,3.23-8.47c2.77-4.77,5.08-8,5.08-8a47.4,47.4,0,0,0-4.46-3.85M691.36,305c-1.83,1.06-4.34.15-5.6-2s-.79-4.81,1-5.87,4.33-.14,5.59,2,.8,4.8-1,5.86"/>
        <path class="FIFTH2cls-29" d="M688.22,299.2s-1.51,2.08.4,3.12a2,2,0,0,0,2.83-.52Z"/>
        <path class="FIFTH2cls-26" d="M720.83,325.67a2.21,2.21,0,1,1-2.74-1.49,2.2,2.2,0,0,1,2.74,1.49"/>
        <path class="FIFTH2cls-16" d="M703.73,319a5,5,0,0,0-7.43-1.12l-24-29.56a1.28,1.28,0,0,0-1.85,0l-.92.92,1.84,1.85v22.71l-44.49-5.46L625.1,308l-.4,2.3,30.19,22.31,1.61-1.75-27.41-20.12,65.36,9.93s-.3,3.95,1.94,5.37a5.51,5.51,0,0,0,7.55-1.58,5.58,5.58,0,0,0-.21-5.44m-29.54-4.5-1-19.71,18.48,23.09Zm25.34,10.77a3.23,3.23,0,1,1,3.24-3.23,3.23,3.23,0,0,1-3.24,3.23"/>
        <polygon class="FIFTH2cls-28" points="570.66 365.58 570.66 394.04 577.74 394.04 577.74 364.35 570.66 365.58"/>
        <path class="FIFTH2cls-28" d="M538.94,324.93l3.23,25.56a53.24,53.24,0,0,0,5.08,10.78c3.7,6.16,12.63,8.32,14.17,8.32h18l-1-43Z"/>
        <path class="FIFTH2cls-17" d="M613.16,294.65a6.46,6.46,0,0,0-1,4.15c.23,2.42.35,4.5.35,4.5h-3.12l-3.58,5.54s.35.93-1,1.39-6.7-6-7.39-8-2.89-6.75-2.65-9.41,9.47-2.19,9.47-2.19Z"/>
        <path class="FIFTH2cls-18" d="M558.34,353.57l10.16-21.09L579,338,568.5,350.34s3.23,4.93,5.39,5.39,4.31.15,5.08,2-1.69,1.85-1.69,1.85h-5.7Z"/>
        <path class="FIFTH2cls-19" d="M570.08,329.48,568.73,334l9.19,4.64s4.44-6.64,6.44-9.42,4-9.08,2.31-10.31-.62-2.77-5.7-3.23-28.23-2.47-28.23-2.47L545.4,300s-10.62,4.62-9.36,15.09c1.72,14.28,14.91,11.55,14.91,11.55H571.5Z"/>
        <path class="FIFTH2cls-30" d="M545.33,301.76a36.34,36.34,0,0,1,13.47-6.39,110.29,110.29,0,0,1,19.71-2.46c3.93-.23,14.24-1.08,14.55-.54a22.61,22.61,0,0,1,1.69,4.61,5.81,5.81,0,0,0,1.85,3s-.69,4.7-1.54,5.85-9.55,5.16-11.7,5.62L567,315l-14.55-1Z"/>
        <path class="FIFTH2cls-28" d="M578.34,304.17s-1-8.09,5.65-8.72a8,8,0,0,1,8.61,5s-.23,4.85.57,7.51a79,79,0,0,1,2.6,8.83,22.34,22.34,0,0,0,.87,3.76l18.88-10.34,2.77,4.27s-13.62,9.76-16.45,11.61a82,82,0,0,0-8.09,6.93Z"/>
        <path class="FIFTH2cls-28" d="M593.6,292.52s7.47,1.7,11.08,2.16,14.25,3.15,14.63,3.23,1.31-.31.62-.85-4-2.23-4-2.46.7-7.62-1.84-10.39a13.5,13.5,0,0,0-11.32-3.85c-3.93.69-7.08,3.08-8.08,6.77a29,29,0,0,0-1.08,5.39"/>
        <path class="FIFTH2cls-15" d="M606.46,294.22s-2.93,3.46-3.7,6.23a63.59,63.59,0,0,0-1.31,7.62l-1.69-1.61s.92-3.39.38-4.55-6.54-9.39-6.54-9.39l1.92-1,5.62,8.47,3.24-6.16Z"/>
        <polygon class="FIFTH2cls-17" points="615 311.85 616.62 303.99 629.78 300.64 629.78 311.04 616.5 314.73 615 311.85"/>
      </g>
      <text class="FIFTH2cls-31" transform="translate(545.33 351.56)">1</text>
    </g>
    <g class="FIFTH2cls-32">
      <g class="FIFTH2cls-32">
        <path class="FIFTH2cls-33" d="M691.75,280.06a38.51,38.51,0,0,0-5.19-1.06c-1-.85-5.26-4.29-8.94-5.26-4.23-1.11-15.23,0-15.23,0s8.7-.24,10.75.87a30.56,30.56,0,0,1,4.64,3.66h0c-1.49-1.29-4.5-3.48-7.83-3.66-4.74-.25-12.42,1.24-13.57,0s-5.76-.74-5.76-.74a17.4,17.4,0,0,1,3.84,1.85c2.18,1.36,11,.92,14.25,1.74a26.79,26.79,0,0,1,2.84.86c-1.47.06-3,.16-4.64.31-2-.17-4-.33-4.9-.39-2.43-.17-6.65-.15-10.49-2a10,10,0,0,0-6.91-.87s2,1,3.45,1.61,5.64.64,10,2.24l1.12.41c-1.19.2-2.4.41-3.63.66l-.58-.09a64.5,64.5,0,0,0-14.32-1.11c-5.63.12-7,2.22-7,2.22s5-1.85,6.91-.62a39.05,39.05,0,0,0,4.5,2.27l-.81.3a20.22,20.22,0,0,0-6.25-.41c-3.2.57-6,.8-7.1,0s-3.65,0-3.65,0,1.28,1.56,4.61,1.81c2.58.19,6.23.19,7.74.6-.94.47-1.86.95-2.77,1.47a21,21,0,0,1-4.55,0c-2-.33-5.71-1.88-7.59-1s-4.18,1.74-4.18,1.74l4.7-.39s3.75.58,6.39,1.16c1.19.26,1.39.62,1.26.93l-1,.66a16.7,16.7,0,0,0-7.54-.93c-3.76.57-6.28,2.17-8,2.61a17.17,17.17,0,0,1-4.93,0s.85,1.65,4.09,1.21,7-2.63,9.39-1.43c1.11.55,2.13,1.14,2.91,1.63l-1,.78c-1.07-.07-2.41-.12-3.84-.09-3.41.07-5.2.9-7.68,1.64a33.62,33.62,0,0,1-4.65,1s4.93-.2,7.61-.66a12.23,12.23,0,0,1,5.51.74l-.3.27c-1,.15-2.84.43-4.41.77-2.31.49-4.44,2.61-7.25,2.29s-2.73.87-2.73.87,2.81-.15,6.22,0a11.64,11.64,0,0,0,5-.87c-1,1-1.88,1.94-2.78,2.91a20.19,20.19,0,0,0-5.73,1.48c-2.54,1.32-6.21,2.75-6.21,2.75s3,.85,4.35,0c.87-.57,3.11-.77,4.63-.85-.38.44-.75.89-1.11,1.33l-1.8.94a7.52,7.52,0,0,1-4.2,1.81c-3,.5-5,1-5,1a10,10,0,0,0,4.44.87c1.09-.12,2.37-.36,3.33-.56A120.26,120.26,0,0,0,601.59,324l47.61-22.89,38.1-10.77,9.26-6.59Z"/>
        <path class="FIFTH2cls-34" d="M694.07,422.9l-5.19-20s-2.3-10.15-4.48-14.49-5.38-5.2-7.17-4.95a12.51,12.51,0,0,1-3.45,0l-26.11-10.11-11.78,10.89,2.69,7.68,8.56,3.44A25.64,25.64,0,0,0,659.4,397l10.25-1.07s5.52,10.1,6.94,12c3.33,4.46,9.75,16,9.75,16Z"/>
        <path class="FIFTH2cls-34" d="M544.25,373.27s-2.65,11.26-7.77,19.93S520.36,412,520.36,412l-31.78,31.69-6.4-7.23s12-12.5,9.17-14.23,8.79-8,7.51-13.2,8-10.45,8-10.45,12-16.25,11.35-30.75a77.52,77.52,0,0,1,3.5-26.15h17.41Z"/>
        <path class="FIFTH2cls-15" d="M544.25,427.86l-2,10.89h19.45a10.51,10.51,0,0,0-3.07-6.93,17.66,17.66,0,0,0-6.14-4Z"/>
        <path class="FIFTH2cls-15" d="M469.11,459.39l-10.66.8L464.88,479s5.73-2.14,6.53-5.62a27.26,27.26,0,0,0,.65-6.61Z"/>
        <path class="FIFTH2cls-15" d="M692.59,458.51l.68-11.57,9.12-1.62s2.94-.86,7.36,3,4,6.06,4,6.06Z"/>
        <path class="FIFTH2cls-15" d="M586.69,445.4s7.38.05,9.68-3.23a19.94,19.94,0,0,0,2.9-7.67l0-3.57-9.9-5.29Z"/>
        <path class="FIFTH2cls-33" d="M483.86,435.84l-1.26-.15s-3,6-7,9.62-9,7.62-9,7.62l-2.23,6.82,6.81,7.39,2.28.21L489.7,442Z"/>
        <path class="FIFTH2cls-33" d="M595,443.44l1.2-13.23,11-2.47,18.14-3.23,4.86,5.47s-21.54,13.71-25.68,14.47-9.52-1-9.52-1"/>
        <path class="FIFTH2cls-33" d="M690.76,440.24s-1.41-7.26-1.28-8.66-3.56-8.74-3.56-8.74l6.82-2.93,12.18,21,.87,8-11.72.68Z"/>
        <path class="FIFTH2cls-33" d="M520.71,417l-2.48,9.4s8.62,3.47,11.69,4.46,8.19,5.94,8.19,5.94h6.14l6.15-7.92v-3Z"/>
        <path class="FIFTH2cls-35" d="M630.26,310s13.31-10.89,22.53-14.85,21.5-6.93,28.67-6.93h7.16s.6,2.55.6,9.49S690.67,314,691.69,315s-11.26,6-18.43,12.88S659,347.3,659,347.3s-5.2-11.54-13.39-19.46A155.18,155.18,0,0,1,630.26,310"/>
        <path class="FIFTH2cls-36" d="M499.2,412a36.93,36.93,0,0,1,10.24,2c6.15,2,12.19,3.25,12.19,3.25l-3,9.62s-4.1-3-13.31-4a36.66,36.66,0,0,0-16.38,2s-11.27,5.94-14.34-3,0-10.89,3.07-12.87a52.41,52.41,0,0,1,5.12-3S492,393.2,492,389.24a21.33,21.33,0,0,0-4.1-12.88c-3.07-4-12.29-8.91-13.31-10.89s-6.14-5.94-7.17-9.9-2-15.85,2.05-25.75S484.87,310,494.08,309s20.48,2,23.55,3,9.22,5.95,9.22,5.95,10.24,5.94,13.31,5.94,42,2,51.19,1S615.93,315,620,313s10.24-5,14.34-3,7.16,0,13.31,7.93,10.24,18.81,11.26,25.74-4.1,26.74-8.19,30.7l-11.26,10.9a83.83,83.83,0,0,1,3.07,8.91,116,116,0,0,0,4.22,11.51s5,1.74,4,6.69-5.29,9.69-10.75,13.25c-5,3.23-14.12,6.33-14.12,6.33l-4.44-6.21,13.63-13.87s-10.18-8.4-12.22-12.25c-1.93-3.64-4.87-10.4-4.87-10.4s-15.35,6.93-28.66,6.93-32.77-7.92-38.91-10.89S534,375.37,534,375.37s4.09-12.87,0-20.79-8.2-8.92-8.2-8.92,1,29.71-5.11,38.63S499.2,412,499.2,412"/>
        <path class="FIFTH2cls-36" d="M693.74,284.76s-9.09,2.83-7.12,12.65,3.54,16.87,5.46,17.86a23.54,23.54,0,0,0,8.13,3c4.41.8,11.9,1.11,15.16,1.85s10.11,1.24,14.21,3.65,4.16,1.86,5,3.53a18.8,18.8,0,0,1,1.41,4.46l11.07-.68s1.79-7.18,0-10.28-29.88-22.22-31.1-24.26-6.72-11.27-7.93-11.76a41,41,0,0,0-4-1.18l-14.46-11.9s-.94,2.68-.56,4.25,4.65,8.83,4.65,8.83"/>
        <path class="FIFTH2cls-37" d="M718.32,298.46c-2.73-2-4-6.63-6.17-9.54a15.45,15.45,0,0,0-4.62-4.16,6.13,6.13,0,0,1-5.94,3.47c-4.43-.17-6.82-4.3-6.82-4.3l-2,.56,1.55,30.15a2.47,2.47,0,0,0,1.61,2.16,30.7,30.7,0,0,0,7.08,1.8c4.43.49,11.09,1.65,11.09,1.65a26,26,0,0,1,3.58-9.08c3.07-5.12,5.63-8.58,5.63-8.58a50.49,50.49,0,0,0-4.94-4.13m-5.48,2.73c-2,1.13-4.8.15-6.2-2.18s-.88-5.15,1.15-6.29,4.8-.15,6.2,2.19.88,5.15-1.15,6.28"/>
        <path class="FIFTH2cls-15" d="M709.36,295s-1.67,2.23.44,3.34a2.24,2.24,0,0,0,3.14-.55Z"/>
        <path class="FIFTH2cls-34" d="M745.51,323.35a2.36,2.36,0,0,1-1.66,2.94,2.47,2.47,0,0,1-3-1.6,2.36,2.36,0,0,1,1.66-2.94,2.46,2.46,0,0,1,3,1.6"/>
        <path class="FIFTH2cls-16" d="M726.55,316.16a5.6,5.6,0,0,0-8.23-1.2l-26.63-31.69a1.44,1.44,0,0,0-2,0l-1,1,2,2v24.34l-49.32-5.86-1.94-.38-.45,2.47,33.46,23.91,1.78-1.87-30.38-21.58,72.45,10.66s-.34,4.23,2.15,5.75c3.59,2.19,7.45.08,8.36-1.69a5.79,5.79,0,0,0-.23-5.84m-32.74-4.82-1.09-21.13L713.2,315Zm28.09,11.55a3.47,3.47,0,1,1,3.58-3.47,3.52,3.52,0,0,1-3.58,3.47"/>
        <polygon class="FIFTH2cls-37" points="579.07 366.13 579.07 396.64 586.92 396.64 586.92 364.81 579.07 366.13"/>
        <path class="FIFTH2cls-37" d="M543.91,322.56l3.58,27.4a55.88,55.88,0,0,0,5.64,11.55c4.09,6.6,14,8.91,15.7,8.91h20l-1.15-46.09Z"/>
        <path class="FIFTH2cls-17" d="M626.17,290.09a6.83,6.83,0,0,0-1.16,4.45c.26,2.6.39,4.83.39,4.83h-3.46l-4,5.94s.39,1-1.15,1.48-7.42-6.43-8.19-8.6-3.2-7.24-2.94-10.09,10.49-2.35,10.49-2.35Z"/>
        <path class="FIFTH2cls-18" d="M565.42,353.26l11.26-22.62,11.6,5.95-11.6,13.2s3.58,5.28,6,5.78,4.78.16,5.63,2.14-1.87,2-1.87,2h-6.32Z"/>
        <path class="FIFTH2cls-19" d="M578.43,327.43l-1.5,4.87,10.19,5s4.92-7.12,7.13-10.09,4.44-9.74,2.56-11.06-.68-3-6.31-3.47S559.21,310,559.21,310l-8.13-14.19S539.31,300.77,540.7,312c1.91,15.31,16.52,12.38,16.52,12.38H580Z"/>
        <path class="FIFTH2cls-38" d="M551,297.72a40.59,40.59,0,0,1,14.93-6.85,124.51,124.51,0,0,1,21.84-2.64c4.35-.25,15.79-1.16,16.13-.58a24,24,0,0,1,1.87,4.94,6.23,6.23,0,0,0,2.05,3.23s-.77,5-1.7,6.27-10.59,5.53-13,6L575,311.91l-16.12-1.07Z"/>
        <path class="FIFTH2cls-37" d="M587.58,300.3s-1.15-8.67,6.27-9.35,9.53,5.32,9.53,5.32-.25,5.2.64,8.05a83.46,83.46,0,0,1,2.88,9.47,23.09,23.09,0,0,0,1,4l20.93-11.08,3.07,4.58s-15.1,10.46-18.24,12.44-9,7.43-9,7.43Z"/>
        <path class="FIFTH2cls-37" d="M604.49,287.81s8.28,1.82,12.29,2.31,15.79,3.39,16.21,3.47,1.45-.33.68-.91-4.43-2.39-4.43-2.64.77-8.17-2-11.14a15.26,15.26,0,0,0-12.54-4.13c-4.35.75-7.85,3.3-9,7.27a30.12,30.12,0,0,0-1.2,5.77"/>
        <path class="FIFTH2cls-15" d="M618.74,289.63s-3.24,3.71-4.09,6.68a64.68,64.68,0,0,0-1.45,8.17l-1.88-1.73s1-3.63.43-4.87-7.26-10.07-7.26-10.07l2.14-1.07,6.23,9.08,3.58-6.6Z"/>
        <polygon class="FIFTH2cls-17" points="628.21 308.53 630 300.11 644.6 296.52 644.6 307.66 629.88 311.62 628.21 308.53"/>
        <path class="FIFTH2cls-33" d="M449.29,305.56a64.21,64.21,0,0,0-23,2.31,17.76,17.76,0,0,0-13,19l1.08,9.54a7,7,0,0,1-8.58,7.49,34.93,34.93,0,0,1-15.63-7.59c-4.37-3.53-9.77-21.28-9.55-20.84a22.78,22.78,0,0,0-5.54,12.63,25.07,25.07,0,0,1-1.24-5.77,19.9,19.9,0,0,0,.64,11c.1.33.21.64.31.93,0,2.26,0,4.37,0,6.14-.25-.12-.52-.26-.83-.44a14,14,0,0,1-4.6-4s-1.8,5.45,2.81,8.42a45.68,45.68,0,0,1,5.63,4l4.22,2.41s5.51,2.54-.38,1.8-7.42-1.73-7.42-1.73.64,6.18,8.32,5.94,11-1.12,10.49-.37c-.16.23.62.38,1.62.5l2,1.18a54.42,54.42,0,0,0-7.63,2.4s1.87,2.47,13.9,2.22l1.8,0,4.36,2.49c-1,.5-2.24,1.17-3.68,2-3.84,2.22-11.26-2-11.26-2a50.67,50.67,0,0,0,13.31,6.44c7.11,2.14,9.52-4.59,9.71-5.16a35,35,0,0,0,4.05-2.33,4.81,4.81,0,0,1-.2,1c-1.28,4.71-5.37,10.53-5.37,10.53s11-10.84,14-15.23a7.4,7.4,0,0,0,1.51-3.5,10.72,10.72,0,0,1-.53,3.81,38.5,38.5,0,0,1-5.43,11.48c2.92-3.76,9.88-12.67,12.76-15.75,3.68-3.95-6.17-18.81-6.17-18.81s-1.12-2.67,1.81.49,5.12,11,5.12,11-.76-9.21-3.32-13.94c-2.21-4.08,1.29-7.56,2.29-8.45l.78-.37c.58,0,1.42.42,1.19,3.45a37,37,0,0,0,1.11,10.1s1.54-4.73,2.82-9.19,7.68-8.42,7.68-8.42h9.49l1.37.26c-2.64.78-10.26,3.26-11.89,6.43-2,3.84-6.65,7.18-6.65,7.18a44.37,44.37,0,0,0,9.47-6.93c4.61-4.46,16.23-4.05,16.23-4.05l-.19-.39a23.07,23.07,0,0,1,2.28,1.16l3.95,1.86,3.58-7.18s-8.16-13.28-29.69-15.1m-18.88,49.61h0"/>
        <path class="FIFTH2cls-33" d="M425.27,372.24l-1.32,1.7a21.09,21.09,0,0,0,1.32-1.7"/>
      </g>
      <text class="FIFTH2cls-21" transform="translate(551 351.1) scale(1.03 1)">4</text>
    </g>
    <g class="FIFTH2cls-39">
      <g class="FIFTH2cls-39">
        <path class="FIFTH2cls-15" d="M684.54,280.06s-16.4-5.2-42.4,2-44.81,42-44.81,42l46-22.89,36.85-10.77,8.95-6.59Z"/>
        <path class="FIFTH2cls-40" d="M643.2,427.46l13.35-11.4s8.45-7.34,8.88-12.14-1.78-7.14-3.39-7.82a12.12,12.12,0,0,1-2.85-1.75l-16.43-21.67-15.38,3.47-1.72,7.91,5.32,7.22a24.1,24.1,0,0,0,9.29,7.57l9.05,4.19s-3.51,6.85-4.72,8.87-4.37,10.44-4.37,10.44Z"/>
        <path class="FIFTH2cls-40" d="M533.7,374.14s-26.63,17.16-36.27,19.74S475,399.74,475,399.74l-4.4,32.84-8.1-4.34s-1.68-27.68-2.37-30.83-5.05-6.5-2.23-11,13.31-1,13.31-1,19.92-12.19,29.81-22.82,24-19.61,24-19.61l14.85,15.35Z"/>
        <path class="FIFTH2cls-41" d="M478.74,320.66s-7.9-13.28-28.72-15.1A61.07,61.07,0,0,0,413.86,314l3.48,31.69s-19.56-3.21-22.28-5.94-11.39-24.26-11.39-24.26a23.12,23.12,0,0,0-5.45,13.62,160.06,160.06,0,0,0,0,16.58l37.63,22.19s12.77-4.36,16.34-15.25S428.37,333,428.37,333s13-9.41,23.88-10.9a30.91,30.91,0,0,1,19.2,3.84l3.82,1.86Z"/>
        <path class="FIFTH2cls-15" d="M541.87,427.86l-2,10.89h18.82a10.71,10.71,0,0,0-3-6.93,17.07,17.07,0,0,0-6-4Z"/>
        <path class="FIFTH2cls-15" d="M459.9,452.73l-9.12,4.86L464,472.35s4.22-4.18,3.54-7.69a28.19,28.19,0,0,0-2.08-6.31Z"/>
        <path class="FIFTH2cls-15" d="M616.68,421.85l7.29,9L618.53,438s-1.53,2.55-7.3,2.55-7-1.87-7-1.87Z"/>
        <path class="FIFTH2cls-15" d="M575.54,414s4,5.94,7.92,5.94a20.49,20.49,0,0,0,7.93-2l3-2-1-10.9Z"/>
        <path d="M463.52,425.43l-1.18.34s-.25,6.66-2.37,11.55-5,10.49-5,10.49l.76,7.12,9,4.12,2.1-.69,4.27-29.59Z"/>
        <path d="M577.52,419,592.38,414l4,2,16.83-1,2,6.93s-26.73,4.95-30.7,4-6.93-6.93-6.93-6.93"/>
        <path d="M623.13,430.34l9.51-2.37c1.36-.34,7.14-6.11,7.14-6.11l4.92,5.27L624.14,446l-10-2.55,5.27-10.7Z"/>
        <path d="M519.09,417l-2.39,9.4s8.34,3.47,11.31,4.46,7.92,5.94,7.92,5.94h5.94l5.94-7.92v-3Z"/>
        <path class="FIFTH2cls-40" d="M625.06,310s12.87-10.89,21.79-14.85,20.79-6.93,27.72-6.93h6.94s.57,2.55.57,9.49,1.41,16.25,2.4,17.24-10.9,6-17.83,12.88-13.78,19.46-13.78,19.46-5-11.54-13-19.46A153.77,153.77,0,0,1,625.06,310"/>
        <path class="FIFTH2cls-42" d="M498.3,412a34.65,34.65,0,0,1,9.9,2c5.94,2,11.79,3.25,11.79,3.25l-2.88,9.62s-4-3-12.87-4a34.47,34.47,0,0,0-15.85,2s-10.89,5.94-13.86-3,0-10.89,3-12.87a50.53,50.53,0,0,1,4.95-3s8.91-12.87,8.91-16.83a21.83,21.83,0,0,0-4-12.88c-3-4-11.88-8.91-12.87-10.89s-5.94-5.94-6.93-9.9-2-15.85,2-25.75S484.43,310,493.35,309s19.8,2,22.77,3,8.92,5.95,8.92,5.95,9.9,5.94,12.87,5.94,40.6,2,49.52,1S611.19,315,615.15,313s9.91-5,13.87-3,6.93,0,12.87,7.93a62.72,62.72,0,0,1,10.9,25.74c1,6.94-4,26.74-7.93,30.7L634,385.28a84.07,84.07,0,0,1,3,8.91,84.07,84.07,0,0,0,3,8.91s5,2,4,6.94-2,4.95-5,6.93-25.84,5.33-25.84,5.33l-1.42-7.22s2.5-.09,7.46-3.06,5.94-5,5.94-5-6.93-4-7.92-7.92a62.92,62.92,0,0,0-4-9.9s-14.85,6.93-27.72,6.93-31.7-7.92-37.64-10.89S532,375.37,532,375.37s4-12.87,0-20.79-7.92-8.92-7.92-8.92,1,29.71-5,38.63S498.3,412,498.3,412"/>
        <path class="FIFTH2cls-42" d="M686.46,284.76a10.7,10.7,0,0,0-6.89,12.65c1.9,9.82,3.42,16.87,5.28,17.86a22.36,22.36,0,0,0,7.86,3c4.27.8,11.51,1.11,14.67,1.85s9.78,1.24,13.74,3.65,4,1.86,4.89,3.53a19.22,19.22,0,0,1,1.36,4.46l10.71-.68s1.73-7.18,0-10.28S709.17,298.56,708,296.52s-6.5-11.27-7.68-11.76a37.93,37.93,0,0,0-3.83-1.18l-14-11.9s-.91,2.68-.54,4.25,4.5,8.83,4.5,8.83"/>
        <path class="FIFTH2cls-43" d="M710.23,298.46c-2.65-2-3.82-6.63-6-9.54a15.12,15.12,0,0,0-4.47-4.16,5.94,5.94,0,0,1-5.74,3.47c-4.29-.17-6.6-4.3-6.6-4.3l-2,.56,1.5,30.15a2.45,2.45,0,0,0,1.55,2.16,29.09,29.09,0,0,0,6.85,1.8c4.29.49,10.73,1.65,10.73,1.65a26.51,26.51,0,0,1,3.47-9.08c3-5.12,5.44-8.58,5.44-8.58a49.54,49.54,0,0,0-4.78-4.13m-5.3,2.73c-2,1.13-4.65.15-6-2.18s-.85-5.15,1.11-6.29,4.65-.15,6,2.19.85,5.15-1.11,6.28"/>
        <path class="FIFTH2cls-44" d="M701.56,295s-1.61,2.23.43,3.34a2.13,2.13,0,0,0,3-.55Z"/>
        <path class="FIFTH2cls-15" d="M736.53,323.35a2.37,2.37,0,1,1-2.94-1.6,2.37,2.37,0,0,1,2.94,1.6"/>
        <path class="FIFTH2cls-16" d="M718.19,316.16a5.3,5.3,0,0,0-8-1.2l-25.75-31.69a1.37,1.37,0,0,0-2,0l-1,1,2,2v24.34l-47.7-5.86-1.88-.38-.43,2.47,32.36,23.91,1.72-1.87-29.38-21.58,70.07,10.66s-.33,4.23,2.08,5.75a5.91,5.91,0,0,0,8.09-1.69,6,6,0,0,0-.23-5.84m-31.67-4.82-1-21.13L705.27,315Zm27.17,11.55a3.47,3.47,0,1,1,3.47-3.47,3.46,3.46,0,0,1-3.47,3.47"/>
        <polygon class="FIFTH2cls-43" points="575.54 366.13 575.54 396.64 583.13 396.64 583.13 364.81 575.54 366.13"/>
        <path class="FIFTH2cls-43" d="M541.86,325.06l3.12,24.7a1.7,1.7,0,0,0,.09.39,58,58,0,0,0,5.38,11.36c4,6.6,13.54,8.91,15.19,8.91h17.13a2.13,2.13,0,0,0,2.13-2.18l-1-41.91a2.12,2.12,0,0,0-2-2.08l-37.79-1.59a2.13,2.13,0,0,0-2.2,2.4"/>
        <path class="FIFTH2cls-17" d="M621.11,290.09a6.91,6.91,0,0,0-1.13,4.45c.25,2.6.37,4.83.37,4.83H617l-3.84,5.94s.38,1-1.11,1.48-7.18-6.43-7.92-8.6S601,291,601.29,288.1s10.15-2.35,10.15-2.35Z"/>
        <path class="FIFTH2cls-18" d="M562.34,353.26l10.89-22.62,11.22,5.95-11.22,13.2s3.47,5.28,5.78,5.78,4.62.16,5.44,2.14-1.81,2-1.81,2h-6.11Z"/>
        <path class="FIFTH2cls-19" d="M574.92,327.43l-1.44,4.87,9.85,5s4.76-7.13,6.9-10.1,4.29-9.74,2.48-11.06-.66-3-6.11-3.47S556.34,310,556.34,310l-7.87-14.19s-11.39,4.95-10,16.17c1.84,15.31,16,12.38,16,12.38h22Z"/>
        <path class="FIFTH2cls-45" d="M548.39,297.72a38.82,38.82,0,0,1,14.44-6.85A116.72,116.72,0,0,1,584,288.23c4.21-.25,15.27-1.16,15.6-.58a24.2,24.2,0,0,1,1.81,4.94,6.29,6.29,0,0,0,2,3.23s-.74,5-1.65,6.27-10.23,5.53-12.54,6l-17.58,3.8L556,310.84Z"/>
        <path class="FIFTH2cls-43" d="M583.77,300.3s-1.11-8.67,6.07-9.35a8.56,8.56,0,0,1,9.22,5.32s-.25,5.2.62,8.05a85.88,85.88,0,0,1,2.79,9.47,25,25,0,0,0,.92,4l20.24-11.08,3,4.58S612,321.77,609,323.75s-8.66,7.43-8.66,7.43Z"/>
        <path class="FIFTH2cls-43" d="M600.13,287.81s8,1.82,11.89,2.31,15.27,3.39,15.68,3.47,1.4-.33.66-.91-4.29-2.39-4.29-2.64.74-8.17-2-11.14A14.48,14.48,0,0,0,610,274.77c-4.21.75-7.6,3.31-8.67,7.27a31.39,31.39,0,0,0-1.16,5.77"/>
        <path class="FIFTH2cls-15" d="M613.92,289.63s-3.14,3.71-4,6.68a67.67,67.67,0,0,0-1.41,8.17l-1.81-1.73s1-3.63.41-4.87-7-10.07-7-10.07l2.07-1.07,6,9.08,3.47-6.6Z"/>
        <polygon class="FIFTH2cls-17" points="623.08 308.53 624.81 300.11 638.92 296.52 638.92 307.66 624.69 311.62 623.08 308.53"/>
      </g>
      <text class="FIFTH2cls-21" transform="translate(548.39 351.1)">3</text>
    </g>
  </g>
</svg>
