<svg xmlns="http://www.w3.org/2000/svg" xmlns:xlink="http://www.w3.org/1999/xlink" width="1020" height="499" viewBox="0 0 1020 499">
  <defs>
    <style>
      .FIFTHcls-1 {
        fill: none;
      }

      .FIFTHcls-2 {
        opacity: 0.5;
      }

      .FIFTHcls-3, .FIFTHcls-8 {
        font-size: 36px;
      }

      .FIFTHcls-16, .FIFTHcls-22, .FIFTHcls-3, .FIFTHcls-6, .FIFTHcls-7, .FIFTHcls-8 {
        fill: #fff;
      }

      .FIFTHcls-3 {
        stroke: #1d1d1b;
        stroke-width: 0.25px;
        font-family: OpenSans-ExtraBoldItalic, Open Sans;
        font-weight: 800;
        font-style: italic;
      }

      .FIFTHcls-23, .FIFTHcls-3 {
        stroke-miterlimit: 10;
      }

      .FIFTHcls-23, .FIFTHcls-4 {
        fill: #da5713;
      }

      .FIFTHcls-5 {
        fill: #f7931e;
      }

      .FIFTHcls-6 {
        font-size: 18px;
      }

      .FIFTHcls-21, .FIFTHcls-22, .FIFTHcls-6, .FIFTHcls-7, .FIFTHcls-8 {
        font-family: OpenSans-Bold, Open Sans;
        font-weight: 700;
      }

      .FIFTHcls-7 {
        font-size: 21px;
      }

      .FIFTHcls-9 {
        clip-path: url(#clip-path);
      }

      .FIFTHcls-10 {
        fill: #d6907f;
      }

      .FIFTHcls-11 {
        fill: #8c4b41;
      }

      .FIFTHcls-12 {
        fill: #a45a49;
      }

      .FIFTHcls-13 {
        fill: #f2e9e7;
      }

      .FIFTHcls-14 {
        fill: #83a6b7;
      }

      .FIFTHcls-15 {
        fill: #434043;
      }

      .FIFTHcls-17 {
        fill: #e7b173;
      }

      .FIFTHcls-18 {
        fill: #424242;
      }

      .FIFTHcls-19 {
        fill: #eee;
      }

      .FIFTHcls-20 {
        fill: #6f858e;
      }

      .FIFTHcls-21 {
        font-size: 23.77px;
      }

      .FIFTHcls-22 {
        font-size: 24px;
      }

      .FIFTHcls-23 {
        stroke: #da5713;
      }
    </style>
    <clipPath id="clip-path">
      <rect class="FIFTHcls-1" x="321" y="208" width="455.55" height="307"/>
    </clipPath>
  </defs>
  <title>prototypesave8</title>
  <g id="FIFTH">

    <text class="FIFTHcls-3" transform="translate(441.62 74.86)">POINTS</text>
    <polygon class="FIFTHcls-4" points="440 81.21 572 82.71 440 84.21 440 81.21"/>
    <polygon class="FIFTHcls-4" points="440 87.29 551.52 88.79 440 90.29 440 87.29"/>
   
    <g class="FIFTHcls-9">
      <g class="FIFTHcls-9">
        <path class="FIFTHcls-10" d="M703.88,284.67c-3.42-3.14-2.47-5.61-4.76-5.7s-7.12-1.89-7.24-1.65-4.39,1.93-8.37,3.56l-.12-.09A54.06,54.06,0,0,0,670.13,279a27,27,0,0,0-8.21-1.07c-6.44.25-8.54.85-17.58,1.23s-12.87,2.54-15.1,5.67a29.31,29.31,0,0,0-2.39,4.72,77.64,77.64,0,0,0-10,8.26c-2.31.29-4.66.66-6.14,1.61a15.65,15.65,0,0,0-5.94,8.08c-.42,1.77-1.63,5.35-2.37,7.48a111.89,111.89,0,0,0-6.17,9.76l46-22.89,36.85-10.77,6-4.43c5.9-1,11.53-1.44,14-.21a39.39,39.39,0,0,1,8.83,6.22,11.8,11.8,0,0,0-4-8"/>
        <path class="FIFTHcls-11" d="M670,407.84l-.62-17.55s-.48-11.19-4-14.51-6.69-3-8.23-2.2a12.08,12.08,0,0,1-3.14,1.13l-27.2-.62L620,388.28l5.13,6.28,9,.32a24.08,24.08,0,0,0,11.7-2.55l8.92-4.48s3.17,7,4,9.21,5.45,9.92,5.45,9.92Z"/>
        <path class="FIFTHcls-11" d="M540.57,352.09s-5.89,34.25-9.78,43.44-9.16,21.3-9.16,21.3l23.19,23.65-8.41,3.73s-22.86-15.69-25.77-17.09-8.23,0-10.08-5S508,411,508,411s2.63-23.21.32-37.55a80,80,0,0,1,.25-26.36l16.71-2Z"/>
        <path class="FIFTHcls-10" d="M478.28,326.08s6.9-1.34-10.91-12.68-47.69-10.6-49.41,7.12,11.15,23.25,11.73,39.91-21.5,23.36-21.5,23.36,15.44,3.12,23.48-2.33,17.5-12.83,19.06-22.68c1.78-11.22-4.62-27.48-2-30.46,4.46-5,16-10.86,21.29,1.49s9.55,5.66,9.55,5.66Z"/>
        <path class="FIFTHcls-10" d="M534.83,441.68l-.45,1.13s5.09,4.3,7.65,9,5.22,10.34,5.22,10.34l6.09,3.78,8.78-4.56.75-2.09-20.71-21.55Z"/>
        <path class="FIFTHcls-10" d="M659,422.88l4.07-8.92c.58-1.28-.34-9.39-.34-9.39L670,404l1.95,27.82-8.23,6.25-5.09-10.78Z"/>
        <path class="FIFTHcls-10" d="M518,417.7l-2.39,9.4s8.33,3.47,11.3,4.47,7.93,5.94,7.93,5.94h5.94l5.94-7.93v-3Z"/>
        <path class="FIFTHcls-11" d="M623.91,310.75s12.88-10.9,21.79-14.86S666.5,289,673.43,289h6.93s.58,2.56.58,9.49,1.4,16.26,2.39,17.25-10.89,5.94-17.82,12.87S651.73,348,651.73,348s-5-11.54-13-19.46a154.77,154.77,0,0,1-14.86-17.82"/>
        <path class="FIFTHcls-12" d="M685.31,285.49a10.7,10.7,0,0,0-6.89,12.65c1.91,9.82,3.43,16.88,5.29,17.87a22.31,22.31,0,0,0,7.86,3c4.27.8,11.51,1.11,14.67,1.86s9.77,1.23,13.74,3.65,4,1.85,4.89,3.53a19.74,19.74,0,0,1,1.36,4.45l10.71-.68s1.73-7.18,0-10.27S708,299.3,706.85,297.25s-6.49-11.26-7.67-11.76-3.84-1.17-3.84-1.17l-14-11.91a10.25,10.25,0,0,0-.53,4.25c.37,1.57,4.49,8.83,4.49,8.83"/>
        <path class="FIFTHcls-13" d="M706.36,298.24c0,3.35-3.24,6.07-7.24,6.07s-7.24-2.72-7.24-6.07,3.24-6.06,7.24-6.06,7.24,2.71,7.24,6.06"/>
        <path class="FIFTHcls-14" d="M709.08,299.19c-2.64-2-3.82-6.63-6-9.54a15.3,15.3,0,0,0-4.47-4.16,5.94,5.94,0,0,1-5.74,3.47c-4.29-.17-6.6-4.29-6.6-4.29l-2,.56,1.51,30.14a2.42,2.42,0,0,0,1.55,2.16,28.48,28.48,0,0,0,6.85,1.8C698.52,319.82,705,321,705,321a26.6,26.6,0,0,1,3.46-9.08c3-5.12,5.45-8.58,5.45-8.58a50.43,50.43,0,0,0-4.79-4.13m-5.29,2.73c-2,1.13-4.65.16-6-2.18s-.85-5.15,1.11-6.28,4.65-.16,6,2.18.86,5.15-1.1,6.28"/>
        <path class="FIFTHcls-15" d="M700.42,295.71s-1.61,2.22.43,3.34a2.13,2.13,0,0,0,3-.56Z"/>
        <path class="FIFTHcls-15" d="M652.2,424.38l11.59-.11L666,433s1,2.79-2.56,7.3-5.8,4.29-5.8,4.29Z"/>
        <path class="FIFTHcls-11" d="M735.38,324.08a2.37,2.37,0,1,1-2.94-1.6,2.36,2.36,0,0,1,2.94,1.6"/>
        <path class="FIFTHcls-12" d="M497.15,412.75a34.74,34.74,0,0,1,9.91,2c5.94,2,11.78,3.25,11.78,3.25L516,427.6s-4-3-12.87-4a34.44,34.44,0,0,0-15.85,2s-10.89,5.95-13.86-3,0-10.89,3-12.87a51.43,51.43,0,0,1,4.95-3s8.91-12.88,8.91-16.84a21.78,21.78,0,0,0-4-12.87c-3-4-11.88-8.92-12.87-10.9s-5.95-5.94-6.94-9.9-2-15.84,2-25.75,14.86-19.8,23.77-20.79,19.81,2,22.78,3,8.91,5.94,8.91,5.94,9.91,5.94,12.88,5.94,40.6,2,49.51,1,23.77-9.9,27.73-11.88,9.9-5,13.87-3,6.93,0,12.87,7.92a62.81,62.81,0,0,1,10.89,25.75c1,6.93-4,26.74-7.92,30.7L632.83,386a84.07,84.07,0,0,1,3,8.91,84.63,84.63,0,0,0,3,8.92s5,2,4,6.93-2,5-5,6.93S611.93,423,611.93,423l-1.42-7.22s2.51-.09,7.46-3.06,5.94-4.95,5.94-4.95-6.93-4-7.92-7.92a63.11,63.11,0,0,0-4-9.91s-14.85,6.93-27.73,6.93S552.61,389,546.67,386s-15.85-9.9-15.85-9.9,4-12.88,0-20.8-7.92-8.91-7.92-8.91,1,29.71-4.95,38.62-20.8,27.73-20.8,27.73"/>
        <path class="FIFTHcls-13" d="M610.09,367.35c-.91,2.91-5.18,4.17-9.53,2.81s-7.14-4.82-6.22-7.73,5.17-4.18,9.52-2.82,7.14,4.83,6.23,7.74"/>
        <path class="FIFTHcls-13" d="M643.63,334.78c2.14,7.23-6.52,16.18-19.35,20s-25,1-27.1-6.23,6.52-16.18,19.35-20,25-1,27.1,6.24"/>
        <path class="FIFTHcls-13" d="M547.1,341c-1.6,5.11-9.78,7.1-18.28,4.44s-14.08-8.95-12.49-14.06,9.78-7.09,18.28-4.44,14.08,9,12.49,14.06"/>
        <path class="FIFTHcls-13" d="M502.43,342c1.41,2.65-.67,6.51-4.63,8.61s-8.31,1.65-9.72-1,.67-6.51,4.63-8.61,8.31-1.65,9.72,1"/>
        <path class="FIFTHcls-13" d="M663.84,310.46c0,2.89-2.71,5.24-6,5.24s-6-2.35-6-5.24,2.7-5.24,6-5.24,6,2.34,6,5.24"/>
        <path class="FIFTHcls-13" d="M671.15,301.56c-.55,1.23-2.55,1.53-4.48.67s-3-2.55-2.5-3.78,2.55-1.53,4.48-.67,3.05,2.55,2.5,3.78"/>
        <path class="FIFTHcls-16" d="M717.05,316.89a5.32,5.32,0,0,0-8-1.19L683.33,284a1.37,1.37,0,0,0-2,0l-1,1,2,2v24.34l-47.7-5.86-1.87-.38-.44,2.47,32.37,23.91,1.72-1.87L637,308l70.07,10.65s-.32,4.23,2.09,5.75a5.89,5.89,0,0,0,8.08-1.69,6,6,0,0,0-.22-5.84m-31.67-4.81-1.06-21.14,19.81,24.76Zm27.17,11.54a3.47,3.47,0,1,1,3.46-3.47,3.47,3.47,0,0,1-3.46,3.47"/>
        <polygon class="FIFTHcls-14" points="574.4 366.87 574.4 397.37 581.99 397.37 581.99 365.54 574.4 366.87"/>
        <path class="FIFTHcls-14" d="M540.4,323.29l3.46,27.4a56.92,56.92,0,0,0,5.45,11.55c4,6.61,13.53,8.92,15.19,8.92h19.31l-1.12-46.09Z"/>
        <path class="FIFTHcls-17" d="M620,290.82a6.94,6.94,0,0,0-1.12,4.45c.25,2.6.37,4.83.37,4.83h-3.34L612,306s.37,1-1.11,1.49-7.18-6.44-7.93-8.61-3.09-7.24-2.84-10.09,10.15-2.35,10.15-2.35Z"/>
        <path class="FIFTHcls-18" d="M561.19,354l10.9-22.61,11.22,5.95-11.22,13.19s3.46,5.29,5.77,5.78,4.63.17,5.45,2.15-1.81,2-1.81,2h-6.11Z"/>
        <path class="FIFTHcls-19" d="M573.78,328.16,572.33,333l9.85,5s4.76-7.13,6.91-10.1,4.29-9.74,2.47-11.06-.66-3-6.1-3.46-30.26-2.64-30.26-2.64l-7.87-14.2s-11.39,4.95-10,16.18c1.85,15.31,16,12.38,16,12.38h22Z"/>
        <path class="FIFTHcls-20" d="M547.25,298.45a38.71,38.71,0,0,1,14.44-6.85A118.57,118.57,0,0,1,582.82,289c4.21-.25,15.26-1.16,15.59-.58a24.94,24.94,0,0,1,1.82,4.94,6.17,6.17,0,0,0,2,3.23s-.74,5-1.65,6.27-10.23,5.53-12.54,6l-17.58,3.79-15.6-1.07Z"/>
        <path class="FIFTHcls-14" d="M582.63,301s-1.11-8.67,6.07-9.35a8.56,8.56,0,0,1,9.22,5.33s-.25,5.19.62,8a88.15,88.15,0,0,1,2.78,9.47,23.69,23.69,0,0,0,.93,4l20.24-11.07,3,4.58s-14.6,10.46-17.64,12.44-8.66,7.42-8.66,7.42Z"/>
        <path class="FIFTHcls-14" d="M599,288.55s8,1.81,11.89,2.31,15.26,3.38,15.68,3.46,1.4-.33.66-.9-4.3-2.4-4.3-2.65.75-8.17-2-11.14a14.42,14.42,0,0,0-12.13-4.12c-4.21.74-7.59,3.3-8.66,7.26a30.27,30.27,0,0,0-1.16,5.78"/>
        <path class="FIFTHcls-15" d="M612.77,290.36s-3.13,3.72-4,6.69a69,69,0,0,0-1.4,8.17l-1.82-1.74s1-3.63.42-4.87-7-10.06-7-10.06l2.07-1.08,6,9.08,3.47-6.6Z"/>
        <polygon class="FIFTHcls-17" points="621.93 309.26 623.67 300.84 637.78 297.25 637.78 308.39 623.54 312.36 621.93 309.26"/>
        <path class="FIFTHcls-10" d="M575.39,419.69l14.85-4.95,4,2,16.83-1,2,6.93s-26.74,4.95-30.7,4-6.93-6.93-6.93-6.93"/>
        <path class="FIFTHcls-15" d="M576.38,417.7s4,5.94,7.92,5.94a20.48,20.48,0,0,0,7.92-2l3-2-1-10.89Z"/>
        <path class="FIFTHcls-15" d="M540.73,428.59l-2,10.9h18.81a10.71,10.71,0,0,0-3-6.93,16.94,16.94,0,0,0-5.94-4Z"/>
        <path class="FIFTHcls-15" d="M554.14,461.31l-1.77,10.18,19.78-1.37s-.71-5.9-3.89-7.51a27.92,27.92,0,0,0-6.26-2.25Z"/>
      </g>
      <text class="FIFTHcls-21" transform="translate(545.39 350.1)">2</text>
    </g>
    <path class="FIFTHcls-4" d="M425.89,120.16c-.62-.2-.41-1.13.52-.93a6.38,6.38,0,0,0,1.85.11v-4.13h-9.49V119s4,4.44,4.75,9.29c.75,5.07-.11,17.45-11,17.75-8.16.24-11.85-7.22-11.67-14a20.62,20.62,0,0,1,5-12.8l.1-4.23h-9.39v4.44s1-.1,1.85-.1c.43,0,.42.5.21.93-.92,1.84-4.46,8.24-4.54,14-.1,7.12,6,20.33,18.79,19.82s18.27-13.47,18.27-20.65S426.51,120.37,425.89,120.16Zm-24.06-3.25a1.29,1.29,0,1,1-1.29,1.29A1.3,1.3,0,0,1,401.83,116.91Zm-1.15,26.36-.05,0a.69.69,0,0,1-1.05-.15,17.8,17.8,0,0,1-2.13-5.29,28.57,28.57,0,0,1-.73-6.2c0-.42,1-.62,1-.2a45.12,45.12,0,0,0,1.34,6.5,40.43,40.43,0,0,0,1.77,4.26A.9.9,0,0,1,400.68,143.27Zm9.73,6.56-.16.46a.73.73,0,0,1-.82.45,13.2,13.2,0,0,1-3.1-1,16.07,16.07,0,0,1-3.56-2.78.69.69,0,0,1-.1-.93l.07-.09a.69.69,0,0,1,.94-.18l2.75,1.81a14.68,14.68,0,0,0,3.51,1.36A.7.7,0,0,1,410.41,149.83Zm12.38-30.34a1.29,1.29,0,1,1,1.29-1.29A1.29,1.29,0,0,1,422.79,119.49Zm-1,27.47a16.07,16.07,0,0,1-3.56,2.78,13.2,13.2,0,0,1-3.1,1,.73.73,0,0,1-.82-.45l-.16-.46a.7.7,0,0,1,.47-.9,14.68,14.68,0,0,0,3.51-1.36l2.75-1.81a.69.69,0,0,1,.94.18l.07.09A.69.69,0,0,1,421.84,147Zm3.19-3.8a.69.69,0,0,1-1,.15l-.05,0a.9.9,0,0,1-.19-1,40.43,40.43,0,0,0,1.77-4.26,45.12,45.12,0,0,0,1.34-6.5c.08-.42,1-.22,1,.2a28.57,28.57,0,0,1-.73,6.2A17.8,17.8,0,0,1,425,143.16Z"/>
    <path class="FIFTHcls-4" d="M477.89,120.16c-.62-.2-.41-1.13.52-.93a6.38,6.38,0,0,0,1.85.11v-4.13h-9.49V119s4,4.44,4.75,9.29c.75,5.07-.11,17.45-11,17.75-8.16.24-11.85-7.22-11.67-14a20.62,20.62,0,0,1,5-12.8l.1-4.23h-9.39v4.44s1-.1,1.85-.1c.43,0,.42.5.21.93-.92,1.84-4.46,8.24-4.54,14-.1,7.12,6,20.33,18.79,19.82s18.27-13.47,18.27-20.65S478.51,120.37,477.89,120.16Zm-24.06-3.25a1.29,1.29,0,1,1-1.29,1.29A1.3,1.3,0,0,1,453.83,116.91Zm-1.15,26.36-.05,0a.69.69,0,0,1-1.05-.15,17.8,17.8,0,0,1-2.13-5.29,28.57,28.57,0,0,1-.73-6.2c0-.42,1-.62,1-.2a45.12,45.12,0,0,0,1.34,6.5,40.43,40.43,0,0,0,1.77,4.26A.9.9,0,0,1,452.68,143.27Zm9.73,6.56-.16.46a.73.73,0,0,1-.82.45,13.2,13.2,0,0,1-3.1-1,16.07,16.07,0,0,1-3.56-2.78.69.69,0,0,1-.1-.93l.07-.09a.69.69,0,0,1,.94-.18l2.75,1.81a14.68,14.68,0,0,0,3.51,1.36A.7.7,0,0,1,462.41,149.83Zm12.38-30.34a1.29,1.29,0,1,1,1.29-1.29A1.29,1.29,0,0,1,474.79,119.49Zm-1,27.47a16.07,16.07,0,0,1-3.56,2.78,13.2,13.2,0,0,1-3.1,1,.73.73,0,0,1-.82-.45l-.16-.46a.7.7,0,0,1,.47-.9,14.68,14.68,0,0,0,3.51-1.36l2.75-1.81a.69.69,0,0,1,.94.18l.07.09A.69.69,0,0,1,473.84,147Zm3.19-3.8a.69.69,0,0,1-1,.15l-.05,0a.9.9,0,0,1-.19-1,40.43,40.43,0,0,0,1.77-4.26,45.12,45.12,0,0,0,1.34-6.5c.08-.42,1-.22,1,.2a28.57,28.57,0,0,1-.73,6.2A17.8,17.8,0,0,1,477,143.16Z"/>
    <path class="FIFTHcls-4" d="M528.89,120.16c-.62-.2-.41-1.13.52-.93a6.38,6.38,0,0,0,1.85.11v-4.13h-9.49V119s4,4.44,4.75,9.29c.75,5.07-.11,17.45-11,17.75-8.16.24-11.85-7.22-11.67-14a20.62,20.62,0,0,1,5-12.8l.1-4.23h-9.39v4.44s1-.1,1.85-.1c.43,0,.42.5.21.93-.92,1.84-4.46,8.24-4.54,14-.1,7.12,6,20.33,18.79,19.82s18.27-13.47,18.27-20.65S529.51,120.37,528.89,120.16Zm-24.06-3.25a1.29,1.29,0,1,1-1.29,1.29A1.3,1.3,0,0,1,504.83,116.91Zm-1.15,26.36-.05,0a.69.69,0,0,1-1.05-.15,17.8,17.8,0,0,1-2.13-5.29,28.57,28.57,0,0,1-.73-6.2c0-.42,1-.62,1-.2a45.12,45.12,0,0,0,1.34,6.5,40.43,40.43,0,0,0,1.77,4.26A.9.9,0,0,1,503.68,143.27Zm9.73,6.56-.16.46a.73.73,0,0,1-.82.45,13.2,13.2,0,0,1-3.1-1,16.07,16.07,0,0,1-3.56-2.78.69.69,0,0,1-.1-.93l.07-.09a.69.69,0,0,1,.94-.18l2.75,1.81a14.68,14.68,0,0,0,3.51,1.36A.7.7,0,0,1,513.41,149.83Zm12.38-30.34a1.29,1.29,0,1,1,1.29-1.29A1.29,1.29,0,0,1,525.79,119.49ZM524.84,147a16.07,16.07,0,0,1-3.56,2.78,13.2,13.2,0,0,1-3.1,1,.73.73,0,0,1-.82-.45l-.16-.46a.7.7,0,0,1,.47-.9,14.68,14.68,0,0,0,3.51-1.36l2.75-1.81a.69.69,0,0,1,.94.18l.07.09A.69.69,0,0,1,524.84,147Zm3.19-3.8a.69.69,0,0,1-1,.15l-.05,0a.9.9,0,0,1-.19-1,40.43,40.43,0,0,0,1.77-4.26,45.12,45.12,0,0,0,1.34-6.5c.08-.42,1-.22,1,.2a28.57,28.57,0,0,1-.73,6.2A17.8,17.8,0,0,1,528,143.16Z"/>
    <path class="FIFTHcls-4" d="M577.89,120.16c-.62-.2-.41-1.13.52-.93a6.38,6.38,0,0,0,1.85.11v-4.13h-9.49V119s4,4.44,4.75,9.29c.75,5.07-.11,17.45-11,17.75-8.16.24-11.85-7.22-11.67-14a20.62,20.62,0,0,1,5-12.8l.1-4.23h-9.39v4.44s1-.1,1.85-.1c.43,0,.42.5.21.93-.92,1.84-4.46,8.24-4.54,14-.1,7.12,6,20.33,18.79,19.82s18.27-13.47,18.27-20.65S578.51,120.37,577.89,120.16Zm-24.06-3.25a1.29,1.29,0,1,1-1.29,1.29A1.3,1.3,0,0,1,553.83,116.91Zm-1.15,26.36,0,0a.69.69,0,0,1-1-.15,17.8,17.8,0,0,1-2.13-5.29,28.57,28.57,0,0,1-.73-6.2c0-.42,1-.62,1-.2a45.12,45.12,0,0,0,1.34,6.5,40.43,40.43,0,0,0,1.77,4.26A.9.9,0,0,1,552.68,143.27Zm9.73,6.56-.16.46a.73.73,0,0,1-.82.45,13.2,13.2,0,0,1-3.1-1,16.07,16.07,0,0,1-3.56-2.78.69.69,0,0,1-.1-.93l.07-.09a.69.69,0,0,1,.94-.18l2.75,1.81a14.68,14.68,0,0,0,3.51,1.36A.7.7,0,0,1,562.41,149.83Zm12.38-30.34a1.29,1.29,0,1,1,1.29-1.29A1.29,1.29,0,0,1,574.79,119.49ZM573.84,147a16.07,16.07,0,0,1-3.56,2.78,13.2,13.2,0,0,1-3.1,1,.73.73,0,0,1-.82-.45l-.16-.46a.7.7,0,0,1,.47-.9,14.68,14.68,0,0,0,3.51-1.36l2.75-1.81a.69.69,0,0,1,.94.18l.07.09A.69.69,0,0,1,573.84,147Zm3.19-3.8a.69.69,0,0,1-1,.15l-.05,0a.9.9,0,0,1-.19-1,40.43,40.43,0,0,0,1.77-4.26,45.12,45.12,0,0,0,1.34-6.5c.08-.42,1-.22,1,.2a28.57,28.57,0,0,1-.73,6.2A17.8,17.8,0,0,1,577,143.16Z"/>
    <path d="M628.89,120.16c-.62-.2-.41-1.13.52-.93a6.38,6.38,0,0,0,1.85.11v-4.13h-9.49V119s4,4.44,4.75,9.29c.75,5.07-.11,17.45-11,17.75-8.16.24-11.85-7.22-11.67-14a20.62,20.62,0,0,1,5-12.8l.1-4.23h-9.39v4.44s1-.1,1.85-.1c.43,0,.42.5.21.93-.92,1.84-4.46,8.24-4.54,14-.1,7.12,6,20.33,18.79,19.82s18.27-13.47,18.27-20.65S629.51,120.37,628.89,120.16Zm-24.06-3.25a1.29,1.29,0,1,1-1.29,1.29A1.3,1.3,0,0,1,604.83,116.91Zm-1.15,26.36,0,0a.69.69,0,0,1-1-.15,17.8,17.8,0,0,1-2.13-5.29,28.57,28.57,0,0,1-.73-6.2c0-.42,1-.62,1-.2a45.12,45.12,0,0,0,1.34,6.5,40.43,40.43,0,0,0,1.77,4.26A.9.9,0,0,1,603.68,143.27Zm9.73,6.56-.16.46a.73.73,0,0,1-.82.45,13.2,13.2,0,0,1-3.1-1,16.07,16.07,0,0,1-3.56-2.78.69.69,0,0,1-.1-.93l.07-.09a.69.69,0,0,1,.94-.18l2.75,1.81a14.68,14.68,0,0,0,3.51,1.36A.7.7,0,0,1,613.41,149.83Zm12.38-30.34a1.29,1.29,0,1,1,1.29-1.29A1.29,1.29,0,0,1,625.79,119.49ZM624.84,147a16.07,16.07,0,0,1-3.56,2.78,13.2,13.2,0,0,1-3.1,1,.73.73,0,0,1-.82-.45l-.16-.46a.7.7,0,0,1,.47-.9,14.68,14.68,0,0,0,3.51-1.36l2.75-1.81a.69.69,0,0,1,.94.18l.07.09A.69.69,0,0,1,624.84,147Zm3.19-3.8a.69.69,0,0,1-1,.15l-.05,0a.9.9,0,0,1-.19-1,40.43,40.43,0,0,0,1.77-4.26,45.12,45.12,0,0,0,1.34-6.5c.08-.42,1-.22,1,.2a28.57,28.57,0,0,1-.73,6.2A17.8,17.8,0,0,1,628,143.16Z"/>
    <text class="FIFTHcls-22" transform="translate(452 193.91)"><tspan xml:space="preserve"> 40 Points</tspan></text>
    <g id="plant">
      <path class="FIFTHcls-4" d="M737.63,426.76c9.16-1,18.43-2.59,27.56-4.45s18.23-4.08,27.2-6.66a272.27,272.27,0,0,0,52-20.45c16.42-8.71,31.86-19.63,44-33.69a99.76,99.76,0,0,0,8.35-11.08,90.85,90.85,0,0,0,6.73-12.13,89.71,89.71,0,0,0,4.84-13l.9-3.36c.31-1.12.49-2.26.75-3.39.53-2.26.81-4.56,1.18-6.85A111.56,111.56,0,0,0,911,283.9c-.33-2.3-.69-4.61-1.08-6.9l-1.45-6.85c-.25-1.14-.47-2.29-.75-3.43l-1-3.37c-.65-2.24-1.22-4.5-1.94-6.72a134.34,134.34,0,0,0-11.4-25.51l-3.7-5.94-4.13-5.65a112.57,112.57,0,0,0-9.29-10.48,110.24,110.24,0,0,0-22.19-17,128.24,128.24,0,0,0-25.65-11.33A154.06,154.06,0,0,0,801,174.78a146.76,146.76,0,0,0-28.11-.89,147.16,147.16,0,0,1,28.15.58,155,155,0,0,1,27.61,5.65,128.61,128.61,0,0,1,25.94,11.12,110.53,110.53,0,0,1,32.11,27.42l4.25,5.68,3.83,6A137,137,0,0,1,906.62,256c.76,2.24,1.36,4.53,2,6.79l1,3.4c.3,1.15.53,2.31.79,3.46l1.55,6.92c.43,2.32.82,4.66,1.18,7A113.48,113.48,0,0,1,913.6,312c-.36,2.35-.62,4.72-1.14,7.05-.24,1.16-.42,2.34-.73,3.49l-.88,3.46A92.94,92.94,0,0,1,906,339.47,95.17,95.17,0,0,1,899.22,352a103.54,103.54,0,0,1-8.48,11.5,115.65,115.65,0,0,1-9.83,10.34c-1.7,1.66-3.53,3.19-5.31,4.76s-3.65,3-5.56,4.46c-3.75,2.91-7.66,5.61-11.66,8.17s-8.09,5-12.24,7.23a276.66,276.66,0,0,1-52.52,21.35c-9.06,2.72-18.23,5-27.47,7s-18.51,3.68-28,4.84Z"/>
      <path class="FIFTHcls-23" d="M775.31,422s-2.67-8.19-2.28-11.55,4.28-9.83,4.28-9.83,5,4.83,4,10.75S775.31,422,775.31,422Z"/>
      <path class="FIFTHcls-23" d="M795.56,416.89s10.2,1.65,13.54,3.39,8,7.3,8,7.3-7.93,1.44-13.68-1.79A18.79,18.79,0,0,1,795.56,416.89Z"/>
      <path class="FIFTHcls-23" d="M825.34,387.64s.49,8.61-.74,11.88-6.62,9-6.62,9-3.54-5.64-1.14-11.37S825.34,387.64,825.34,387.64Z"/>
      <path class="FIFTHcls-23" d="M853.72,373.57s1.82,8.4,1.09,11.74-5.22,9.57-5.22,9.57-4.43-5.18-2.91-11.06S853.72,373.57,853.72,373.57Z"/>
      <path class="FIFTHcls-23" d="M876.82,353.07s3.84,7.81,3.93,11.16-2.9,10.08-2.9,10.08-5.66-4.28-5.56-10.2S876.82,353.07,876.82,353.07Z"/>
      <path class="FIFTHcls-23" d="M892.67,330.24s5.45,7.07,6.22,10.31-.81,10.2-.81,10.2-6.54-3.38-7.66-9.15S892.67,330.24,892.67,330.24Z"/>
      <path class="FIFTHcls-23" d="M896.54,302.37s8.49,4.62,10.74,7.28,4,9.39,4,9.39-7.81-1-11.57-5.79A16.73,16.73,0,0,1,896.54,302.37Z"/>
      <path class="FIFTHcls-23" d="M893.35,274.2s9.43,3.34,12.21,5.62,5.89,8.6,5.89,8.6-8,.11-12.74-4.06A17.31,17.31,0,0,1,893.35,274.2Z"/>
      <path class="FIFTHcls-23" d="M881.82,243.68s10.36,1.11,13.84,2.66,8.57,6.85,8.57,6.85-7.84,1.84-13.85-1.08A19.43,19.43,0,0,1,881.82,243.68Z"/>
      <path class="FIFTHcls-23" d="M861.19,215.46s10.55-1.27,14.49-.58,10.71,4.52,10.71,4.52-7.1,3.48-14,2.09A23.05,23.05,0,0,1,861.19,215.46Z"/>
      <path class="FIFTHcls-23" d="M829.71,193.69s10.22-2.89,14.3-2.85,11.74,2.68,11.74,2.68-6.26,4.49-13.44,4.23A25.86,25.86,0,0,1,829.71,193.69Z"/>
      <path class="FIFTHcls-23" d="M796.7,182.34s9.76-3.94,13.86-4.34,12.18,1.36,12.18,1.36S817.2,184.44,810,185A27.64,27.64,0,0,1,796.7,182.34Z"/>
      <path class="FIFTHcls-23" d="M833,404s10.55-1.38,14.5-.74,10.79,4.39,10.79,4.39-7,3.57-14,2.24A23.25,23.25,0,0,1,833,404Z"/>
      <path class="FIFTHcls-23" d="M863.78,386s10.44-2.08,14.47-1.71,11.27,3.62,11.27,3.62-6.72,4-13.78,3.17A24.48,24.48,0,0,1,863.78,386Z"/>
      <path class="FIFTHcls-23" d="M888.87,363.93s10.29-2.65,14.37-2.51,11.6,3,11.6,3-6.4,4.35-13.56,3.91A25.4,25.4,0,0,1,888.87,363.93Z"/>
      <path class="FIFTHcls-23" d="M905.75,337.59s9.56-4.31,13.64-4.88,12.29.87,12.29.87-5.25,5.28-12.48,6.08A28.27,28.27,0,0,1,905.75,337.59Z"/>
      <path class="FIFTHcls-23" d="M913.89,307.87s5.42-7.77,8.6-10.08,11.34-4.94,11.34-4.94a17,17,0,0,1-6.77,10.5C921.29,307.28,913.89,307.87,913.89,307.87Z"/>
      <path class="FIFTHcls-23" d="M911.42,272.15s2.79-8.52,5.16-11.4,9.55-7.14,9.55-7.14A14.65,14.65,0,0,1,922.9,265C918.51,270,911.42,272.15,911.42,272.15Z"/>
      <path class="FIFTHcls-23" d="M898.27,236.57s-.74-8.57.4-11.86,6.37-9.15,6.37-9.15,3.72,5.56,1.47,11.33S898.27,236.57,898.27,236.57Z"/>
      <path class="FIFTHcls-23" d="M877.31,207.16s-4.54-7.52-4.92-10.83,2-10.17,2-10.17,6.05,3.91,6.48,9.79S877.31,207.16,877.31,207.16Z"/>
      <path class="FIFTHcls-23" d="M840.4,183.68s-5.91-6.8-6.89-10,.17-10.19.17-10.19,6.77,3.08,8.26,8.78S840.4,183.68,840.4,183.68Z"/>
    </g>
    <g id="plant-2" data-name="plant">
      <path class="FIFTHcls-4" d="M296.57,432.74c-9.5-1.16-18.75-2.85-28-4.84s-18.4-4.33-27.46-7a276.66,276.66,0,0,1-52.52-21.35c-4.16-2.27-8.26-4.65-12.25-7.23s-7.9-5.26-11.65-8.17c-1.91-1.42-3.72-3-5.57-4.46s-3.6-3.1-5.31-4.76A118.57,118.57,0,0,1,144,364.54a104.74,104.74,0,0,1-8.47-11.5,95.17,95.17,0,0,1-6.79-12.57A92.94,92.94,0,0,1,123.86,327l-.88-3.46c-.31-1.15-.49-2.33-.74-3.49-.52-2.33-.78-4.7-1.13-7.05a113.48,113.48,0,0,1,.42-28.41c.36-2.34.75-4.68,1.17-7l1.55-6.92c.27-1.15.5-2.31.8-3.46l1-3.4c.69-2.26,1.29-4.55,2-6.79a136.4,136.4,0,0,1,11.83-25.72l3.83-6,4.24-5.68a110.85,110.85,0,0,1,32.12-27.42A128.77,128.77,0,0,1,206,181.12a155.06,155.06,0,0,1,27.62-5.65,147.14,147.14,0,0,1,28.15-.58,146.73,146.73,0,0,0-28.11.89,154.06,154.06,0,0,0-27.47,5.94,128,128,0,0,0-25.65,11.33,110.58,110.58,0,0,0-22.2,17,113.93,113.93,0,0,0-9.28,10.48L145,226.18l-3.71,5.94a134.94,134.94,0,0,0-11.39,25.51c-.73,2.22-1.29,4.48-2,6.72l-.94,3.37c-.28,1.14-.5,2.29-.75,3.43L124.78,278c-.4,2.29-.75,4.6-1.08,6.9a111.09,111.09,0,0,0-.11,27.81c.37,2.29.65,4.59,1.18,6.85.25,1.13.44,2.27.75,3.39l.9,3.36a89.71,89.71,0,0,0,4.84,13A91.92,91.92,0,0,0,138,351.43a101.09,101.09,0,0,0,8.36,11.08c12.14,14.06,27.59,25,44,33.69a272.62,272.62,0,0,0,52,20.45q13.45,3.87,27.2,6.66c9.13,1.86,18.4,3.44,27.56,4.45Z"/>
      <path class="FIFTHcls-23" d="M259.4,423s2.67-8.19,2.27-11.55-4.27-9.83-4.27-9.83-5,4.83-4,10.75S259.4,423,259.4,423Z"/>
      <path class="FIFTHcls-23" d="M239.15,417.89s-10.21,1.65-13.54,3.39-8,7.3-8,7.3,7.93,1.44,13.68-1.79A18.86,18.86,0,0,0,239.15,417.89Z"/>
      <path class="FIFTHcls-23" d="M209.36,388.64s-.48,8.61.75,11.88,6.61,9,6.61,9,3.55-5.64,1.15-11.37S209.36,388.64,209.36,388.64Z"/>
      <path class="FIFTHcls-23" d="M181,374.57s-1.82,8.4-1.1,11.74,5.23,9.57,5.23,9.57,4.43-5.18,2.91-11.06S181,374.57,181,374.57Z"/>
      <path class="FIFTHcls-23" d="M157.89,354.07s-3.84,7.81-3.93,11.16,2.89,10.08,2.89,10.08,5.66-4.28,5.57-10.2S157.89,354.07,157.89,354.07Z"/>
      <path class="FIFTHcls-23" d="M142,331.24s-5.45,7.07-6.22,10.31.81,10.2.81,10.2,6.53-3.38,7.66-9.15S142,331.24,142,331.24Z"/>
      <path class="FIFTHcls-23" d="M138.16,303.37s-8.49,4.62-10.73,7.28-4,9.39-4,9.39,7.81-1,11.58-5.79A16.69,16.69,0,0,0,138.16,303.37Z"/>
      <path class="FIFTHcls-23" d="M141.35,275.2s-9.42,3.34-12.2,5.62-5.89,8.6-5.89,8.6,8,.11,12.73-4.06A17.24,17.24,0,0,0,141.35,275.2Z"/>
      <path class="FIFTHcls-23" d="M152.88,244.68s-10.35,1.11-13.83,2.66-8.57,6.85-8.57,6.85,7.84,1.84,13.85-1.08A19.44,19.44,0,0,0,152.88,244.68Z"/>
      <path class="FIFTHcls-23" d="M173.52,216.46S163,215.19,159,215.88s-10.71,4.52-10.71,4.52,7.1,3.48,14,2.09A23.05,23.05,0,0,0,173.52,216.46Z"/>
      <path class="FIFTHcls-23" d="M205,194.69s-10.21-2.89-14.3-2.85S179,194.52,179,194.52s6.26,4.49,13.44,4.23A25.8,25.8,0,0,0,205,194.69Z"/>
      <path class="FIFTHcls-23" d="M238,183.34s-9.77-3.94-13.86-4.34S212,180.36,212,180.36s5.54,5.08,12.78,5.6A27.64,27.64,0,0,0,238,183.34Z"/>
      <path class="FIFTHcls-23" d="M201.69,405s-10.54-1.38-14.49-.74-10.8,4.39-10.8,4.39,7,3.57,14,2.24A23.19,23.19,0,0,0,201.69,405Z"/>
      <path class="FIFTHcls-23" d="M170.92,387s-10.43-2.08-14.46-1.71-11.27,3.62-11.27,3.62,6.71,4,13.78,3.17A24.48,24.48,0,0,0,170.92,387Z"/>
      <path class="FIFTHcls-23" d="M145.84,364.93s-10.3-2.65-14.37-2.51-11.6,3-11.6,3,6.4,4.35,13.55,3.91A25.41,25.41,0,0,0,145.84,364.93Z"/>
      <path class="FIFTHcls-23" d="M129,338.59s-9.56-4.31-13.64-4.88-12.29.87-12.29.87,5.25,5.28,12.47,6.08A28.3,28.3,0,0,0,129,338.59Z"/>
      <path class="FIFTHcls-23" d="M120.82,308.87s-5.42-7.77-8.6-10.08-11.34-4.94-11.34-4.94a17,17,0,0,0,6.77,10.5C113.42,308.28,120.82,308.87,120.82,308.87Z"/>
      <path class="FIFTHcls-23" d="M123.29,273.15s-2.79-8.52-5.17-11.4-9.54-7.14-9.54-7.14A14.65,14.65,0,0,0,111.81,266C116.2,271,123.29,273.15,123.29,273.15Z"/>
      <path class="FIFTHcls-23" d="M136.44,237.57s.73-8.57-.41-11.86-6.36-9.15-6.36-9.15-3.72,5.56-1.47,11.33S136.44,237.57,136.44,237.57Z"/>
      <path class="FIFTHcls-23" d="M157.4,208.16s4.54-7.52,4.91-10.83-2-10.17-2-10.17-6,3.91-6.47,9.79S157.4,208.16,157.4,208.16Z"/>
      <path class="FIFTHcls-23" d="M194.31,184.68s5.91-6.8,6.88-10S201,164.5,201,164.5s-6.76,3.08-8.25,8.78S194.31,184.68,194.31,184.68Z"/>
    </g>
  </g>
</svg>
