<svg id="SECOND" xmlns="http://www.w3.org/2000/svg" xmlns:xlink="http://www.w3.org/1999/xlink" width="1020" height="500" viewBox="0 0 1020 500">
  <defs>
    <style>
      .cls-2-1 {
        opacity: 0.5;
      }

      .cls-2, .cls-5 {
        font-size: 36px;
      }

      .cls-2, .cls-5, .cls-6 {
        fill: #fff;
      }

      .cls-2 {
        stroke: #1d1d1b;
        stroke-width: 0.25px;
        font-family: OpenSans-ExtraBoldItalic, Open Sans;
        font-weight: 800;
        font-style: italic;
      }

      .cls-2-10, .cls-2, .cls-9 {
        stroke-miterlimit: 10;
      }

      .cls-3 {
        fill: #d9d9d9;
      }

      .cls-2-10, .cls-4 {
        fill: #da5713;
      }

      .cls-5, .cls-6 {
        font-family: OpenSans-Bold, Open Sans;
        font-weight: 700;
      }

      .cls-6 {
        font-size: 18px;
      }

      .cls-7 {
        font-size: 11px;
      }

      .cls-7, .cls-8 {
        font-family: OpenSans-Regular, Open Sans;
      }

      .cls-8 {
        font-size: 12px;
      }

      .cls-9 {
        fill: none;
        stroke-width: 3px;
      }

      .cls-2-10, .cls-9 {
        stroke: #da5713;
      }
    </style>
  </defs>
  <title>prototypesave3</title>
  <g id="back">
    <rect class="cls-2-1" width="1020" height="500"/>
  </g>
  <text class="cls-2-2" transform="translate(321.22 75.86)">CHOOSE YOUR HORSE</text>
  <g id="horse1">
    <path class="cls-2-3" d="M47.49,233.46H244.33a0,0,0,0,1,0,0v68.16a12.7,12.7,0,0,1-12.7,12.7H58.94a11.45,11.45,0,0,1-11.45-11.45V233.46A0,0,0,0,1,47.49,233.46Z" transform="translate(291.82 547.78) rotate(180)"/>
    <image width="593" height="460" transform="translate(47 161) scale(0.33)" xlink:href="images/white-horse_593x460.png"/>
    <path class="cls-2-4" d="M47.49,313.32H244.33a0,0,0,0,1,0,0v55a12.7,12.7,0,0,1-12.7,12.7H58.94a11.45,11.45,0,0,1-11.45-11.45V313.32A0,0,0,0,1,47.49,313.32Z"/>
    <text class="cls-2-5" transform="translate(58.33 349.36)">1</text>
    <text class="cls-2-6" transform="translate(90.33 337.35)">PEGASUS</text>
    <text class="cls-2-7" transform="translate(91.33 352.03)">The white light of <tspan x="0" y="13.2">Olympus. </tspan></text>
  </g>
  <g id="horse2">
    <path class="cls-2-3" d="M290.49,233.46H487.33a0,0,0,0,1,0,0v68.16a12.7,12.7,0,0,1-12.7,12.7H301.94a11.45,11.45,0,0,1-11.45-11.45V233.46A0,0,0,0,1,290.49,233.46Z" transform="translate(777.82 547.78) rotate(180)"/>
    <path class="cls-2-4" d="M290.49,313.32H487.33a0,0,0,0,1,0,0v55a12.7,12.7,0,0,1-12.7,12.7H301.94a11.45,11.45,0,0,1-11.45-11.45V313.32A0,0,0,0,1,290.49,313.32Z"/>
    <text class="cls-2-5" transform="translate(300.33 350.03)">2</text>
    <text class="cls-2-6" transform="translate(335.33 336.35)">SCOOBY</text>
    <text class="cls-2-8" transform="translate(335.33 351.79)">The fearful horse of the <tspan x="0" y="14.4">West.</tspan></text>
    <image width="593" height="460" transform="translate(290 161) scale(0.33)" xlink:href="images/brown-white-horse_593x460.png"/>
  </g>
  <g id="horse3">
    <path class="cls-2-3" d="M776.49,233.46H973.33a0,0,0,0,1,0,0v68.16a12.7,12.7,0,0,1-12.7,12.7H787.94a11.45,11.45,0,0,1-11.45-11.45V233.46A0,0,0,0,1,776.49,233.46Z" transform="translate(1749.82 547.78) rotate(180)"/>
    <path class="cls-2-4" d="M776.49,313.32H973.33a0,0,0,0,1,0,0v55a12.7,12.7,0,0,1-12.7,12.7H787.94a11.45,11.45,0,0,1-11.45-11.45V313.32A0,0,0,0,1,776.49,313.32Z"/>
    <text class="cls-2-5" transform="translate(785.33 347.03)">4</text>
    <text class="cls-2-6" transform="translate(823.33 335.35)">SPIRIT</text>
    <text class="cls-2-8" transform="translate(823.33 351.45)">The free spirit of the <tspan x="0" y="14.4" xml:space="preserve">wind  </tspan></text>
    <image width="593" height="460" transform="matrix(-0.33, 0, 0, 0.33, 973, 161.09)" xlink:href="images/brown-horse_593x460.png"/>
  </g>
  <g id="horse4">
    <path class="cls-2-3" d="M533.49,233.46H730.33a0,0,0,0,1,0,0v68.16a12.7,12.7,0,0,1-12.7,12.7H544.94a11.45,11.45,0,0,1-11.45-11.45V233.46A0,0,0,0,1,533.49,233.46Z" transform="translate(1263.82 547.78) rotate(180)"/>
    <path class="cls-2-4" d="M533.49,313.32H730.33a0,0,0,0,1,0,0v55a12.7,12.7,0,0,1-12.7,12.7H544.94a11.45,11.45,0,0,1-11.45-11.45V313.32A0,0,0,0,1,533.49,313.32Z"/>
    <text class="cls-2-5" transform="translate(547.33 351.03)">3</text>
    <text class="cls-2-6" transform="translate(581.33 339.35)">INFERNO</text>
    <text class="cls-2-8" transform="translate(581.33 353.79)">The underground <tspan x="0" y="14.4" xml:space="preserve">shadow.  </tspan></text>
    <image width="593" height="460" transform="translate(533 161.59) scale(0.33)" xlink:href="images/black-horse_593x460.png"/>
  </g>
  <polygon class="cls-2-4" points="327 80.44 685 81.94 327 83.44 327 80.44"/>
  <polygon class="cls-2-4" points="327 86.06 629.45 87.56 327 89.06 327 86.06"/>
  <g>
    <line class="cls-2-9" x1="47.5" y1="445.5" x2="974.5" y2="445.5"/>
    <path class="cls-2-10" d="M77.07,426.48s-9.73,4.31-12.69,7.18-6.53,10.7-6.53,10.7,8.06,0,13.12-5.27S77.07,426.48,77.07,426.48Z"/>
    <path class="cls-2-10" d="M106.07,426.48s-9.73,4.31-12.69,7.18-6.53,10.7-6.53,10.7,8.06,0,13.12-5.27S106.07,426.48,106.07,426.48Z"/>
    <path class="cls-2-10" d="M90.77,464.4s-4.31-9.73-7.17-12.7-10.7-6.52-10.7-6.52,0,8.06,5.27,13.12S90.77,464.4,90.77,464.4Z"/>
    <path class="cls-2-10" d="M122.77,464.4s-4.31-9.73-7.17-12.7-10.7-6.52-10.7-6.52,0,8.06,5.27,13.12S122.77,464.4,122.77,464.4Z"/>
    <path class="cls-2-10" d="M136.07,426.48s-9.73,4.31-12.69,7.18-6.53,10.7-6.53,10.7,8.06,0,13.12-5.27S136.07,426.48,136.07,426.48Z"/>
    <path class="cls-2-10" d="M169.07,426.48s-9.73,4.31-12.69,7.18-6.53,10.7-6.53,10.7,8.06,0,13.12-5.27S169.07,426.48,169.07,426.48Z"/>
    <path class="cls-2-10" d="M153.77,464.4s-4.31-9.73-7.17-12.7-10.7-6.52-10.7-6.52,0,8.06,5.27,13.12S153.77,464.4,153.77,464.4Z"/>
    <path class="cls-2-10" d="M185.77,464.4s-4.31-9.73-7.17-12.7-10.7-6.52-10.7-6.52,0,8.06,5.27,13.12S185.77,464.4,185.77,464.4Z"/>
    <path class="cls-2-10" d="M199.07,426.48s-9.73,4.31-12.69,7.18-6.53,10.7-6.53,10.7,8.06,0,13.12-5.27S199.07,426.48,199.07,426.48Z"/>
    <path class="cls-2-10" d="M237.07,426.48s-9.73,4.31-12.69,7.18-6.53,10.7-6.53,10.7,8.06,0,13.12-5.27S237.07,426.48,237.07,426.48Z"/>
    <path class="cls-2-10" d="M221.77,464.4s-4.31-9.73-7.17-12.7-10.7-6.52-10.7-6.52,0,8.06,5.27,13.12S221.77,464.4,221.77,464.4Z"/>
    <path class="cls-2-10" d="M253.77,464.4s-4.31-9.73-7.17-12.7-10.7-6.52-10.7-6.52,0,8.06,5.27,13.12S253.77,464.4,253.77,464.4Z"/>
    <path class="cls-2-10" d="M267.07,426.48s-9.73,4.31-12.69,7.18-6.53,10.7-6.53,10.7,8.06,0,13.12-5.27S267.07,426.48,267.07,426.48Z"/>
    <path class="cls-2-10" d="M305.07,426.48s-9.73,4.31-12.69,7.18-6.53,10.7-6.53,10.7,8.06,0,13.12-5.27S305.07,426.48,305.07,426.48Z"/>
    <path class="cls-2-10" d="M289.77,464.4s-4.31-9.73-7.17-12.7-10.7-6.52-10.7-6.52,0,8.06,5.27,13.12S289.77,464.4,289.77,464.4Z"/>
    <path class="cls-2-10" d="M321.77,464.4s-4.31-9.73-7.17-12.7-10.7-6.52-10.7-6.52,0,8.06,5.27,13.12S321.77,464.4,321.77,464.4Z"/>
    <path class="cls-2-10" d="M335.07,426.48s-9.73,4.31-12.69,7.18-6.53,10.7-6.53,10.7,8.06,0,13.12-5.27S335.07,426.48,335.07,426.48Z"/>
    <path class="cls-2-10" d="M374.07,426.48s-9.73,4.31-12.69,7.18-6.53,10.7-6.53,10.7,8.06,0,13.12-5.27S374.07,426.48,374.07,426.48Z"/>
    <path class="cls-2-10" d="M358.77,464.4s-4.31-9.73-7.17-12.7-10.7-6.52-10.7-6.52,0,8.06,5.27,13.12S358.77,464.4,358.77,464.4Z"/>
    <path class="cls-2-10" d="M390.77,464.4s-4.31-9.73-7.17-12.7-10.7-6.52-10.7-6.52,0,8.06,5.27,13.12S390.77,464.4,390.77,464.4Z"/>
    <path class="cls-2-10" d="M404.07,426.48s-9.73,4.31-12.69,7.18-6.53,10.7-6.53,10.7,8.06,0,13.12-5.27S404.07,426.48,404.07,426.48Z"/>
    <path class="cls-2-10" d="M437.07,426.48s-9.73,4.31-12.69,7.18-6.53,10.7-6.53,10.7,8.06,0,13.12-5.27S437.07,426.48,437.07,426.48Z"/>
    <path class="cls-2-10" d="M421.77,464.4s-4.31-9.73-7.17-12.7-10.7-6.52-10.7-6.52,0,8.06,5.27,13.12S421.77,464.4,421.77,464.4Z"/>
    <path class="cls-2-10" d="M453.77,464.4s-4.31-9.73-7.17-12.7-10.7-6.52-10.7-6.52,0,8.06,5.27,13.12S453.77,464.4,453.77,464.4Z"/>
    <path class="cls-2-10" d="M467.07,426.48s-9.73,4.31-12.69,7.18-6.53,10.7-6.53,10.7,8.06,0,13.12-5.27S467.07,426.48,467.07,426.48Z"/>
    <path class="cls-2-10" d="M505.07,426.48s-9.73,4.31-12.69,7.18-6.53,10.7-6.53,10.7,8.06,0,13.12-5.27S505.07,426.48,505.07,426.48Z"/>
    <path class="cls-2-10" d="M489.77,464.4s-4.31-9.73-7.17-12.7-10.7-6.52-10.7-6.52,0,8.06,5.27,13.12S489.77,464.4,489.77,464.4Z"/>
    <path class="cls-2-10" d="M521.77,464.4s-4.31-9.73-7.17-12.7-10.7-6.52-10.7-6.52,0,8.06,5.27,13.12S521.77,464.4,521.77,464.4Z"/>
    <path class="cls-2-10" d="M535.07,426.48s-9.73,4.31-12.69,7.18-6.53,10.7-6.53,10.7,8.06,0,13.12-5.27S535.07,426.48,535.07,426.48Z"/>
    <path class="cls-2-10" d="M573.07,426.48s-9.73,4.31-12.69,7.18-6.53,10.7-6.53,10.7,8.06,0,13.12-5.27S573.07,426.48,573.07,426.48Z"/>
    <path class="cls-2-10" d="M557.77,464.4s-4.31-9.73-7.17-12.7-10.7-6.52-10.7-6.52,0,8.06,5.27,13.12S557.77,464.4,557.77,464.4Z"/>
    <path class="cls-2-10" d="M589.77,464.4s-4.31-9.73-7.17-12.7-10.7-6.52-10.7-6.52,0,8.06,5.27,13.12S589.77,464.4,589.77,464.4Z"/>
    <path class="cls-2-10" d="M603.07,426.48s-9.73,4.31-12.69,7.18-6.53,10.7-6.53,10.7,8.06,0,13.12-5.27S603.07,426.48,603.07,426.48Z"/>
    <path class="cls-2-10" d="M641.07,426.48s-9.73,4.31-12.69,7.18-6.53,10.7-6.53,10.7,8.06,0,13.12-5.27S641.07,426.48,641.07,426.48Z"/>
    <path class="cls-2-10" d="M625.77,464.4s-4.31-9.73-7.17-12.7-10.7-6.52-10.7-6.52,0,8.06,5.27,13.12S625.77,464.4,625.77,464.4Z"/>
    <path class="cls-2-10" d="M657.77,464.4s-4.31-9.73-7.17-12.7-10.7-6.52-10.7-6.52,0,8.06,5.27,13.12S657.77,464.4,657.77,464.4Z"/>
    <path class="cls-2-10" d="M671.07,426.48s-9.73,4.31-12.69,7.18-6.53,10.7-6.53,10.7,8.06,0,13.12-5.27S671.07,426.48,671.07,426.48Z"/>
    <path class="cls-2-10" d="M704.07,426.48s-9.73,4.31-12.69,7.18-6.53,10.7-6.53,10.7,8.06,0,13.12-5.27S704.07,426.48,704.07,426.48Z"/>
    <path class="cls-2-10" d="M688.77,464.4s-4.31-9.73-7.17-12.7-10.7-6.52-10.7-6.52,0,8.06,5.27,13.12S688.77,464.4,688.77,464.4Z"/>
    <path class="cls-2-10" d="M720.77,464.4s-4.31-9.73-7.17-12.7-10.7-6.52-10.7-6.52,0,8.06,5.27,13.12S720.77,464.4,720.77,464.4Z"/>
    <path class="cls-2-10" d="M734.07,426.48s-9.73,4.31-12.69,7.18-6.53,10.7-6.53,10.7,8.06,0,13.12-5.27S734.07,426.48,734.07,426.48Z"/>
    <path class="cls-2-10" d="M772.07,426.48s-9.73,4.31-12.69,7.18-6.53,10.7-6.53,10.7,8.06,0,13.12-5.27S772.07,426.48,772.07,426.48Z"/>
    <path class="cls-2-10" d="M756.77,464.4s-4.31-9.73-7.17-12.7-10.7-6.52-10.7-6.52,0,8.06,5.27,13.12S756.77,464.4,756.77,464.4Z"/>
    <path class="cls-2-10" d="M788.77,464.4s-4.31-9.73-7.17-12.7-10.7-6.52-10.7-6.52,0,8.06,5.27,13.12S788.77,464.4,788.77,464.4Z"/>
    <path class="cls-2-10" d="M802.07,426.48s-9.73,4.31-12.69,7.18-6.53,10.7-6.53,10.7,8.06,0,13.12-5.27S802.07,426.48,802.07,426.48Z"/>
    <path class="cls-2-10" d="M840.07,426.48s-9.73,4.31-12.69,7.18-6.53,10.7-6.53,10.7,8.06,0,13.12-5.27S840.07,426.48,840.07,426.48Z"/>
    <path class="cls-2-10" d="M824.77,464.4s-4.31-9.73-7.17-12.7-10.7-6.52-10.7-6.52,0,8.06,5.27,13.12S824.77,464.4,824.77,464.4Z"/>
    <path class="cls-2-10" d="M856.77,464.4s-4.31-9.73-7.17-12.7-10.7-6.52-10.7-6.52,0,8.06,5.27,13.12S856.77,464.4,856.77,464.4Z"/>
    <path class="cls-2-10" d="M870.07,426.48s-9.73,4.31-12.69,7.18-6.53,10.7-6.53,10.7,8.06,0,13.12-5.27S870.07,426.48,870.07,426.48Z"/>
    <path class="cls-2-10" d="M905.07,426.48s-9.73,4.31-12.69,7.18-6.53,10.7-6.53,10.7,8.06,0,13.12-5.27S905.07,426.48,905.07,426.48Z"/>
    <path class="cls-2-10" d="M889.77,464.4s-4.31-9.73-7.17-12.7-10.7-6.52-10.7-6.52,0,8.06,5.27,13.12S889.77,464.4,889.77,464.4Z"/>
    <path class="cls-2-10" d="M921.77,464.4s-4.31-9.73-7.17-12.7-10.7-6.52-10.7-6.52,0,8.06,5.27,13.12S921.77,464.4,921.77,464.4Z"/>
    <path class="cls-2-10" d="M965.07,426.48s-9.73,4.31-12.69,7.18-6.53,10.7-6.53,10.7,8.06,0,13.12-5.27S965.07,426.48,965.07,426.48Z"/>
    <path class="cls-2-10" d="M949.77,464.4s-4.31-9.73-7.17-12.7-10.7-6.52-10.7-6.52,0,8.06,5.27,13.12S949.77,464.4,949.77,464.4Z"/>
    <path class="cls-2-10" d="M981.77,464.4s-4.31-9.73-7.17-12.7-10.7-6.52-10.7-6.52,0,8.06,5.27,13.12S981.77,464.4,981.77,464.4Z"/>
    <path class="cls-2-10" d="M935.07,426.48s-9.73,4.31-12.69,7.18-6.53,10.7-6.53,10.7,8.06,0,13.12-5.27S935.07,426.48,935.07,426.48Z"/>
  </g>
</svg>
