<svg xmlns="http://www.w3.org/2000/svg" width="1020" height="500" viewBox="0 0 1020 500">
  <defs>
    <style>
      .cls-1 {
        opacity: 0.5;
      }

      .cls-3-2, .cls-3-5, .cls-3-7 {
        fill: #da5713;
      }

      .cls-3-2, .cls-3 {
        opacity: 0.31;
      }

      .cls-3 {
        fill: #f7931e;
      }

      .cls-3-4 {
        font-size: 36px;
        stroke: #1d1d1b;
        stroke-width: 0.25px;
        font-family: OpenSans-ExtraBoldItalic, Open Sans;
        font-weight: 800;
        font-style: italic;
      }

      .cls-14, .cls-3-4 {
        fill: #fff;
      }

      .cls-3-4, .cls-3-6 {
        stroke-miterlimit: 10;
      }

      .cls-3-6 {
        fill: none;
        stroke: #da5713;
        stroke-width: 5px;
      }

      .cls-3-7 {
        opacity: 0.63;
        font-size: 56px;
        font-family: MyriadPro-Regular, Myriad Pro;
      }

      .cls-3-8 {
        fill: #d6853c;
      }

      .cls-3-9 {
        fill: #92542f;
      }

      .cls-3-10 {
        fill: #434043;
      }

      .cls-11 {
        fill: #aa6433;
      }

      .cls-12 {
        fill: #bf6e37;
      }

      .cls-13 {
        fill: #71af77;
      }

      .cls-15 {
        fill: #e7b173;
      }

      .cls-16 {
        fill: #424242;
      }

      .cls-17 {
        fill: #eee;
      }

      .cls-18 {
        fill: #5b895e;
      }

      .cls-19 {
        font-size: 10.7px;
      }

      .cls-19, .cls-3-26, .cls-33, .cls-3-40 {
        font-family: OpenSans-Bold, Open Sans;
        font-weight: 700;
      }

      .cls-3-20 {
        fill: #111;
      }

      .cls-3-21 {
        fill: #414143;
      }

      .cls-3-22 {
        fill: #1a1a1a;
      }

      .cls-3-23 {
        fill: #ce6a3e;
      }

      .cls-3-24 {
        fill: gray;
      }

      .cls-3-25 {
        fill: #a85436;
      }

      .cls-3-26 {
        font-size: 11.28px;
      }

      .cls-3-27 {
        fill: #d6907f;
      }

      .cls-3-28 {
        fill: #8c4b41;
      }

      .cls-3-29 {
        fill: #a45a49;
      }

      .cls-30 {
        fill: #f2e9e7;
      }

      .cls-31 {
        fill: #83a6b7;
      }

      .cls-32 {
        fill: #6f858e;
      }

      .cls-33 {
        font-size: 11.9px;
      }

      .cls-34 {
        fill: #999;
      }

      .cls-35 {
        fill: #ccc;
      }

      .cls-36 {
        fill: #e6e6e6;
      }

      .cls-37 {
        fill: #edbb2a;
      }

      .cls-38 {
        fill: #4d4d4d;
      }

      .cls-39 {
        fill: #c99b28;
      }

      .cls-3-40 {
        font-size: 10.87px;
      }
    </style>
  </defs>
  <title>prototypesave4</title>
  <g id="THIRD">
   
    <rect class="cls-3-2" x="4.5" y="350.5" width="943.97" height="85"/>
    <rect class="cls-3-3" x="5.01" y="266" width="943.97" height="85"/>
    <rect class="cls-3-2" x="6.03" y="181" width="943.97" height="85"/>
    <rect class="cls-3-3" x="6.03" y="95" width="943.97" height="85"/>
    <text class="cls-3-4" transform="translate(413.72 260.86)">LET’S RACE</text>
    <polygon class="cls-3-5" points="418 265.44 622 266.94 418 268.44 418 265.44"/>
    <polygon class="cls-3-5" points="420.29 271.06 579.56 272.56 420.29 274.06 420.29 271.06"/>
    <line class="cls-3-6" x1="195.98" y1="83" x2="195.98" y2="448"/>
    <line class="cls-3-6" x1="949.52" y1="83" x2="949.52" y2="448"/>
    <text class="cls-3-7" transform="matrix(0, 1.64, -1, 0, 211, 141.38)">S<tspan x="27.62" y="0">T</tspan><tspan x="51.26" y="0">A</tspan><tspan x="85.53" y="0">R</tspan><tspan x="116.17" y="0">T</tspan></text>
    <text class="cls-3-7" transform="matrix(0, 1.64, -1, 0, 960, 132.35)">F<tspan x="27.27" y="0">I</tspan><tspan x="40.65" y="0">N</tspan><tspan x="77.5" y="0">I</tspan><tspan x="90.89" y="0">S</tspan><tspan x="118.5" y="0">H</tspan></text>
    <g id="_brown-horse_" data-name="&lt;brown-horse&gt;">
      <g>
        <path class="cls-3-8" d="M143.46,339.33a16.71,16.71,0,0,0-2.27-.47,12.1,12.1,0,0,0-3.89-2.37c-1.84-.5-6.64,0-6.64,0s3.8-.11,4.69.39a13.51,13.51,0,0,1,2,1.65h0a6.15,6.15,0,0,0-3.42-1.65c-2.06-.11-5.4.56-5.91,0s-2.5-.34-2.5-.34a7.9,7.9,0,0,1,1.67.84c1,.61,4.78.41,6.21.78a12.25,12.25,0,0,1,1.23.39c-.64,0-1.31.07-2,.14l-2.13-.18a11.3,11.3,0,0,1-4.57-.9,4.23,4.23,0,0,0-3-.4s.89.45,1.5.73,2.46.29,4.35,1l.49.18-1.58.3-.25,0a26.93,26.93,0,0,0-6.24-.5c-2.45.05-3.07,1-3.07,1s2.18-.84,3-.28a19.44,19.44,0,0,0,2,1l-.35.14a8.58,8.58,0,0,0-2.72-.19c-1.4.26-2.62.36-3.1,0s-1.58,0-1.58,0a2.83,2.83,0,0,0,2,.81,27.25,27.25,0,0,1,3.37.28c-.4.21-.81.43-1.2.66a9.32,9.32,0,0,1-2,0c-.86-.15-2.49-.85-3.31-.46s-1.82.79-1.82.79l2-.18s1.63.26,2.78.52c.52.12.61.28.55.42l-.43.3a7,7,0,0,0-3.28-.42,20.31,20.31,0,0,0-3.5,1.18,7.57,7.57,0,0,1-2.15,0s.37.74,1.79.54,3-1.18,4.08-.64a12.41,12.41,0,0,1,1.27.73l-.41.35c-.47,0-1.05-.05-1.67,0a10.3,10.3,0,0,0-3.35.74,14.57,14.57,0,0,1-2,.46s2.14-.09,3.31-.29a5.12,5.12,0,0,1,2.4.33l-.13.12c-.44.07-1.24.19-1.92.35-1,.22-1.94,1.17-3.16,1s-1.19.39-1.19.39,1.23-.06,2.71,0a5.08,5.08,0,0,0,2.18-.39c-.42.44-.82.87-1.21,1.31a8.46,8.46,0,0,0-2.5.67c-1.11.59-2.7,1.23-2.7,1.23s1.3.39,1.89,0a5.26,5.26,0,0,1,2-.39l-.49.6-.78.42a3.23,3.23,0,0,1-1.83.82c-1.3.23-2.19.46-2.19.46a4.23,4.23,0,0,0,1.93.4c.48-.06,1-.16,1.45-.25a53.71,53.71,0,0,0-3.71,5.7l20.73-10.31,16.6-4.85,4-3Z"/>
        <path class="cls-3-9" d="M144.47,403.66l-2.27-9a41.56,41.56,0,0,0-1.95-6.52c-.94-1.95-2.34-2.34-3.12-2.23a5.32,5.32,0,0,1-1.5,0l-11.38-4.55-5.12,4.9,1.17,3.46,3.72,1.55a10.86,10.86,0,0,0,5.34.77l4.47-.48s2.4,4.55,3,5.41c1.45,2,4.25,7.2,4.25,7.2Z"/>
        <path class="cls-3-9" d="M79.21,381.31a38,38,0,0,1-3.38,9c-2.23,3.91-7,8.48-7,8.48L55,413l-2.78-3.26s5.22-5.63,4-6.41,3.83-3.6,3.27-5.94,3.49-4.71,3.49-4.71,5.21-7.31,4.95-13.84a36.11,36.11,0,0,1,1.52-11.78H77Z"/>
        <path class="cls-3-10" d="M79.21,405.89l-.89,4.91h8.47a4.83,4.83,0,0,0-1.33-3.12,7.71,7.71,0,0,0-2.68-1.79Z"/>
        <path class="cls-3-10" d="M46.48,420.09l-4.64.36,2.8,8.48s2.49-1,2.84-2.53a12.84,12.84,0,0,0,.29-3Z"/>
        <path class="cls-3-10" d="M143.82,419.69l.3-5.21,4-.73s1.28-.38,3.2,1.37,1.76,2.73,1.76,2.73Z"/>
        <path class="cls-3-10" d="M97.69,413.79s3.22,0,4.22-1.45a9.24,9.24,0,0,0,1.26-3.46l0-1.6-4.31-2.39Z"/>
        <path class="cls-3-8" d="M52.91,409.49l-.55-.08a17.22,17.22,0,0,1-3.07,4.34c-1.76,1.63-3.93,3.43-3.93,3.43l-1,3.07,3,3.33,1,.1,7.1-11.44Z"/>
        <path class="cls-3-8" d="M101.32,412.91l.52-6,4.8-1.11,7.9-1.46,2.11,2.46s-9.38,6.18-11.18,6.52A9.92,9.92,0,0,1,101.32,412.91Z"/>
        <path class="cls-3-8" d="M143,411.47a34.63,34.63,0,0,1-.55-3.9c.05-.63-1.55-3.94-1.55-3.94l3-1.32,5.31,9.45.38,3.6-5.1.31Z"/>
        <path class="cls-3-8" d="M69,401l-1.08,4.23s3.75,1.56,5.09,2a14.27,14.27,0,0,1,3.57,2.68h2.67l2.68-3.57V405Z"/>
        <path class="cls-11" d="M116.67,352.82s5.8-4.9,9.81-6.69S135.85,343,139,343h3.12a22.65,22.65,0,0,1,.26,4.27c0,3.13.63,7.33,1.08,7.77s-4.91,2.68-8,5.8a47,47,0,0,0-6.2,8.76,32.91,32.91,0,0,0-5.84-8.76A69.31,69.31,0,0,1,116.67,352.82Z"/>
        <path class="cls-12" d="M59.59,398.76a15.67,15.67,0,0,1,4.46.89c2.68.89,5.31,1.46,5.31,1.46l-1.3,4.34s-1.78-1.34-5.79-1.79a15.62,15.62,0,0,0-7.14.89s-4.91,2.68-6.24-1.33,0-4.91,1.33-5.8a24.4,24.4,0,0,1,2.23-1.34s4-5.8,4-7.58a9.83,9.83,0,0,0-1.79-5.8c-1.33-1.78-5.35-4-5.79-4.9s-2.68-2.68-3.12-4.46a21.9,21.9,0,0,1,.89-11.6c1.78-4.46,6.69-8.92,10.7-9.36s8.92.89,10.26,1.33a20.07,20.07,0,0,1,4,2.68s4.46,2.68,5.8,2.68,18.28.89,22.3.44,10.7-4.46,12.48-5.35,4.46-2.23,6.25-1.34,3.12,0,5.79,3.57A28.32,28.32,0,0,1,129.16,368c.45,3.13-1.78,12-3.57,13.83l-4.9,4.91a37.33,37.33,0,0,1,1.33,4c.45,1.78,1.84,5.18,1.84,5.18a2.67,2.67,0,0,1,1.73,3c-.44,2.23-2.3,4.37-4.68,6a33.88,33.88,0,0,1-6.15,2.85l-1.93-2.8,5.93-6.24s-4.43-3.78-5.32-5.52-2.12-4.68-2.12-4.68-6.69,3.12-12.49,3.12-14.27-3.57-16.94-4.9a77.55,77.55,0,0,1-7.14-4.46s1.79-5.8,0-9.37-3.57-4-3.57-4,.45,13.38-2.22,17.39S59.59,398.76,59.59,398.76Z"/>
        <path class="cls-12" d="M144.32,341.45a4.81,4.81,0,0,0-3.1,5.7c.86,4.42,1.54,7.6,2.38,8a9.79,9.79,0,0,0,3.54,1.34c1.92.36,5.18.5,6.6.84s4.41.55,6.19,1.64,1.81.84,2.2,1.59a8.91,8.91,0,0,1,.62,2l4.82-.31s.78-3.23,0-4.63-13-10-13.55-10.92-2.92-5.08-3.45-5.3-1.73-.53-1.73-.53l-6.3-5.36a4.55,4.55,0,0,0-.24,1.91A36.68,36.68,0,0,0,144.32,341.45Z"/>
        <path class="cls-13" d="M155,347.62c-1.19-.89-1.72-3-2.69-4.3a6.89,6.89,0,0,0-2-1.87,2.67,2.67,0,0,1-2.59,1.56,3.93,3.93,0,0,1-3-1.93l-.89.25.67,13.57a1.11,1.11,0,0,0,.7,1,13.09,13.09,0,0,0,3.09.81c1.93.22,4.83.74,4.83.74a12,12,0,0,1,1.56-4.09c1.34-2.3,2.45-3.86,2.45-3.86A23.13,23.13,0,0,0,155,347.62Zm-2.39,1.23a2.23,2.23,0,1,1,.5-2.83A2.05,2.05,0,0,1,152.64,348.85Z"/>
        <path class="cls-3-10" d="M151.12,346.05s-.72,1,.2,1.5a.94.94,0,0,0,1.36-.25Z"/>
        <circle class="cls-3-9" cx="165.85" cy="359.13" r="1.07"/>
        <path class="cls-14" d="M158.61,355.59a2.39,2.39,0,0,0-3.58-.54l-11.6-14.27a.62.62,0,0,0-.89,0l-.45.45.89.89v11l-21.48-2.64-.84-.17-.2,1.11L135,362.15l.77-.84-13.23-9.72,31.55,4.8s-.14,1.91.94,2.59a2.49,2.49,0,0,0,3.54-3.39Zm-14.26-2.17-.47-9.52,8.92,11.15Zm12.24,5.2a1.56,1.56,0,1,1,1.56-1.56A1.56,1.56,0,0,1,156.59,358.62Z"/>
        <polygon class="cls-13" points="94.38 378.09 94.38 391.83 97.79 391.83 97.79 377.5 94.38 378.09"/>
        <path class="cls-13" d="M79.06,358.47l1.56,12.34a25.38,25.38,0,0,0,2.46,5.2c1.78,3,6.09,4,6.84,4h8.69l-.5-20.76Z"/>
        <path class="cls-15" d="M114.89,343.85a3.14,3.14,0,0,0-.5,2c.11,1.17.16,2.18.16,2.18h-1.5l-1.73,2.67s.17.45-.5.67-3.23-2.9-3.57-3.87-1.39-3.26-1.28-4.54,4.57-1.06,4.57-1.06Z"/>
        <path class="cls-16" d="M88.43,372.3l4.9-10.19,5.06,2.68-5.06,5.95s1.57,2.37,2.61,2.6,2.08.07,2.45,1-.82.89-.82.89H94.82Z"/>
        <path class="cls-17" d="M94.1,360.66l-.66,2.2,4.44,2.24s2.14-3.21,3.11-4.55,1.93-4.38,1.11-5-.29-1.34-2.75-1.56l-13.62-1.19-3.54-6.39s-5.13,2.23-4.52,7.28a5.9,5.9,0,0,0,7.19,5.58h9.92Z"/>
        <path class="cls-18" d="M82.15,347.28a17.53,17.53,0,0,1,6.5-3.08A52.92,52.92,0,0,1,98.17,343c1.89-.11,6.87-.52,7-.26A11.3,11.3,0,0,1,106,345a2.79,2.79,0,0,0,.89,1.45,11.2,11.2,0,0,1-.74,2.82c-.41.56-4.61,2.49-5.65,2.72l-7.92,1.71-7-.49Z"/>
        <path class="cls-13" d="M98.08,348.45s-.5-3.91,2.73-4.21a3.86,3.86,0,0,1,4.16,2.39,13.71,13.71,0,0,0,.28,3.63,39.22,39.22,0,0,1,1.25,4.26,10.38,10.38,0,0,0,.42,1.81l9.11-5,1.34,2.06s-6.58,4.71-7.94,5.6a39.1,39.1,0,0,0-3.91,3.34Z"/>
        <path class="cls-13" d="M105.45,342.83s3.6.81,5.35,1,6.88,1.52,7.06,1.56.63-.15.3-.41-1.93-1.08-1.93-1.19.33-3.68-.89-5a6.53,6.53,0,0,0-5.47-1.86,4.67,4.67,0,0,0-3.9,3.27A14.25,14.25,0,0,0,105.45,342.83Z"/>
        <path class="cls-3-10" d="M111.66,343.64a10.46,10.46,0,0,0-1.79,3,31,31,0,0,0-.63,3.68l-.82-.78a5.13,5.13,0,0,0,.19-2.19c-.26-.56-3.16-4.53-3.16-4.53l.93-.49,2.71,4.09,1.56-3Z"/>
        <polygon class="cls-15" points="115.78 352.15 116.56 348.36 122.92 346.75 122.92 351.76 116.51 353.55 115.78 352.15"/>
        <g>
          <path class="cls-3-8" d="M37.85,350.82a27,27,0,0,0-10,1,8,8,0,0,0-5.65,8.55l.48,4.3a3.11,3.11,0,0,1-3.74,3.37,15.1,15.1,0,0,1-6.81-3.42c-1.9-1.59-4.26-9.58-4.16-9.38A10.38,10.38,0,0,0,5.56,361,11,11,0,0,1,5,358.37a9.2,9.2,0,0,0,.27,4.94c0,.15.1.28.14.42,0,1,0,2,0,2.76a3.42,3.42,0,0,1-.36-.2,6.25,6.25,0,0,1-2-1.79,3.44,3.44,0,0,0,1.23,3.79,20.22,20.22,0,0,1,2.45,1.78l1.84,1.09s2.4,1.14-.16.81a9.16,9.16,0,0,1-3.24-.78s.28,2.78,3.63,2.67,4.79-.5,4.57-.16c-.07.1.27.17.7.22l.9.53a23.69,23.69,0,0,0-3.33,1.09s.82,1.11,6.06,1h.78l1.9,1.12c-.43.23-1,.53-1.61.91-1.67,1-4.9-.9-4.9-.9a21.63,21.63,0,0,0,5.8,2.9c3.1,1,4.15-2.07,4.23-2.32a15.84,15.84,0,0,0,1.76-1.05,2,2,0,0,1-.08.47,19.34,19.34,0,0,1-2.35,4.74,81.83,81.83,0,0,0,6.09-6.85A3.54,3.54,0,0,0,30,374a5.17,5.17,0,0,1-.24,1.72,17.64,17.64,0,0,1-2.36,5.16c1.27-1.69,4.3-5.7,5.55-7.09,1.61-1.77-2.68-8.47-2.68-8.47s-.49-1.2.79.22,2.23,4.94,2.23,4.94-.34-4.15-1.45-6.28c-1-1.83.56-3.4,1-3.8l.34-.17c.25,0,.62.19.52,1.55a17.14,17.14,0,0,0,.48,4.55s.67-2.13,1.23-4.13,3.34-3.79,3.34-3.79h4.14l.59.11c-1.15.35-4.47,1.47-5.17,2.9a11,11,0,0,1-2.9,3.23,19.58,19.58,0,0,0,4.12-3.12c2-2,7.07-1.82,7.07-1.82l-.08-.18c.63.3,1,.52,1,.52l1.72.84,1.56-3.23S47.23,351.63,37.85,350.82Zm-8.23,22.34h0Z"/>
          <path class="cls-3-8" d="M27.39,380.84l-.58.77S27,381.34,27.39,380.84Z"/>
        </g>
      </g>
      <text class="cls-19" transform="translate(82.15 371.32)">4</text>
    </g>
    <g id="_black-horse_" data-name="&lt;black-horse&gt;">
      <g>
        <path class="cls-3-10" d="M143.08,252.1s-7.5-2.38-19.39.9-20.49,19.2-20.49,19.2l21.06-10.47,16.85-4.92,4.09-3Z"/>
        <path class="cls-3-20" d="M124.18,319.5l6.1-5.22s3.87-3.35,4.06-5.55-.81-3.26-1.55-3.57a5.61,5.61,0,0,1-1.3-.8L124,294.45,117,296l-.79,3.63,2.43,3.29a11,11,0,0,0,4.25,3.47l4.14,1.91s-1.61,3.14-2.16,4.06-2,4.77-2,4.77Z"/>
        <path class="cls-3-20" d="M74.11,295.12s-12.18,7.84-16.58,9-10.26,2.67-10.26,2.67l-2,15-3.71-2s-.77-12.65-1.08-14.09-2.31-3-1-5.05,6.09-.46,6.09-.46,9.1-5.57,13.63-10.43a65.37,65.37,0,0,1,11-9l6.79,7Z"/>
        <path class="cls-3-21" d="M49,270.66s-3.61-6.07-13.13-6.9a27.87,27.87,0,0,0-16.54,3.84l1.59,14.5s-8.94-1.48-10.19-2.72-5.2-11.09-5.2-11.09A10.48,10.48,0,0,0,3,274.51a71.46,71.46,0,0,0,0,7.59l17.2,10.14s5.84-2,7.47-7A9.92,9.92,0,0,0,26,276.32s5.93-4.3,10.91-5a14.11,14.11,0,0,1,8.79,1.76l1.74.85Z"/>
        <path class="cls-3-10" d="M77.85,319.68l-.91,5h8.6a4.92,4.92,0,0,0-1.35-3.17,7.74,7.74,0,0,0-2.72-1.81Z"/>
        <path class="cls-3-10" d="M40.37,331.05l-4.18,2.23L42.25,340s1.93-1.92,1.62-3.52a13.3,13.3,0,0,0-.95-2.89Z"/>
        <path class="cls-3-10" d="M112.05,316.93l3.34,4.12-2.49,3.26s-.7,1.16-3.34,1.16-3.18-.85-3.18-.85Z"/>
        <path class="cls-3-10" d="M93.24,313.34s1.81,2.72,3.62,2.72a9.33,9.33,0,0,0,3.63-.91l1.36-.9-.46-5Z"/>
        <path d="M42,318.57l-.54.16A17.45,17.45,0,0,1,40.39,324c-1,2.24-2.26,4.79-2.26,4.79l.35,3.26,4.12,1.88,1-.31,1.95-13.53Z"/>
        <path d="M94.15,315.61l6.79-2.27,1.81.91,7.7-.46.91,3.17s-12.23,2.27-14,1.82S94.15,315.61,94.15,315.61Z"/>
        <path d="M115,320.82l4.35-1.09c.62-.15,3.26-2.79,3.26-2.79l2.25,2.41-9.4,8.61-4.58-1.17,2.41-4.89Z"/>
        <path d="M67.43,314.7,66.34,319s3.81,1.59,5.17,2,3.62,2.72,3.62,2.72h2.72l2.71-3.63v-1.35Z"/>
        <path class="cls-3-20" d="M115.88,265.79s5.89-5,10-6.79,9.51-3.17,12.68-3.17h3.16a22.55,22.55,0,0,1,.27,4.34c0,3.17.64,7.44,1.09,7.89s-5,2.72-8.15,5.89a47.83,47.83,0,0,0-6.3,8.89,33.33,33.33,0,0,0-5.92-8.89A70.49,70.49,0,0,1,115.88,265.79Z"/>
        <path class="cls-3-22" d="M57.92,312.44a16,16,0,0,1,4.53.9c2.72.91,5.39,1.49,5.39,1.49l-1.31,4.4s-1.82-1.36-5.89-1.81a15.68,15.68,0,0,0-7.25.9s-5,2.72-6.34-1.36,0-5,1.36-5.88a22.47,22.47,0,0,1,2.27-1.36s4.07-5.89,4.07-7.7a10,10,0,0,0-1.81-5.89c-1.36-1.81-5.43-4.07-5.89-5s-2.71-2.71-3.17-4.53a22.38,22.38,0,0,1,.91-11.77c1.81-4.53,6.79-9.06,10.87-9.51s9,.91,10.41,1.36a20.23,20.23,0,0,1,4.08,2.72s4.53,2.71,5.88,2.71,18.57.91,22.65.46,10.86-4.53,12.68-5.44,4.52-2.26,6.33-1.36,3.17,0,5.89,3.63a28.63,28.63,0,0,1,5,11.77c.46,3.17-1.81,12.23-3.62,14l-5,5a39.62,39.62,0,0,1,1.36,4.08,37.42,37.42,0,0,0,1.36,4.07,2.92,2.92,0,0,1,1.81,3.17c-.46,2.26-.91,2.26-2.27,3.17s-11.82,2.44-11.82,2.44l-.64-3.3a8.53,8.53,0,0,0,3.41-1.4c2.26-1.36,2.71-2.27,2.71-2.27s-3.17-1.81-3.62-3.62a28.8,28.8,0,0,0-1.81-4.53s-6.79,3.17-12.68,3.17-14.49-3.62-17.21-5a79.51,79.51,0,0,1-7.24-4.53s1.81-5.89,0-9.51-3.63-4.07-3.63-4.07.46,13.58-2.26,17.66S57.92,312.44,57.92,312.44Z"/>
        <path class="cls-3-22" d="M144,254.25a4.89,4.89,0,0,0-3.15,5.78c.87,4.49,1.56,7.72,2.41,8.17a10.25,10.25,0,0,0,3.6,1.36c2,.37,5.26.51,6.71.85s4.47.56,6.28,1.67,1.84.85,2.23,1.61a9,9,0,0,1,.63,2l4.89-.31s.8-3.29,0-4.7-13.21-10.16-13.75-11.1-3-5.15-3.51-5.37a17.35,17.35,0,0,0-1.76-.54l-6.39-5.44a4.6,4.6,0,0,0-.25,1.94A38.52,38.52,0,0,0,144,254.25Z"/>
        <path class="cls-3-23" d="M154.83,260.51c-1.21-.9-1.75-3-2.73-4.36a6.91,6.91,0,0,0-2-1.9,2.7,2.7,0,0,1-2.62,1.58,4,4,0,0,1-3-2l-.9.26.68,13.78a1.12,1.12,0,0,0,.71,1,13,13,0,0,0,3.13.82c2,.23,4.91.75,4.91.75a12.24,12.24,0,0,1,1.59-4.15c1.35-2.34,2.49-3.92,2.49-3.92A24.9,24.9,0,0,0,154.83,260.51Zm-2.43,1.25a2.27,2.27,0,1,1,.51-2.87A2.08,2.08,0,0,1,152.4,261.76Z"/>
        <path class="cls-3-24" d="M150.86,258.92s-.73,1,.2,1.53a1,1,0,0,0,1.39-.26Z"/>
        <circle class="cls-3-10" cx="165.82" cy="272.2" r="1.08"/>
        <path class="cls-14" d="M158.47,268.61a2.42,2.42,0,0,0-3.64-.55l-11.78-14.49a.62.62,0,0,0-.9,0l-.46.45.91.91v11.13l-21.81-2.68-.86-.17-.2,1.12,14.8,10.94.79-.86-13.44-9.86,32,4.87s-.15,1.93,1,2.63a2.53,2.53,0,0,0,3.6-3.44ZM144,266.4l-.48-9.66,9.05,11.32Zm12.42,5.28A1.59,1.59,0,1,1,158,270.1,1.58,1.58,0,0,1,156.41,271.68Z"/>
        <polygon class="cls-3-23" points="93.24 291.45 93.24 305.4 96.71 305.4 96.71 290.85 93.24 291.45"/>
        <path class="cls-3-23" d="M77.84,272.67,79.27,284a.58.58,0,0,0,0,.18,26.69,26.69,0,0,0,2.46,5.19c1.81,3,6.19,4.08,6.94,4.08h7.84a1,1,0,0,0,1-1l-.46-19.17a1,1,0,0,0-.94-.95l-17.27-.72A1,1,0,0,0,77.84,272.67Z"/>
        <path class="cls-15" d="M114.08,256.69a3.16,3.16,0,0,0-.52,2c.12,1.19.17,2.21.17,2.21H112.2l-1.75,2.71s.17.46-.51.68-3.28-2.94-3.62-3.93-1.42-3.31-1.3-4.61,4.64-1.08,4.64-1.08Z"/>
        <path class="cls-16" d="M87.2,285.57l5-10.34L97.32,278l-5.13,6s1.58,2.42,2.64,2.64,2.11.08,2.49,1-.83.9-.83.9h-2.8Z"/>
        <path class="cls-17" d="M93,273.76,92.3,276l4.5,2.28S99,275,100,273.64s2-4.45,1.13-5.05-.3-1.36-2.79-1.59l-13.84-1.21-3.6-6.49s-5.2,2.27-4.58,7.4c.84,7,7.3,5.66,7.3,5.66H93.66Z"/>
        <path class="cls-3-25" d="M80.83,260.17a17.7,17.7,0,0,1,6.6-3.13,55,55,0,0,1,9.66-1.21c1.93-.11,7-.53,7.13-.26a10.77,10.77,0,0,1,.83,2.26,2.82,2.82,0,0,0,.91,1.47,10.94,10.94,0,0,1-.76,2.87c-.41.57-4.67,2.53-5.73,2.76l-8,1.73-7.13-.49Z"/>
        <path class="cls-3-23" d="M97,261.35s-.51-4,2.77-4.27a3.93,3.93,0,0,1,4.22,2.43,14.09,14.09,0,0,0,.28,3.68,37.73,37.73,0,0,1,1.27,4.33,11.22,11.22,0,0,0,.43,1.84l9.25-5.07,1.36,2.1s-6.68,4.78-8.06,5.69a39.36,39.36,0,0,0-4,3.39Z"/>
        <path class="cls-3-23" d="M104.49,255.64s3.66.83,5.43,1.06,7,1.55,7.17,1.59.64-.16.3-.42-2-1.09-2-1.21.34-3.73-.9-5.09a6.62,6.62,0,0,0-5.55-1.89,4.72,4.72,0,0,0-4,3.32A14.22,14.22,0,0,0,104.49,255.64Z"/>
        <path class="cls-3-10" d="M110.79,256.47a10.66,10.66,0,0,0-1.81,3.06,30.54,30.54,0,0,0-.64,3.74l-.83-.8a5.15,5.15,0,0,0,.18-2.22c-.26-.57-3.2-4.61-3.2-4.61l.94-.49,2.76,4.15,1.58-3Z"/>
        <polygon class="cls-15" points="114.98 265.12 115.77 261.27 122.22 259.63 122.22 264.72 115.71 266.53 114.98 265.12"/>
      </g>
      <text class="cls-3-26" transform="translate(83.79 284.22)">3</text>
    </g>
    <g id="_brown-white-horse_" data-name="&lt;brown-white-horse&gt;">
      <g>
        <path class="cls-3-27" d="M151,153.35c-1.71-1.57-1.24-2.81-2.39-2.85s-3.56-.95-3.62-.82-2.2,1-4.19,1.78l-.06-.05a26.88,26.88,0,0,0-6.64-.89A13.58,13.58,0,0,0,130,150c-3.23.12-4.28.42-8.81.61s-6.44,1.27-7.56,2.84a14.28,14.28,0,0,0-1.19,2.36,38.72,38.72,0,0,0-5,4.14,6.17,6.17,0,0,0-6,4.85c-.21.89-.82,2.68-1.19,3.75a56,56,0,0,0-3.09,4.88L120.11,162l18.45-5.39,3-2.22c3-.49,5.78-.72,7-.1a19.68,19.68,0,0,1,4.43,3.11A5.91,5.91,0,0,0,151,153.35Z"/>
        <path class="cls-3-28" d="M134,215l-.31-8.79s-.24-5.6-2-7.26-3.35-1.53-4.12-1.11a6,6,0,0,1-1.58.57l-13.61-.31L109,205.24l2.56,3.14,4.49.16a11.9,11.9,0,0,0,5.86-1.28l4.46-2.24s1.6,3.51,2,4.61,2.73,5,2.73,5Z"/>
        <path class="cls-3-28" d="M69.2,187.12s-3,17.14-4.89,21.75-4.59,10.66-4.59,10.66l11.61,11.84-4.21,1.87s-11.45-7.86-12.9-8.55-4.12,0-5-2.52,3.7-5.56,3.7-5.56,1.32-11.63.17-18.8a39.86,39.86,0,0,1,.12-13.2l8.37-1Z"/>
        <path class="cls-3-27" d="M38,174.09s3.46-.67-5.46-6.35-23.88-5.31-24.74,3.57,5.58,11.64,5.87,20S2.92,203,2.92,203s7.72,1.56,11.75-1.17,8.77-6.43,9.55-11.36c.89-5.62-2.32-13.75-1-15.25,2.23-2.52,8-5.44,10.66.75s4.78,2.83,4.78,2.83Z"/>
        <path class="cls-3-27" d="M66.33,232l-.23.57a19,19,0,0,1,3.83,4.5c1.28,2.34,2.62,5.18,2.62,5.18l3,1.89,4.4-2.29.38-1L70,230Z"/>
        <path class="cls-3-27" d="M128.53,222.56l2-4.47c.29-.64-.17-4.7-.17-4.7l3.6-.29L135,227l-4.13,3.13-2.55-5.4Z"/>
        <path class="cls-3-27" d="M57.88,220l-1.2,4.71s4.17,1.73,5.66,2.23,4,3,4,3h3l3-4v-1.49Z"/>
        <path class="cls-3-28" d="M110.94,166.41s6.44-5.45,10.91-7.44,10.41-3.47,13.88-3.47h3.47a25.14,25.14,0,0,1,.29,4.75c0,3.48.7,8.15,1.2,8.64s-5.46,3-8.93,6.45-6.9,9.74-6.9,9.74a36.37,36.37,0,0,0-6.49-9.74A77.63,77.63,0,0,1,110.94,166.41Z"/>
        <path class="cls-3-29" d="M141.68,153.77a5.35,5.35,0,0,0-3.45,6.33c1,4.92,1.72,8.45,2.65,9a11.17,11.17,0,0,0,3.93,1.48c2.14.41,5.77.56,7.35.93s4.89.62,6.88,1.83,2,.93,2.45,1.77a10,10,0,0,1,.68,2.23l5.36-.34s.87-3.6,0-5.15-14.47-11.12-15.06-12.15-3.26-5.64-3.85-5.88a19.33,19.33,0,0,0-1.92-.59l-7-6a5,5,0,0,0-.27,2.12A41.17,41.17,0,0,0,141.68,153.77Z"/>
        <ellipse class="cls-30" cx="148.59" cy="160.15" rx="3.63" ry="3.04"/>
        <path class="cls-31" d="M153.58,160.63c-1.32-1-1.91-3.32-3-4.78a7.61,7.61,0,0,0-2.24-2.08,3,3,0,0,1-2.88,1.73,4.36,4.36,0,0,1-3.3-2.15l-1,.28.75,15.1a1.22,1.22,0,0,0,.77,1.08,14.84,14.84,0,0,0,3.43.9c2.15.25,5.38.83,5.38.83a13.18,13.18,0,0,1,1.73-4.55c1.49-2.56,2.73-4.3,2.73-4.3A26.07,26.07,0,0,0,153.58,160.63ZM150.93,162a2.49,2.49,0,0,1-2.45-4.24,2.49,2.49,0,0,1,2.45,4.24Z"/>
        <path class="cls-3-10" d="M149.24,158.88s-.8,1.12.22,1.67a1.07,1.07,0,0,0,1.52-.28Z"/>
        <path class="cls-3-10" d="M125.1,223.31l5.8-.05,1.1,4.35s.52,1.39-1.28,3.66-2.9,2.14-2.9,2.14Z"/>
        <circle class="cls-3-28" cx="165.62" cy="173.42" r="1.19"/>
        <path class="cls-3-29" d="M47.46,217.49a17.36,17.36,0,0,1,5,1c3,1,5.9,1.63,5.9,1.63l-1.44,4.82s-2-1.49-6.44-2a17.35,17.35,0,0,0-7.94,1s-5.45,3-6.94-1.48,0-5.46,1.49-6.45a27,27,0,0,1,2.48-1.49S44,208.07,44,206.08a10.87,10.87,0,0,0-2-6.44c-1.49-2-5.95-4.47-6.45-5.46s-3-3-3.47-5a24.44,24.44,0,0,1,1-12.89c2-5,7.44-9.92,11.9-10.41s9.92,1,11.41,1.48a22.31,22.31,0,0,1,4.46,3s5,3,6.45,3,20.33,1,24.79.5,11.9-5,13.89-5.95,5-2.48,6.94-1.49,3.47,0,6.45,4a31.59,31.59,0,0,1,5.45,12.89c.5,3.47-2,13.39-4,15.37l-5.45,5.46a43.08,43.08,0,0,1,1.49,4.46,41.25,41.25,0,0,0,1.48,4.47,3.2,3.2,0,0,1,2,3.47c-.5,2.48-1,2.48-2.48,3.47s-12.94,2.67-12.94,2.67l-.72-3.62a9,9,0,0,0,3.74-1.53c2.48-1.49,3-2.48,3-2.48s-3.48-2-4-4a32.46,32.46,0,0,0-2-5s-7.44,3.47-13.89,3.47-15.87-4-18.84-5.45a86.23,86.23,0,0,1-7.94-5s2-6.45,0-10.41-4-4.47-4-4.47.49,14.88-2.48,19.34S47.46,217.49,47.46,217.49Z"/>
        <ellipse class="cls-30" cx="100.07" cy="193.52" rx="2.77" ry="4.13" transform="translate(-114.49 231.3) rotate(-72.64)"/>
        <ellipse class="cls-30" cx="109.18" cy="181.88" rx="12.13" ry="6.84" transform="translate(-47.1 38.44) rotate(-16.48)"/>
        <ellipse class="cls-30" cx="64.77" cy="179.16" rx="4.85" ry="8.07" transform="translate(-125.56 187.54) rotate(-72.64)"/>
        <ellipse class="cls-30" cx="46.51" cy="183.94" rx="4.07" ry="2.72" transform="translate(-80.74 43.22) rotate(-27.93)"/>
        <ellipse class="cls-30" cx="127.91" cy="166.27" rx="3.02" ry="2.62"/>
        <ellipse class="cls-30" cx="132.84" cy="161.03" rx="1.22" ry="1.91" transform="translate(-68.33 216.78) rotate(-65.97)"/>
        <path class="cls-14" d="M157.57,169.49a2.66,2.66,0,0,0-4-.6L140.69,153a.69.69,0,0,0-1,0l-.5.5,1,1V166.7l-23.88-2.93-.94-.19-.22,1.23,16.21,12,.86-.93L117.51,165l35.08,5.34s-.16,2.12,1,2.88a2.77,2.77,0,0,0,3.94-3.77Zm-15.86-2.41-.52-10.59,9.91,12.4Zm13.61,5.78a1.74,1.74,0,1,1,1.73-1.74A1.74,1.74,0,0,1,155.32,172.86Z"/>
        <polygon class="cls-31" points="86.14 194.51 86.14 209.79 89.94 209.79 89.94 193.85 86.14 194.51"/>
        <path class="cls-31" d="M69.12,172.69l1.73,13.72a28.84,28.84,0,0,0,2.73,5.79c2,3.3,6.78,4.46,7.6,4.46h9.67l-.55-23.08Z"/>
        <path class="cls-15" d="M109,156.44a3.45,3.45,0,0,0-.57,2.22c.13,1.3.19,2.42.19,2.42h-1.67l-1.92,3s.18.49-.56.74-3.6-3.22-4-4.31-1.55-3.62-1.43-5.05,5.09-1.18,5.09-1.18Z"/>
        <path class="cls-16" d="M79.53,188.07,85,176.74l5.62,3L85,186.33s1.74,2.64,2.9,2.89,2.31.09,2.72,1.08-.9,1-.9,1H86.64Z"/>
        <path class="cls-17" d="M85.83,175.13l-.72,2.44L90,180.06s2.38-3.57,3.46-5.05,2.15-4.88,1.24-5.54-.33-1.49-3.06-1.74l-15.15-1.32-3.94-7.11s-5.71,2.48-5,8.1c.92,7.67,8,6.2,8,6.2h11Z"/>
        <path class="cls-32" d="M72.55,160.25a19.54,19.54,0,0,1,7.23-3.43,59.9,59.9,0,0,1,10.58-1.32c2.1-.12,7.64-.58,7.81-.29a12.83,12.83,0,0,1,.91,2.48,3,3,0,0,0,1,1.61,12,12,0,0,1-.83,3.14c-.45.62-5.12,2.77-6.28,3l-8.8,1.9-7.81-.54Z"/>
        <path class="cls-31" d="M90.26,161.55s-.55-4.34,3-4.68a4.28,4.28,0,0,1,4.62,2.66,15.41,15.41,0,0,0,.31,4,44.51,44.51,0,0,1,1.39,4.74,11.3,11.3,0,0,0,.47,2l10.13-5.55,1.49,2.29s-7.31,5.24-8.83,6.23A43.35,43.35,0,0,0,98.54,177Z"/>
        <path class="cls-31" d="M98.46,155.3s4,.9,6,1.15,7.64,1.7,7.85,1.74.7-.17.33-.46-2.15-1.19-2.15-1.32.37-4.09-1-5.58a7.21,7.21,0,0,0-6.08-2.06A5.19,5.19,0,0,0,99,152.4,15.6,15.6,0,0,0,98.46,155.3Z"/>
        <path class="cls-3-10" d="M105.36,156.2a11.7,11.7,0,0,0-2,3.35,34.7,34.7,0,0,0-.7,4.09l-.91-.87a5.67,5.67,0,0,0,.21-2.43c-.29-.62-3.51-5-3.51-5l1-.54,3,4.54,1.73-3.3Z"/>
        <polygon class="cls-15" points="109.94 165.67 110.81 161.45 117.88 159.66 117.88 165.23 110.75 167.22 109.94 165.67"/>
        <path class="cls-3-27" d="M86.64,221l7.44-2.48,2,1,8.43-.49,1,3.47s-13.39,2.48-15.37,2S86.64,221,86.64,221Z"/>
        <path class="cls-3-10" d="M87.13,220s2,3,4,3a10.32,10.32,0,0,0,4-1l1.48-1-.49-5.45Z"/>
        <path class="cls-3-10" d="M69.28,225.42l-1,5.46h9.42a5.35,5.35,0,0,0-1.49-3.47,8.48,8.48,0,0,0-3-2Z"/>
        <path class="cls-3-10" d="M76,241.8l-.89,5.1,9.91-.68s-.36-3-2-3.77a14.47,14.47,0,0,0-3.14-1.12Z"/>
      </g>
      <text class="cls-33" transform="translate(71.62 186.12)">2</text>
    </g>
    <g id="_white-horse_" data-name="&lt;white-horse&gt;">
      <g>
        <path class="cls-34" d="M143.07,66.92a19.86,19.86,0,0,0-3.4-.63c-.69-.74-2.18-1.75-5.24-1.82-4.87-.11-5.33.57-7.14,1.3s-1.92-.47-4.53.36-3.79,3-4.87,3.89-2.83-.45-5.32,1.25-4.27,5.24-5.42,6.87c-1,1.4-1.9,4.94-2.12,5.85-1.2,1.82-1.86,3-1.86,3l21.07-10.47,16.86-4.93,4.09-3Z"/>
        <path class="cls-35" d="M148.86,123.59l-3.67-2.87c-.83-.45-3.92-2.64-4.79-4.57a3.51,3.51,0,0,0-3.76-2,8.89,8.89,0,0,1-2.61-.45l-10.47-4.19-5.21,5,1.19,3.51,3.79,1.58a11,11,0,0,0,5.42.78l4.54-.49s4,3.59,4.88,4.19c2.5,1.7,9.29,2.5,9.29,2.5Z"/>
        <path class="cls-35" d="M77.8,109.56a22.14,22.14,0,0,1-2.49,8.78c-2.26,4-5.32,9.17-5.32,9.17L80.39,137l-2.59,2.64s-12.11-7.21-13.36-8-3.74-.45-4.3-2.83,4-4.65,4-4.65,2.46-10.39,2.19-17a36.68,36.68,0,0,1,1.55-12h7.7Z"/>
        <path class="cls-34" d="M48.55,86.26a1.43,1.43,0,0,0-.16-1.51c-1.31-1.64-5.14-5.51-12.6-6.17s-11.71.36-13.86,1.5c-1.89,1-4.91,2.81-4.83,6.43l2,5.06c.11,1,.31,2.1-1.28,4.15s-5.64,2.56-8.38-.6c-2.19-2.52-.15-1-3.17-8.38-1.45-3.55-1.87-2.26-2.38-1.11a10.73,10.73,0,0,0-.91,3.71c-.16,2.79.51,4.49.57,5.78,0,.48,1.62,4.43,2,4.68,0,0,5.51,5.75,10,4.83,4.15-.83,6.9.25,10.22-3,2.54-2.51,3.2-7.2,2.31-8.71-.39-.66-1.29-3.52-.53-3.59,7.3-.7,9.76-4.18,11.18-4.91,4.14-2.15,6.27,3.2,6.76,3.49l.13.07.39.19A1.42,1.42,0,0,0,48,87.49Z"/>
        <path class="cls-3-10" d="M29.67,133l-1.21-4.92L20.6,131.6a4.88,4.88,0,0,0,2.54,2.34,7.74,7.74,0,0,0,3.22.55Z"/>
        <path class="cls-3-10" d="M87.17,145.48l.23,4.73,8.69-2.6s-.91-2.56-2.49-3a13.06,13.06,0,0,0-3-.38Z"/>
        <path class="cls-3-10" d="M158.12,136l-1.36-5.12,3.61-2s1.12-.77,3.53.32,2.55,2.09,2.55,2.09Z"/>
        <path class="cls-3-10" d="M93.21,128.19s1.81,2.72,3.62,2.72a9.4,9.4,0,0,0,3.63-.91l1.36-.9-.46-5Z"/>
        <path class="cls-17" d="M76.58,138.65l-.08.55a17.52,17.52,0,0,1,4.31,3.24c1.61,1.84,3.37,4.1,3.37,4.1l3.09,1.08,3.47-2.92.12-1-11.4-7.54Z"/>
        <path class="cls-17" d="M94.11,130.46l6.8-2.27,1.81.91,7.7-.46.91,3.18s-12.23,2.26-14,1.81S94.11,130.46,94.11,130.46Z"/>
        <path class="cls-17" d="M154.79,130.87l-3.18-3.16c-.46-.45-4.09-1.35-4.09-1.35l.9-3.17L159,125.56l3,3.25-5.44,3Z"/>
        <path class="cls-17" d="M41.21,133.3l-.75-4.37s-4.13.11-5.56.25-4.42-1-4.42-1L28,129.28l-1,4.42.56,1.24Z"/>
        <path class="cls-35" d="M115.86,80.62s5.89-5,10-6.79,9.51-3.17,12.68-3.17h3.17A22.55,22.55,0,0,1,142,75c0,3.17.64,7.43,1.09,7.89s-5,2.72-8.15,5.89a48,48,0,0,0-6.31,8.9,33.3,33.3,0,0,0-5.92-8.9A70.49,70.49,0,0,1,115.86,80.62Z"/>
        <path class="cls-36" d="M67.61,125.1c-.56,2.3-4.19,4-6,4.68-2.25.78-2.45,1.45-7.61,2.05-6,.7-3.12.19-7.57,1.19-1.15.26-2.69-.08-5.36.23l-1-4.38c1.11-.49,5-1.58,5-1.58s7.69-1.8,7.6-3,1.65-3.28,3.27-3.5c.79-.11,1.79.08,1.85-.62s.22-2.68.22-3.67c0-1.82-3.73-3.74-5.09-5.55s-5.44-4.08-5.89-5-2.72-2.72-3.17-4.53a22.28,22.28,0,0,1,.9-11.78c1.82-4.53,6.8-9.06,10.88-9.51s9.06.91,10.42,1.36a19.05,19.05,0,0,1,4,2.64l.23.15C71,84.75,74.77,87,76,87s18.58.91,22.65.46,10.88-4.53,12.69-5.44,4.53-2.26,6.34-1.36,3.17,0,5.89,3.63a28.61,28.61,0,0,1,5,11.78c.46,3.17-1.81,12.23-3.62,14l-4.16,4.17a1.76,1.76,0,0,0-.42,1.87c.3.83.7,2,1,3a33.88,33.88,0,0,0,1.12,3.46,1.7,1.7,0,0,0,.73.88,2.75,2.75,0,0,1,1.32,2.91c-.46,2.26-.91,2.26-2.27,3.17-1,.68-7.09,1.7-10.12,2.18a1.78,1.78,0,0,1-2-1.43h0a1.79,1.79,0,0,1,1.09-2,13.12,13.12,0,0,0,2-1c.34-.21.64-.4.9-.59a1.78,1.78,0,0,0,.13-2.85,5.37,5.37,0,0,1-1.93-2.45,21.48,21.48,0,0,0-1.07-2.92,1.79,1.79,0,0,0-2.3-1A33,33,0,0,1,97.74,120c-5.89,0-14.5-3.63-17.22-5a64.55,64.55,0,0,1-6.21-3.82,1.78,1.78,0,0,1-.74-1.87c.43-1.9,1-5.72-.3-8.35-.06-.13-.12-.26-.19-.38a1.79,1.79,0,0,0-3.38.82c0,4.4-.07,9,.18,11.87C70.25,117.85,68.28,122.36,67.61,125.1Z"/>
        <path class="cls-36" d="M144,69.07a4.88,4.88,0,0,0-3.15,5.79c.87,4.49,1.56,7.72,2.41,8.17a10.25,10.25,0,0,0,3.6,1.36c1.95.37,5.26.51,6.71.85s4.47.56,6.28,1.67,1.84.85,2.24,1.61a8.72,8.72,0,0,1,.62,2l4.9-.31s.8-3.29,0-4.7-13.22-10.17-13.76-11.1-3-5.15-3.51-5.38a17.42,17.42,0,0,0-1.75-.54l-6.4-5.44a4.6,4.6,0,0,0-.25,1.94A38.52,38.52,0,0,0,144,69.07Z"/>
        <path class="cls-37" d="M154.82,75.34c-1.21-.91-1.75-3-2.73-4.37a7,7,0,0,0-2-1.9,2.73,2.73,0,0,1-2.63,1.59,4,4,0,0,1-3-2l-.9.26.68,13.79a1.12,1.12,0,0,0,.71,1,13.4,13.4,0,0,0,3.14.82c2,.23,4.9.75,4.9.75a12.24,12.24,0,0,1,1.59-4.15c1.36-2.34,2.49-3.93,2.49-3.93A22.38,22.38,0,0,0,154.82,75.34Zm-2.42,1.25a2.27,2.27,0,1,1,.51-2.88A2.1,2.1,0,0,1,152.4,76.59Z"/>
        <path class="cls-38" d="M150.86,73.74s-.74,1,.2,1.53a1,1,0,0,0,1.38-.25Z"/>
        <circle class="cls-35" cx="165.81" cy="87.03" r="1.08"/>
        <path class="cls-14" d="M158.46,83.43a2.43,2.43,0,0,0-3.64-.54L143,68.39a.62.62,0,0,0-.9,0l-.46.45.91.91V80.89l-21.82-2.68-.86-.18-.2,1.13L134.52,90.1l.78-.86-13.44-9.87,32.05,4.88s-.14,1.93,1,2.63a2.7,2.7,0,0,0,3.7-.77A2.74,2.74,0,0,0,158.46,83.43ZM144,81.23l-.48-9.67,9.06,11.33Zm12.43,5.28A1.59,1.59,0,1,1,158,84.93,1.59,1.59,0,0,1,156.41,86.51Z"/>
        <polygon class="cls-37" points="93.21 106.29 93.21 120.25 96.68 120.25 96.68 105.69 93.21 106.29"/>
        <path class="cls-37" d="M77.65,86.36l1.59,12.53a26,26,0,0,0,2.49,5.29c1.81,3,6.19,4.08,7,4.08h8.83L97,87.17Z"/>
        <path class="cls-15" d="M114.05,71.51a3.11,3.11,0,0,0-.51,2c.11,1.19.17,2.21.17,2.21h-1.53l-1.76,2.72s.17.45-.51.68-3.28-2.94-3.62-3.94-1.42-3.31-1.3-4.61,4.64-1.08,4.64-1.08Z"/>
        <path class="cls-16" d="M87.17,100.4l5-10.34,5.14,2.72-5.14,6s1.59,2.42,2.64,2.64,2.12.08,2.5,1-.84.91-.84.91H93.66Z"/>
        <path class="cls-17" d="M92.92,88.59l-.66,2.23,4.51,2.27s2.18-3.26,3.16-4.62,2-4.45,1.13-5-.3-1.36-2.79-1.59-13.85-1.21-13.85-1.21l-3.59-6.49s-5.21,2.26-4.6,7.4c.85,7,7.31,5.66,7.31,5.66H93.62Z"/>
        <path class="cls-39" d="M80.79,75a17.8,17.8,0,0,1,6.6-3.14,53.92,53.92,0,0,1,9.67-1.2c1.92-.12,7-.53,7.13-.27a10.43,10.43,0,0,1,.83,2.26,2.88,2.88,0,0,0,.91,1.48,11.34,11.34,0,0,1-.75,2.87c-.42.56-4.69,2.53-5.74,2.75l-8,1.74L84.26,81Z"/>
        <path class="cls-37" d="M97,76.18s-.51-4,2.78-4.28A3.93,3.93,0,0,1,104,74.34a14.11,14.11,0,0,0,.28,3.68,39.81,39.81,0,0,1,1.28,4.33,10.91,10.91,0,0,0,.42,1.84l9.26-5.07,1.36,2.1s-6.68,4.78-8.07,5.69a39,39,0,0,0-4,3.4Z"/>
        <path class="cls-37" d="M104.46,70.47s3.66.83,5.43,1,7,1.55,7.18,1.59.64-.15.3-.42-2-1.09-2-1.2.34-3.74-.91-5.1A6.61,6.61,0,0,0,109,64.5a4.73,4.73,0,0,0-4,3.32A14.38,14.38,0,0,0,104.46,70.47Z"/>
        <path class="cls-3-10" d="M110.76,71.3A10.66,10.66,0,0,0,109,74.36a30.19,30.19,0,0,0-.64,3.73l-.83-.79a5.31,5.31,0,0,0,.19-2.23c-.27-.56-3.21-4.6-3.21-4.6l.94-.49,2.76,4.15,1.58-3Z"/>
        <polygon class="cls-15" points="114.95 79.94 115.75 76.09 122.2 74.45 122.2 79.55 115.69 81.36 114.95 79.94"/>
      </g>
      <text class="cls-3-40" transform="translate(80.79 99.42)">1</text>
    </g>
  </g>
</svg>
