<svg xmlns="http://www.w3.org/2000/svg" xmlns:xlink="http://www.w3.org/1999/xlink" width="1020" height="499" viewBox="0 0 1020 499">
  <defs>
    <style>
      .cls-1 {
        opacity: 0.5;
      }

      .cls-2, .cls-7 {
        font-size: 36px;
      }

      .cls-2, .cls-5, .cls-6, .cls-7, .cls-8 {
        fill: #fff;
      }

      .cls-2 {
        stroke: #1d1d1b;
        stroke-width: 0.25px;
        font-family: OpenSans-ExtraBoldItalic, Open Sans;
        font-weight: 800;
        font-style: italic;
      }

      .cls-2, .cls-9 {
        stroke-miterlimit: 10;
      }

      .cls-3, .cls-9 {
        fill: #da5713;
      }

      .cls-4 {
        fill: #f7931e;
      }

      .cls-5 {
        font-size: 18px;
      }

      .cls-5, .cls-6, .cls-7, .cls-8 {
        font-family: OpenSans-Bold, Open Sans;
        font-weight: 700;
      }

      .cls-6 {
        font-size: 21px;
      }

      .cls-8 {
        font-size: 24px;
      }

      .cls-9 {
        stroke: #da5713;
      }
    </style>
  </defs>
  <title>prototypesave10_game 4 copy</title>
  <g id="FIFTH">
    <g id="back-2" data-name="back">
      <rect class="cls-1" width="1020" height="500"/>
    </g>
    <text class="cls-2" transform="translate(441.62 74.86)">POINTS</text>
    <polygon class="cls-3" points="440 81.21 572 82.71 440 84.21 440 81.21"/>
    <polygon class="cls-3" points="440 87.29 551.52 88.79 440 90.29 440 87.29"/>
    <g>
      <rect class="cls-4" x="169" y="258" width="703" height="60"/>
      <text class="cls-5" transform="translate(303.23 298.35)">2 SCOOBY</text>
      <text class="cls-6" transform="translate(798.01 300.63)">00:00</text>
      <text class="cls-7" transform="translate(195.33 299.36)">2nd</text>
    </g>
    <path class="cls-3" d="M425.89,120.16c-.62-.2-.41-1.13.52-.93a6.38,6.38,0,0,0,1.85.11v-4.13h-9.49V119s4,4.44,4.75,9.29c.75,5.07-.11,17.45-11,17.75-8.16.24-11.85-7.22-11.67-14a20.62,20.62,0,0,1,5-12.8l.1-4.23h-9.39v4.44s1-.1,1.85-.1c.43,0,.42.5.21.93-.92,1.84-4.46,8.24-4.54,14-.1,7.12,6,20.33,18.79,19.82s18.27-13.47,18.27-20.65S426.51,120.37,425.89,120.16Zm-24.06-3.25a1.29,1.29,0,1,1-1.29,1.29A1.3,1.3,0,0,1,401.83,116.91Zm-1.15,26.36-.05,0a.69.69,0,0,1-1.05-.15,17.8,17.8,0,0,1-2.13-5.29,28.57,28.57,0,0,1-.73-6.2c0-.42,1-.62,1-.2a45.12,45.12,0,0,0,1.34,6.5,40.43,40.43,0,0,0,1.77,4.26A.9.9,0,0,1,400.68,143.27Zm9.73,6.56-.16.46a.73.73,0,0,1-.82.45,13.2,13.2,0,0,1-3.1-1,16.07,16.07,0,0,1-3.56-2.78.69.69,0,0,1-.1-.93l.07-.09a.69.69,0,0,1,.94-.18l2.75,1.81a14.68,14.68,0,0,0,3.51,1.36A.7.7,0,0,1,410.41,149.83Zm12.38-30.34a1.29,1.29,0,1,1,1.29-1.29A1.29,1.29,0,0,1,422.79,119.49Zm-1,27.47a16.07,16.07,0,0,1-3.56,2.78,13.2,13.2,0,0,1-3.1,1,.73.73,0,0,1-.82-.45l-.16-.46a.7.7,0,0,1,.47-.9,14.68,14.68,0,0,0,3.51-1.36l2.75-1.81a.69.69,0,0,1,.94.18l.07.09A.69.69,0,0,1,421.84,147Zm3.19-3.8a.69.69,0,0,1-1,.15l-.05,0a.9.9,0,0,1-.19-1,40.43,40.43,0,0,0,1.77-4.26,45.12,45.12,0,0,0,1.34-6.5c.08-.42,1-.22,1,.2a28.57,28.57,0,0,1-.73,6.2A17.8,17.8,0,0,1,425,143.16Z"/>
    <path class="cls-3" d="M477.89,120.16c-.62-.2-.41-1.13.52-.93a6.38,6.38,0,0,0,1.85.11v-4.13h-9.49V119s4,4.44,4.75,9.29c.75,5.07-.11,17.45-11,17.75-8.16.24-11.85-7.22-11.67-14a20.62,20.62,0,0,1,5-12.8l.1-4.23h-9.39v4.44s1-.1,1.85-.1c.43,0,.42.5.21.93-.92,1.84-4.46,8.24-4.54,14-.1,7.12,6,20.33,18.79,19.82s18.27-13.47,18.27-20.65S478.51,120.37,477.89,120.16Zm-24.06-3.25a1.29,1.29,0,1,1-1.29,1.29A1.3,1.3,0,0,1,453.83,116.91Zm-1.15,26.36-.05,0a.69.69,0,0,1-1.05-.15,17.8,17.8,0,0,1-2.13-5.29,28.57,28.57,0,0,1-.73-6.2c0-.42,1-.62,1-.2a45.12,45.12,0,0,0,1.34,6.5,40.43,40.43,0,0,0,1.77,4.26A.9.9,0,0,1,452.68,143.27Zm9.73,6.56-.16.46a.73.73,0,0,1-.82.45,13.2,13.2,0,0,1-3.1-1,16.07,16.07,0,0,1-3.56-2.78.69.69,0,0,1-.1-.93l.07-.09a.69.69,0,0,1,.94-.18l2.75,1.81a14.68,14.68,0,0,0,3.51,1.36A.7.7,0,0,1,462.41,149.83Zm12.38-30.34a1.29,1.29,0,1,1,1.29-1.29A1.29,1.29,0,0,1,474.79,119.49Zm-1,27.47a16.07,16.07,0,0,1-3.56,2.78,13.2,13.2,0,0,1-3.1,1,.73.73,0,0,1-.82-.45l-.16-.46a.7.7,0,0,1,.47-.9,14.68,14.68,0,0,0,3.51-1.36l2.75-1.81a.69.69,0,0,1,.94.18l.07.09A.69.69,0,0,1,473.84,147Zm3.19-3.8a.69.69,0,0,1-1,.15l-.05,0a.9.9,0,0,1-.19-1,40.43,40.43,0,0,0,1.77-4.26,45.12,45.12,0,0,0,1.34-6.5c.08-.42,1-.22,1,.2a28.57,28.57,0,0,1-.73,6.2A17.8,17.8,0,0,1,477,143.16Z"/>
    <path class="cls-3" d="M528.89,120.16c-.62-.2-.41-1.13.52-.93a6.38,6.38,0,0,0,1.85.11v-4.13h-9.49V119s4,4.44,4.75,9.29c.75,5.07-.11,17.45-11,17.75-8.16.24-11.85-7.22-11.67-14a20.62,20.62,0,0,1,5-12.8l.1-4.23h-9.39v4.44s1-.1,1.85-.1c.43,0,.42.5.21.93-.92,1.84-4.46,8.24-4.54,14-.1,7.12,6,20.33,18.79,19.82s18.27-13.47,18.27-20.65S529.51,120.37,528.89,120.16Zm-24.06-3.25a1.29,1.29,0,1,1-1.29,1.29A1.3,1.3,0,0,1,504.83,116.91Zm-1.15,26.36-.05,0a.69.69,0,0,1-1.05-.15,17.8,17.8,0,0,1-2.13-5.29,28.57,28.57,0,0,1-.73-6.2c0-.42,1-.62,1-.2a45.12,45.12,0,0,0,1.34,6.5,40.43,40.43,0,0,0,1.77,4.26A.9.9,0,0,1,503.68,143.27Zm9.73,6.56-.16.46a.73.73,0,0,1-.82.45,13.2,13.2,0,0,1-3.1-1,16.07,16.07,0,0,1-3.56-2.78.69.69,0,0,1-.1-.93l.07-.09a.69.69,0,0,1,.94-.18l2.75,1.81a14.68,14.68,0,0,0,3.51,1.36A.7.7,0,0,1,513.41,149.83Zm12.38-30.34a1.29,1.29,0,1,1,1.29-1.29A1.29,1.29,0,0,1,525.79,119.49ZM524.84,147a16.07,16.07,0,0,1-3.56,2.78,13.2,13.2,0,0,1-3.1,1,.73.73,0,0,1-.82-.45l-.16-.46a.7.7,0,0,1,.47-.9,14.68,14.68,0,0,0,3.51-1.36l2.75-1.81a.69.69,0,0,1,.94.18l.07.09A.69.69,0,0,1,524.84,147Zm3.19-3.8a.69.69,0,0,1-1,.15l-.05,0a.9.9,0,0,1-.19-1,40.43,40.43,0,0,0,1.77-4.26,45.12,45.12,0,0,0,1.34-6.5c.08-.42,1-.22,1,.2a28.57,28.57,0,0,1-.73,6.2A17.8,17.8,0,0,1,528,143.16Z"/>
    <path class="cls-3" d="M577.89,120.16c-.62-.2-.41-1.13.52-.93a6.38,6.38,0,0,0,1.85.11v-4.13h-9.49V119s4,4.44,4.75,9.29c.75,5.07-.11,17.45-11,17.75-8.16.24-11.85-7.22-11.67-14a20.62,20.62,0,0,1,5-12.8l.1-4.23h-9.39v4.44s1-.1,1.85-.1c.43,0,.42.5.21.93-.92,1.84-4.46,8.24-4.54,14-.1,7.12,6,20.33,18.79,19.82s18.27-13.47,18.27-20.65S578.51,120.37,577.89,120.16Zm-24.06-3.25a1.29,1.29,0,1,1-1.29,1.29A1.3,1.3,0,0,1,553.83,116.91Zm-1.15,26.36,0,0a.69.69,0,0,1-1-.15,17.8,17.8,0,0,1-2.13-5.29,28.57,28.57,0,0,1-.73-6.2c0-.42,1-.62,1-.2a45.12,45.12,0,0,0,1.34,6.5,40.43,40.43,0,0,0,1.77,4.26A.9.9,0,0,1,552.68,143.27Zm9.73,6.56-.16.46a.73.73,0,0,1-.82.45,13.2,13.2,0,0,1-3.1-1,16.07,16.07,0,0,1-3.56-2.78.69.69,0,0,1-.1-.93l.07-.09a.69.69,0,0,1,.94-.18l2.75,1.81a14.68,14.68,0,0,0,3.51,1.36A.7.7,0,0,1,562.41,149.83Zm12.38-30.34a1.29,1.29,0,1,1,1.29-1.29A1.29,1.29,0,0,1,574.79,119.49ZM573.84,147a16.07,16.07,0,0,1-3.56,2.78,13.2,13.2,0,0,1-3.1,1,.73.73,0,0,1-.82-.45l-.16-.46a.7.7,0,0,1,.47-.9,14.68,14.68,0,0,0,3.51-1.36l2.75-1.81a.69.69,0,0,1,.94.18l.07.09A.69.69,0,0,1,573.84,147Zm3.19-3.8a.69.69,0,0,1-1,.15l-.05,0a.9.9,0,0,1-.19-1,40.43,40.43,0,0,0,1.77-4.26,45.12,45.12,0,0,0,1.34-6.5c.08-.42,1-.22,1,.2a28.57,28.57,0,0,1-.73,6.2A17.8,17.8,0,0,1,577,143.16Z"/>
    <path d="M628.89,120.16c-.62-.2-.41-1.13.52-.93a6.38,6.38,0,0,0,1.85.11v-4.13h-9.49V119s4,4.44,4.75,9.29c.75,5.07-.11,17.45-11,17.75-8.16.24-11.85-7.22-11.67-14a20.62,20.62,0,0,1,5-12.8l.1-4.23h-9.39v4.44s1-.1,1.85-.1c.43,0,.42.5.21.93-.92,1.84-4.46,8.24-4.54,14-.1,7.12,6,20.33,18.79,19.82s18.27-13.47,18.27-20.65S629.51,120.37,628.89,120.16Zm-24.06-3.25a1.29,1.29,0,1,1-1.29,1.29A1.3,1.3,0,0,1,604.83,116.91Zm-1.15,26.36,0,0a.69.69,0,0,1-1-.15,17.8,17.8,0,0,1-2.13-5.29,28.57,28.57,0,0,1-.73-6.2c0-.42,1-.62,1-.2a45.12,45.12,0,0,0,1.34,6.5,40.43,40.43,0,0,0,1.77,4.26A.9.9,0,0,1,603.68,143.27Zm9.73,6.56-.16.46a.73.73,0,0,1-.82.45,13.2,13.2,0,0,1-3.1-1,16.07,16.07,0,0,1-3.56-2.78.69.69,0,0,1-.1-.93l.07-.09a.69.69,0,0,1,.94-.18l2.75,1.81a14.68,14.68,0,0,0,3.51,1.36A.7.7,0,0,1,613.41,149.83Zm12.38-30.34a1.29,1.29,0,1,1,1.29-1.29A1.29,1.29,0,0,1,625.79,119.49ZM624.84,147a16.07,16.07,0,0,1-3.56,2.78,13.2,13.2,0,0,1-3.1,1,.73.73,0,0,1-.82-.45l-.16-.46a.7.7,0,0,1,.47-.9,14.68,14.68,0,0,0,3.51-1.36l2.75-1.81a.69.69,0,0,1,.94.18l.07.09A.69.69,0,0,1,624.84,147Zm3.19-3.8a.69.69,0,0,1-1,.15l-.05,0a.9.9,0,0,1-.19-1,40.43,40.43,0,0,0,1.77-4.26,45.12,45.12,0,0,0,1.34-6.5c.08-.42,1-.22,1,.2a28.57,28.57,0,0,1-.73,6.2A17.8,17.8,0,0,1,628,143.16Z"/>
    <text class="cls-8" transform="translate(452 193.91)"><tspan xml:space="preserve"> 40 Points</tspan></text>
    <g id="plant">
      <path class="cls-3" d="M737.63,426.76c9.16-1,18.43-2.59,27.56-4.45s18.23-4.08,27.2-6.66a272.27,272.27,0,0,0,52-20.45c16.42-8.71,31.86-19.63,44-33.69a99.76,99.76,0,0,0,8.35-11.08,90.85,90.85,0,0,0,6.73-12.13,89.71,89.71,0,0,0,4.84-13l.9-3.36c.31-1.12.49-2.26.75-3.39.53-2.26.81-4.56,1.18-6.85A111.56,111.56,0,0,0,911,283.9c-.33-2.3-.69-4.61-1.08-6.9l-1.45-6.85c-.25-1.14-.47-2.29-.75-3.43l-1-3.37c-.65-2.24-1.22-4.5-1.94-6.72a134.34,134.34,0,0,0-11.4-25.51l-3.7-5.94-4.13-5.65a112.57,112.57,0,0,0-9.29-10.48,110.24,110.24,0,0,0-22.19-17,128.24,128.24,0,0,0-25.65-11.33A154.06,154.06,0,0,0,801,174.78a146.76,146.76,0,0,0-28.11-.89,147.16,147.16,0,0,1,28.15.58,155,155,0,0,1,27.61,5.65,128.61,128.61,0,0,1,25.94,11.12,110.53,110.53,0,0,1,32.11,27.42l4.25,5.68,3.83,6A137,137,0,0,1,906.62,256c.76,2.24,1.36,4.53,2,6.79l1,3.4c.3,1.15.53,2.31.79,3.46l1.55,6.92c.43,2.32.82,4.66,1.18,7A113.48,113.48,0,0,1,913.6,312c-.36,2.35-.62,4.72-1.14,7.05-.24,1.16-.42,2.34-.73,3.49l-.88,3.46A92.94,92.94,0,0,1,906,339.47,95.17,95.17,0,0,1,899.22,352a103.54,103.54,0,0,1-8.48,11.5,115.65,115.65,0,0,1-9.83,10.34c-1.7,1.66-3.53,3.19-5.31,4.76s-3.65,3-5.56,4.46c-3.75,2.91-7.66,5.61-11.66,8.17s-8.09,5-12.24,7.23a276.66,276.66,0,0,1-52.52,21.35c-9.06,2.72-18.23,5-27.47,7s-18.51,3.68-28,4.84Z"/>
      <path class="cls-9" d="M775.31,422s-2.67-8.19-2.28-11.55,4.28-9.83,4.28-9.83,5,4.83,4,10.75S775.31,422,775.31,422Z"/>
      <path class="cls-9" d="M795.56,416.89s10.2,1.65,13.54,3.39,8,7.3,8,7.3-7.93,1.44-13.68-1.79A18.79,18.79,0,0,1,795.56,416.89Z"/>
      <path class="cls-9" d="M825.34,387.64s.49,8.61-.74,11.88-6.62,9-6.62,9-3.54-5.64-1.14-11.37S825.34,387.64,825.34,387.64Z"/>
      <path class="cls-9" d="M853.72,373.57s1.82,8.4,1.09,11.74-5.22,9.57-5.22,9.57-4.43-5.18-2.91-11.06S853.72,373.57,853.72,373.57Z"/>
      <path class="cls-9" d="M876.82,353.07s3.84,7.81,3.93,11.16-2.9,10.08-2.9,10.08-5.66-4.28-5.56-10.2S876.82,353.07,876.82,353.07Z"/>
      <path class="cls-9" d="M892.67,330.24s5.45,7.07,6.22,10.31-.81,10.2-.81,10.2-6.54-3.38-7.66-9.15S892.67,330.24,892.67,330.24Z"/>
      <path class="cls-9" d="M896.54,302.37s8.49,4.62,10.74,7.28,4,9.39,4,9.39-7.81-1-11.57-5.79A16.73,16.73,0,0,1,896.54,302.37Z"/>
      <path class="cls-9" d="M893.35,274.2s9.43,3.34,12.21,5.62,5.89,8.6,5.89,8.6-8,.11-12.74-4.06A17.31,17.31,0,0,1,893.35,274.2Z"/>
      <path class="cls-9" d="M881.82,243.68s10.36,1.11,13.84,2.66,8.57,6.85,8.57,6.85-7.84,1.84-13.85-1.08A19.43,19.43,0,0,1,881.82,243.68Z"/>
      <path class="cls-9" d="M861.19,215.46s10.55-1.27,14.49-.58,10.71,4.52,10.71,4.52-7.1,3.48-14,2.09A23.05,23.05,0,0,1,861.19,215.46Z"/>
      <path class="cls-9" d="M829.71,193.69s10.22-2.89,14.3-2.85,11.74,2.68,11.74,2.68-6.26,4.49-13.44,4.23A25.86,25.86,0,0,1,829.71,193.69Z"/>
      <path class="cls-9" d="M796.7,182.34s9.76-3.94,13.86-4.34,12.18,1.36,12.18,1.36S817.2,184.44,810,185A27.64,27.64,0,0,1,796.7,182.34Z"/>
      <path class="cls-9" d="M833,404s10.55-1.38,14.5-.74,10.79,4.39,10.79,4.39-7,3.57-14,2.24A23.25,23.25,0,0,1,833,404Z"/>
      <path class="cls-9" d="M863.78,386s10.44-2.08,14.47-1.71,11.27,3.62,11.27,3.62-6.72,4-13.78,3.17A24.48,24.48,0,0,1,863.78,386Z"/>
      <path class="cls-9" d="M888.87,363.93s10.29-2.65,14.37-2.51,11.6,3,11.6,3-6.4,4.35-13.56,3.91A25.4,25.4,0,0,1,888.87,363.93Z"/>
      <path class="cls-9" d="M905.75,337.59s9.56-4.31,13.64-4.88,12.29.87,12.29.87-5.25,5.28-12.48,6.08A28.27,28.27,0,0,1,905.75,337.59Z"/>
      <path class="cls-9" d="M913.89,307.87s5.42-7.77,8.6-10.08,11.34-4.94,11.34-4.94a17,17,0,0,1-6.77,10.5C921.29,307.28,913.89,307.87,913.89,307.87Z"/>
      <path class="cls-9" d="M911.42,272.15s2.79-8.52,5.16-11.4,9.55-7.14,9.55-7.14A14.65,14.65,0,0,1,922.9,265C918.51,270,911.42,272.15,911.42,272.15Z"/>
      <path class="cls-9" d="M898.27,236.57s-.74-8.57.4-11.86,6.37-9.15,6.37-9.15,3.72,5.56,1.47,11.33S898.27,236.57,898.27,236.57Z"/>
      <path class="cls-9" d="M877.31,207.16s-4.54-7.52-4.92-10.83,2-10.17,2-10.17,6.05,3.91,6.48,9.79S877.31,207.16,877.31,207.16Z"/>
      <path class="cls-9" d="M840.4,183.68s-5.91-6.8-6.89-10,.17-10.19.17-10.19,6.77,3.08,8.26,8.78S840.4,183.68,840.4,183.68Z"/>
    </g>
    <g id="plant-2" data-name="plant">
      <path class="cls-3" d="M296.57,432.74c-9.5-1.16-18.75-2.85-28-4.84s-18.4-4.33-27.46-7a276.66,276.66,0,0,1-52.52-21.35c-4.16-2.27-8.26-4.65-12.25-7.23s-7.9-5.26-11.65-8.17c-1.91-1.42-3.72-3-5.57-4.46s-3.6-3.1-5.31-4.76A118.57,118.57,0,0,1,144,364.54a104.74,104.74,0,0,1-8.47-11.5,95.17,95.17,0,0,1-6.79-12.57A92.94,92.94,0,0,1,123.86,327l-.88-3.46c-.31-1.15-.49-2.33-.74-3.49-.52-2.33-.78-4.7-1.13-7.05a113.48,113.48,0,0,1,.42-28.41c.36-2.34.75-4.68,1.17-7l1.55-6.92c.27-1.15.5-2.31.8-3.46l1-3.4c.69-2.26,1.29-4.55,2-6.79a136.4,136.4,0,0,1,11.83-25.72l3.83-6,4.24-5.68a110.85,110.85,0,0,1,32.12-27.42A128.77,128.77,0,0,1,206,181.12a155.06,155.06,0,0,1,27.62-5.65,147.14,147.14,0,0,1,28.15-.58,146.73,146.73,0,0,0-28.11.89,154.06,154.06,0,0,0-27.47,5.94,128,128,0,0,0-25.65,11.33,110.58,110.58,0,0,0-22.2,17,113.93,113.93,0,0,0-9.28,10.48L145,226.18l-3.71,5.94a134.94,134.94,0,0,0-11.39,25.51c-.73,2.22-1.29,4.48-2,6.72l-.94,3.37c-.28,1.14-.5,2.29-.75,3.43L124.78,278c-.4,2.29-.75,4.6-1.08,6.9a111.09,111.09,0,0,0-.11,27.81c.37,2.29.65,4.59,1.18,6.85.25,1.13.44,2.27.75,3.39l.9,3.36a89.71,89.71,0,0,0,4.84,13A91.92,91.92,0,0,0,138,351.43a101.09,101.09,0,0,0,8.36,11.08c12.14,14.06,27.59,25,44,33.69a272.62,272.62,0,0,0,52,20.45q13.45,3.87,27.2,6.66c9.13,1.86,18.4,3.44,27.56,4.45Z"/>
      <path class="cls-9" d="M259.4,423s2.67-8.19,2.27-11.55-4.27-9.83-4.27-9.83-5,4.83-4,10.75S259.4,423,259.4,423Z"/>
      <path class="cls-9" d="M239.15,417.89s-10.21,1.65-13.54,3.39-8,7.3-8,7.3,7.93,1.44,13.68-1.79A18.86,18.86,0,0,0,239.15,417.89Z"/>
      <path class="cls-9" d="M209.36,388.64s-.48,8.61.75,11.88,6.61,9,6.61,9,3.55-5.64,1.15-11.37S209.36,388.64,209.36,388.64Z"/>
      <path class="cls-9" d="M181,374.57s-1.82,8.4-1.1,11.74,5.23,9.57,5.23,9.57,4.43-5.18,2.91-11.06S181,374.57,181,374.57Z"/>
      <path class="cls-9" d="M157.89,354.07s-3.84,7.81-3.93,11.16,2.89,10.08,2.89,10.08,5.66-4.28,5.57-10.2S157.89,354.07,157.89,354.07Z"/>
      <path class="cls-9" d="M142,331.24s-5.45,7.07-6.22,10.31.81,10.2.81,10.2,6.53-3.38,7.66-9.15S142,331.24,142,331.24Z"/>
      <path class="cls-9" d="M138.16,303.37s-8.49,4.62-10.73,7.28-4,9.39-4,9.39,7.81-1,11.58-5.79A16.69,16.69,0,0,0,138.16,303.37Z"/>
      <path class="cls-9" d="M141.35,275.2s-9.42,3.34-12.2,5.62-5.89,8.6-5.89,8.6,8,.11,12.73-4.06A17.24,17.24,0,0,0,141.35,275.2Z"/>
      <path class="cls-9" d="M152.88,244.68s-10.35,1.11-13.83,2.66-8.57,6.85-8.57,6.85,7.84,1.84,13.85-1.08A19.44,19.44,0,0,0,152.88,244.68Z"/>
      <path class="cls-9" d="M173.52,216.46S163,215.19,159,215.88s-10.71,4.52-10.71,4.52,7.1,3.48,14,2.09A23.05,23.05,0,0,0,173.52,216.46Z"/>
      <path class="cls-9" d="M205,194.69s-10.21-2.89-14.3-2.85S179,194.52,179,194.52s6.26,4.49,13.44,4.23A25.8,25.8,0,0,0,205,194.69Z"/>
      <path class="cls-9" d="M238,183.34s-9.77-3.94-13.86-4.34S212,180.36,212,180.36s5.54,5.08,12.78,5.6A27.64,27.64,0,0,0,238,183.34Z"/>
      <path class="cls-9" d="M201.69,405s-10.54-1.38-14.49-.74-10.8,4.39-10.8,4.39,7,3.57,14,2.24A23.19,23.19,0,0,0,201.69,405Z"/>
      <path class="cls-9" d="M170.92,387s-10.43-2.08-14.46-1.71-11.27,3.62-11.27,3.62,6.71,4,13.78,3.17A24.48,24.48,0,0,0,170.92,387Z"/>
      <path class="cls-9" d="M145.84,364.93s-10.3-2.65-14.37-2.51-11.6,3-11.6,3,6.4,4.35,13.55,3.91A25.41,25.41,0,0,0,145.84,364.93Z"/>
      <path class="cls-9" d="M129,338.59s-9.56-4.31-13.64-4.88-12.29.87-12.29.87,5.25,5.28,12.47,6.08A28.3,28.3,0,0,0,129,338.59Z"/>
      <path class="cls-9" d="M120.82,308.87s-5.42-7.77-8.6-10.08-11.34-4.94-11.34-4.94a17,17,0,0,0,6.77,10.5C113.42,308.28,120.82,308.87,120.82,308.87Z"/>
      <path class="cls-9" d="M123.29,273.15s-2.79-8.52-5.17-11.4-9.54-7.14-9.54-7.14A14.65,14.65,0,0,0,111.81,266C116.2,271,123.29,273.15,123.29,273.15Z"/>
      <path class="cls-9" d="M136.44,237.57s.73-8.57-.41-11.86-6.36-9.15-6.36-9.15-3.72,5.56-1.47,11.33S136.44,237.57,136.44,237.57Z"/>
      <path class="cls-9" d="M157.4,208.16s4.54-7.52,4.91-10.83-2-10.17-2-10.17-6,3.91-6.47,9.79S157.4,208.16,157.4,208.16Z"/>
      <path class="cls-9" d="M194.31,184.68s5.91-6.8,6.88-10S201,164.5,201,164.5s-6.76,3.08-8.25,8.78S194.31,184.68,194.31,184.68Z"/>
    </g>
    <image width="6389" height="4307" transform="translate(344 205) scale(0.07)" xlink:href="horses%20for%20svg-04.png"/>
    <image width="6389" height="4307" transform="translate(344 205) scale(0.07)" xlink:href="horses%20for%20svg-05.png"/>
    <image width="6389" height="4306" transform="translate(344 205) scale(0.07)" xlink:href="horses%20for%20svg-02.png"/>
    <image width="6389" height="4306" transform="translate(344 205) scale(0.07)" xlink:href="horses%20for%20svg-03.png"/>
  </g>
</svg>
